<svg width="2416.6" height="1130.0" viewBox="-578.3 -210.0 2416.6 1130.0" xmlns="http://www.w3.org/2000/svg">
<defs>
<marker id="arrow" viewBox="0 0 10 10" refX="10" refY="5" markerWidth="6" markerHeight="6" orient="auto-start-reverse"><path d="M 0 0 L 10 5 L 0 10 z" fill="black" /></marker>
<marker id="call_arrow" viewBox="0 0 10 10" refX="10" refY="5" markerWidth="8" markerHeight="8" orient="auto-start-reverse"><path d="M 0 0 L 10 5 L 0 10 M 0 2 L 6 5 L 0 8" fill="none" stroke="black" stroke-width="1" /></marker>
</defs>
<rect x="-578.3" y="-210.0" width="2416.6" height="1130.0" fill="white" />
<rect x="130.0" y="120.0" width="200.0" height="160.0" stroke="black" fill="white" stroke-width="1.5" data-id="A1" />
<text x="230.0" y="166.7" text-anchor="middle" font-size="17" font-weight="bold" font-family="'Times New Roman', 'BiauKai', 'DFKai-SB', '標楷體', 'KaiTi', serif" data-id="A1" >A1</text>
<text x="230.0" y="200.9" text-anchor="middle" font-size="19" font-weight="bold" font-family="'Times New Roman', 'BiauKai', 'DFKai-SB', '標楷體', 'KaiTi', serif" data-id="A1" >ROUTE HTTP</text>
<text x="230.0" y="236.6" text-anchor="middle" font-size="19" font-weight="bold" font-family="'Times New Roman', 'BiauKai', 'DFKai-SB', '標楷體', 'KaiTi', serif" data-id="A1" >THROUGH GATEWAY</text>
<rect x="530.0" y="120.0" width="200.0" height="160.0" stroke="black" fill="white" stroke-width="1.5" data-id="A2" />
<text x="630.0" y="165.2" text-anchor="middle" font-size="18" font-weight="bold" font-family="'Times New Roman', 'BiauKai', 'DFKai-SB', '標楷體', 'KaiTi', serif" data-id="A2" >A2</text>
<text x="630.0" y="200.9" text-anchor="middle" font-size="20" font-weight="bold" font-family="'Times New Roman', 'BiauKai', 'DFKai-SB', '標楷體', 'KaiTi', serif" data-id="A2" >SPAWN PER-USER</text>
<text x="630.0" y="238.4" text-anchor="middle" font-size="20" font-weight="bold" font-family="'Times New Roman', 'BiauKai', 'DFKai-SB', '標楷體', 'KaiTi', serif" data-id="A2" >DAEMON</text>
<rect x="890.0" y="120.0" width="200.0" height="160.0" stroke="black" fill="white" stroke-width="1.5" data-id="A3" />
<text x="990.0" y="168.1" text-anchor="middle" font-size="16" font-weight="bold" font-family="'Times New Roman', 'BiauKai', 'DFKai-SB', '標楷體', 'KaiTi', serif" data-id="A3" >A3</text>
<text x="990.0" y="201.0" text-anchor="middle" font-size="18" font-weight="bold" font-family="'Times New Roman', 'BiauKai', 'DFKai-SB', '標楷體', 'KaiTi', serif" data-id="A3" >COORDINATE</text>
<text x="990.0" y="234.7" text-anchor="middle" font-size="18" font-weight="bold" font-family="'Times New Roman', 'BiauKai', 'DFKai-SB', '標楷體', 'KaiTi', serif" data-id="A3" >DAEMON LIFECYCLE</text>
<rect x="130.0" y="460.0" width="200.0" height="160.0" stroke="black" fill="white" stroke-width="1.5" data-id="A4" />
<text x="230.0" y="491.2" text-anchor="middle" font-size="16" font-weight="bold" font-family="'Times New Roman', 'BiauKai', 'DFKai-SB', '標楷體', 'KaiTi', serif" data-id="A4" >A4</text>
<text x="230.0" y="524.1" text-anchor="middle" font-size="18" font-weight="bold" font-family="'Times New Roman', 'BiauKai', 'DFKai-SB', '標楷體', 'KaiTi', serif" data-id="A4" >RESTART SELF</text>
<text x="230.0" y="557.8" text-anchor="middle" font-size="18" font-weight="bold" font-family="'Times New Roman', 'BiauKai', 'DFKai-SB', '標楷體', 'KaiTi', serif" data-id="A4" >THROUGH WEBCTL</text>
<text x="230.0" y="591.6" text-anchor="middle" font-size="18" font-weight="bold" font-family="'Times New Roman', 'BiauKai', 'DFKai-SB', '標楷體', 'KaiTi', serif" data-id="A4" >PIPELINE</text>
<rect x="530.0" y="460.0" width="200.0" height="160.0" stroke="black" fill="white" stroke-width="1.5" data-id="A5" />
<text x="630.0" y="503.8" text-anchor="middle" font-size="19" font-weight="bold" font-family="'Times New Roman', 'BiauKai', 'DFKai-SB', '標楷體', 'KaiTi', serif" data-id="A5" >A5</text>
<text x="630.0" y="540.9" text-anchor="middle" font-size="21" font-weight="bold" font-family="'Times New Roman', 'BiauKai', 'DFKai-SB', '標楷體', 'KaiTi', serif" data-id="A5" >SELF-HEAL</text>
<text x="630.0" y="580.3" text-anchor="middle" font-size="21" font-weight="bold" font-family="'Times New Roman', 'BiauKai', 'DFKai-SB', '標楷體', 'KaiTi', serif" data-id="A5" >ORPHAN DAEMON</text>
<rect x="890.0" y="460.0" width="200.0" height="160.0" stroke="black" fill="white" stroke-width="1.5" data-id="A6" />
<text x="990.0" y="491.2" text-anchor="middle" font-size="16" font-weight="bold" font-family="'Times New Roman', 'BiauKai', 'DFKai-SB', '標楷體', 'KaiTi', serif" data-id="A6" >A6</text>
<text x="990.0" y="524.1" text-anchor="middle" font-size="18" font-weight="bold" font-family="'Times New Roman', 'BiauKai', 'DFKai-SB', '標楷體', 'KaiTi', serif" data-id="A6" >ONBOARD</text>
<text x="990.0" y="557.8" text-anchor="middle" font-size="18" font-weight="bold" font-family="'Times New Roman', 'BiauKai', 'DFKai-SB', '標楷體', 'KaiTi', serif" data-id="A6" >MULTI-USER</text>
<text x="990.0" y="591.6" text-anchor="middle" font-size="18" font-weight="bold" font-family="'Times New Roman', 'BiauKai', 'DFKai-SB', '標楷體', 'KaiTi', serif" data-id="A6" >SESSIONS</text>
<rect x="130.0" y="710.0" width="200.0" height="160.0" stroke="black" fill="white" stroke-width="1.5" data-id="A7" />
<text x="230.0" y="755.2" text-anchor="middle" font-size="18" font-weight="bold" font-family="'Times New Roman', 'BiauKai', 'DFKai-SB', '標楷體', 'KaiTi', serif" data-id="A7" >A7</text>
<text x="230.0" y="790.9" text-anchor="middle" font-size="20" font-weight="bold" font-family="'Times New Roman', 'BiauKai', 'DFKai-SB', '標楷體', 'KaiTi', serif" data-id="A7" >ENFORCE DAEMON</text>
<text x="230.0" y="828.4" text-anchor="middle" font-size="20" font-weight="bold" font-family="'Times New Roman', 'BiauKai', 'DFKai-SB', '標楷體', 'KaiTi', serif" data-id="A7" >SPAWN DENYLIST</text>
<rect x="80.0" y="0.0" width="1100.0" height="910.0" stroke="black" fill="none" stroke-width="2" />
<rect x="466.0" y="-200.0" width="328.0" height="110.0" stroke="black" fill="white" stroke-width="1.5" data-id="A0" />
<text x="630.0" y="-174.0" text-anchor="middle" font-size="14" font-weight="bold" font-family="'Times New Roman', 'BiauKai', 'DFKai-SB', '標楷體', 'KaiTi', serif" data-id="A0" >A0</text>
<text x="630.0" y="-144.0" text-anchor="middle" font-size="16" font-weight="bold" font-family="'Times New Roman', 'BiauKai', 'DFKai-SB', '標楷體', 'KaiTi', serif" data-id="A0" >OPERATE GATEWAY</text>
<text x="630.0" y="-114.0" text-anchor="middle" font-size="16" font-weight="bold" font-family="'Times New Roman', 'BiauKai', 'DFKai-SB', '標楷體', 'KaiTi', serif" data-id="A0" >AND DAEMON PROCESS</text>
<line x1="466.0" y1="-200.0" x2="80.0" y2="0.0" stroke="red" stroke-dasharray="5,5" stroke-width="1.0" opacity="0.6" />
<line x1="794.0" y1="-200.0" x2="1180.0" y2="0.0" stroke="red" stroke-dasharray="5,5" stroke-width="1.0" opacity="0.6" />
<line x1="466.0" y1="-90.0" x2="80.0" y2="910.0" stroke="red" stroke-dasharray="5,5" stroke-width="1.0" opacity="0.6" />
<line x1="794.0" y1="-90.0" x2="1180.0" y2="910.0" stroke="red" stroke-dasharray="5,5" stroke-width="1.0" opacity="0.6" />
<path d="M 730.0 226.7 L 890.0 226.7" stroke="black" stroke-width="1.2" data-arrow-id="m7" data-waypoints="730.0,226.7 890.0,226.7" marker-end="url(#arrow)" fill="none" />
<path d="M 330.0 173.3 L 360.0 173.3 Q 370.0 173.3 370.0 163.3 L 370.0 88.2 Q 370.0 78.2 380.0 78.2 L 840.0 78.2 Q 850.0 78.2 850.0 88.2 L 850.0 163.3 Q 850.0 173.3 860.0 173.3 L 890.0 173.3" stroke="black" stroke-width="1.2" data-arrow-id="m4" data-waypoints="330.0,173.3 370.0,173.3 370.0,78.2 850.0,78.2 850.0,173.3 890.0,173.3" marker-end="url(#arrow)" fill="none" />
<path d="M 330.0 566.7 L 400.0 566.7 Q 410.0 566.7 410.0 556.7 L 410.0 210.0 Q 410.0 200.0 420.0 200.0 L 530.0 200.0" stroke="black" stroke-width="1.2" data-arrow-id="m12" data-waypoints="330.0,566.7 410.0,566.7 410.0,200.0 530.0,200.0" marker-end="url(#arrow)" fill="none" />
<path d="M 330.0 226.7 L 440.0 226.7 Q 450.0 226.7 450.0 236.7 L 450.0 530.0 Q 450.0 540.0 460.0 540.0 L 530.0 540.0" stroke="black" stroke-width="1.2" data-arrow-id="m14" data-waypoints="330.0,226.7 450.0,226.7 450.0,540.0 530.0,540.0" marker-end="url(#arrow)" fill="none" />
<path d="M 1090.0 226.7 L 1120.0 226.7 Q 1130.0 226.7 1130.0 216.7 L 1130.0 50.0 Q 1130.0 40.0 1120.0 40.0 L 500.0 40.0 Q 490.0 40.0 490.0 50.0 L 490.0 150.0 Q 490.0 160.0 500.0 160.0 L 530.0 160.0" stroke="black" stroke-width="1.2" data-arrow-id="m5" data-waypoints="1090.0,226.7 1130.0,226.7 1130.0,40.0 490.0,40.0 490.0,160.0 530.0,160.0" marker-end="url(#arrow)" fill="none" />
<path d="M 730.0 566.7 L 760.0 566.7 Q 770.0 566.7 770.0 556.7 L 770.0 340.0 Q 770.0 330.0 760.0 330.0 L 500.0 330.0 Q 490.0 330.0 490.0 320.0 L 490.0 250.0 Q 490.0 240.0 500.0 240.0 L 530.0 240.0" stroke="black" stroke-width="1.2" data-arrow-id="m16" data-waypoints="730.0,566.7 770.0,566.7 770.0,330.0 490.0,330.0 490.0,240.0 530.0,240.0" marker-end="url(#arrow)" fill="none" />
<path d="M 30.0 200.0 L 130.0 200.0" stroke="black" stroke-width="1.2" data-arrow-id="m1" data-waypoints="30.0,200.0 130.0,200.0" marker-end="url(#arrow)" fill="none" />
<path d="M 230.0 315.8 L 230.0 280.0" stroke="black" stroke-width="1.2" data-arrow-id="m3" data-waypoints="230.0,315.8 230.0,280.0" marker-end="url(#arrow)" fill="none" />
<path d="M 1090.0 173.3 L 1230.0 173.3" stroke="black" stroke-width="1.2" data-arrow-id="m8" data-waypoints="1090.0,173.3 1230.0,173.3" marker-end="url(#arrow)" fill="none" />
<path d="M 990.0 84.2 L 990.0 120.0" stroke="black" stroke-width="1.2" data-arrow-id="m9" data-waypoints="990.0,84.2 990.0,120.0" marker-end="url(#arrow)" fill="none" />
<path d="M 30.0 540.0 L 130.0 540.0" stroke="black" stroke-width="1.2" data-arrow-id="m10" data-waypoints="30.0,540.0 130.0,540.0" marker-end="url(#arrow)" fill="none" />
<path d="M 330.0 513.3 L 360.0 513.3 Q 370.0 513.3 370.0 523.3 L 370.0 650.0 Q 370.0 660.0 380.0 660.0 L 1230.0 660.0" stroke="black" stroke-width="1.2" data-arrow-id="m13" data-waypoints="330.0,513.3 370.0,513.3 370.0,660.0 1230.0,660.0" marker-end="url(#arrow)" fill="none" />
<path d="M 630.0 424.2 L 630.0 460.0" stroke="black" stroke-width="1.2" data-arrow-id="m15" data-waypoints="630.0,424.2 630.0,460.0" marker-end="url(#arrow)" fill="none" />
<path d="M 730.0 513.3 L 800.0 513.3 Q 810.0 513.3 810.0 503.3 L 810.0 420.0 Q 810.0 410.0 820.0 410.0 L 1230.0 410.0" stroke="black" stroke-width="1.2" data-arrow-id="m17" data-waypoints="730.0,513.3 810.0,513.3 810.0,410.0 1230.0,410.0" marker-end="url(#arrow)" fill="none" />
<path d="M 30.0 370.0 L 840.0 370.0 Q 850.0 370.0 850.0 380.0 L 850.0 530.0 Q 850.0 540.0 860.0 540.0 L 890.0 540.0" stroke="black" stroke-width="1.2" data-arrow-id="m18" data-waypoints="30.0,370.0 850.0,370.0 850.0,540.0 890.0,540.0" marker-end="url(#arrow)" fill="none" />
<path d="M 990.0 424.2 L 990.0 460.0" stroke="black" stroke-width="1.2" data-arrow-id="m19" data-waypoints="990.0,424.2 990.0,460.0" marker-end="url(#arrow)" fill="none" />
<path d="M 630.0 84.2 L 630.0 120.0" stroke="black" stroke-width="1.2" data-arrow-id="m20" data-waypoints="630.0,84.2 630.0,120.0" marker-end="url(#arrow)" fill="none" />
<path d="M 1090.0 540.0 L 1230.0 540.0" stroke="black" stroke-width="1.2" data-arrow-id="m21" data-waypoints="1090.0,540.0 1230.0,540.0" marker-end="url(#arrow)" fill="none" />
<path d="M 30.0 790.0 L 130.0 790.0" stroke="black" stroke-width="1.2" data-arrow-id="m22" data-waypoints="30.0,790.0 130.0,790.0" marker-end="url(#arrow)" fill="none" />
<path d="M 230.0 674.2 L 230.0 710.0" stroke="black" stroke-width="1.2" data-arrow-id="m23" data-waypoints="230.0,674.2 230.0,710.0" marker-end="url(#arrow)" fill="none" />
<path d="M 330.0 790.0 L 1230.0 790.0" stroke="black" stroke-width="1.2" data-arrow-id="m24" data-waypoints="330.0,790.0 1230.0,790.0" marker-end="url(#arrow)" fill="none" />
<path d="M 230.0 84.2 L 230.0 120.0" stroke="black" stroke-width="1.2" data-arrow-id="_merged_A1_control" data-waypoints="230.0,84.2 230.0,120.0" marker-end="url(#arrow)" fill="none" />
<path d="M 230.0 424.2 L 230.0 460.0" stroke="black" stroke-width="1.2" data-arrow-id="_merged_A4_control" data-waypoints="230.0,424.2 230.0,460.0" marker-end="url(#arrow)" fill="none" />
<text x="230.0" y="331.8" font-size="14" text-anchor="middle" font-weight="bold" fill="black" font-family="'Times New Roman', 'BiauKai', 'DFKai-SB', '標楷體', 'KaiTi', serif" data-arrow-id="m3">opencode-gateway.service Running As Root</text>
<text x="984.0" y="114.0" font-size="14" text-anchor="end" font-weight="bold" fill="black" font-family="'Times New Roman', 'BiauKai', 'DFKai-SB', '標楷體', 'KaiTi', serif" data-arrow-id="m9">process.kill(pid,0) Liveness</text>
<text x="996.0" y="114.0" font-size="14" text-anchor="start" font-weight="bold" fill="black" font-family="'Times New Roman', 'BiauKai', 'DFKai-SB', '標楷體', 'KaiTi', serif" data-arrow-id="m9">Plus /proc/&lt;pid&gt;/uid Check</text>
<text x="624.0" y="454.0" font-size="14" text-anchor="end" font-weight="bold" fill="black" font-family="'Times New Roman', 'BiauKai', 'DFKai-SB', '標楷體', 'KaiTi', serif" data-arrow-id="m15">SIGTERM 1s waitpid</text>
<text x="636.0" y="454.0" font-size="14" text-anchor="start" font-weight="bold" fill="black" font-family="'Times New Roman', 'BiauKai', 'DFKai-SB', '標楷體', 'KaiTi', serif" data-arrow-id="m15">SIGKILL Escalation</text>
<text x="984.0" y="454.0" font-size="14" text-anchor="end" font-weight="bold" fill="black" font-family="'Times New Roman', 'BiauKai', 'DFKai-SB', '標楷體', 'KaiTi', serif" data-arrow-id="m19">/etc/opencode</text>
<text x="996.0" y="454.0" font-size="14" text-anchor="start" font-weight="bold" fill="black" font-family="'Times New Roman', 'BiauKai', 'DFKai-SB', '標楷體', 'KaiTi', serif" data-arrow-id="m19">google-bindings.json Mapping</text>
<text x="624.0" y="114.0" font-size="14" text-anchor="end" font-weight="bold" fill="black" font-family="'Times New Roman', 'BiauKai', 'DFKai-SB', '標楷體', 'KaiTi', serif" data-arrow-id="m20">Authorized</text>
<text x="636.0" y="114.0" font-size="14" text-anchor="start" font-weight="bold" fill="black" font-family="'Times New Roman', 'BiauKai', 'DFKai-SB', '標楷體', 'KaiTi', serif" data-arrow-id="m20">UID For Spawn</text>
<text x="224.0" y="704.0" font-size="14" text-anchor="end" font-weight="bold" fill="black" font-family="'Times New Roman', 'BiauKai', 'DFKai-SB', '標楷體', 'KaiTi', serif" data-arrow-id="m23">DAEMON_SPAWN_DENYLIST Four</text>
<text x="236.0" y="704.0" font-size="14" text-anchor="start" font-weight="bold" fill="black" font-family="'Times New Roman', 'BiauKai', 'DFKai-SB', '標楷體', 'KaiTi', serif" data-arrow-id="m23">Regex Rules In tool/bash.ts</text>
<text x="224.0" y="114.0" font-size="14" text-anchor="end" font-weight="bold" fill="black" font-family="'Times New Roman', 'BiauKai', 'DFKai-SB', '標楷體', 'KaiTi', serif" data-arrow-id="m2">/etc/opencode/opencode.cfg</text>
<text x="236.0" y="114.0" font-size="14" text-anchor="start" font-weight="bold" fill="black" font-family="'Times New Roman', 'BiauKai', 'DFKai-SB', '標楷體', 'KaiTi', serif" data-arrow-id="m2">EnvironmentFile、Adopted daemon.sock Path</text>
<text x="224.0" y="454.0" font-size="14" text-anchor="end" font-weight="bold" fill="black" font-family="'Times New Roman', 'BiauKai', 'DFKai-SB', '標楷體', 'KaiTi', serif" data-arrow-id="m11">AGENTS.md Plus webctl.sh Smart-Detect</text>
<text x="236.0" y="454.0" font-size="14" text-anchor="start" font-weight="bold" fill="black" font-family="'Times New Roman', 'BiauKai', 'DFKai-SB', '標楷體', 'KaiTi', serif" data-arrow-id="m11">Forces AI To Use restart_self Path</text>
<text x="810.0" y="221.7" font-size="14" font-weight="bold" fill="black" text-anchor="middle" font-family="'Times New Roman', 'BiauKai', 'DFKai-SB', '標楷體', 'KaiTi', serif" data-arrow-id="m7">New Discovery</text>
<text x="810.0" y="238.7" font-size="14" font-weight="bold" fill="black" text-anchor="middle" font-family="'Times New Roman', 'BiauKai', 'DFKai-SB', '標楷體', 'KaiTi', serif" data-arrow-id="m7">File Triple</text>
<text x="630.0" y="70.2" font-size="14" font-weight="bold" fill="black" text-anchor="middle" font-family="'Times New Roman', 'BiauKai', 'DFKai-SB', '標楷體', 'KaiTi', serif" data-arrow-id="m4" >find_or_create_daemon UID Lookup</text>
<text x="380.0" y="411.3" font-size="14" font-weight="bold" fill="black" text-anchor="end" font-family="'Times New Roman', 'BiauKai', 'DFKai-SB', '標楷體', 'KaiTi', serif" data-arrow-id="m12" >Daemon Self-Exit Triggers Respawn</text>
<text x="480.0" y="354.5" font-size="14" font-weight="bold" fill="black" text-anchor="start" font-family="'Times New Roman', 'BiauKai', 'DFKai-SB', '標楷體', 'KaiTi', serif" data-arrow-id="m14" >Adopt Probe Found Stale Or Mismatched Holder</text>
<text x="630.0" y="32.0" font-size="14" font-weight="bold" fill="black" text-anchor="middle" font-family="'Times New Roman', 'BiauKai', 'DFKai-SB', '標楷體', 'KaiTi', serif" data-arrow-id="m5" >Adopt Failed, Spawn Required</text>
<text x="630.0" y="322.0" font-size="14" font-weight="bold" fill="black" text-anchor="middle" font-family="'Times New Roman', 'BiauKai', 'DFKai-SB', '標楷體', 'KaiTi', serif" data-arrow-id="m16" >Cleared Lock And Socket Path Ready</text>
<text x="26.0" y="191.0" font-size="20" text-anchor="end" font-weight="bold" fill="black" font-family="'Times New Roman', 'BiauKai', 'DFKai-SB', '標楷體', 'KaiTi', serif" data-arrow-id="m1">Browser HTTPS</text>
<text x="26.0" y="217.0" font-size="20" text-anchor="end" font-weight="bold" fill="black" font-family="'Times New Roman', 'BiauKai', 'DFKai-SB', '標楷體', 'KaiTi', serif" data-arrow-id="m1">Request Via Nginx</text>
<text x="1234.0" y="151.3" font-size="20" text-anchor="start" font-weight="bold" fill="black" font-family="'Times New Roman', 'BiauKai', 'DFKai-SB', '標楷體', 'KaiTi', serif" data-arrow-id="m8">daemon.lock JSON</text>
<text x="1234.0" y="177.3" font-size="20" text-anchor="start" font-weight="bold" fill="black" font-family="'Times New Roman', 'BiauKai', 'DFKai-SB', '標楷體', 'KaiTi', serif" data-arrow-id="m8">PID In ~/.config/</text>
<text x="1234.0" y="203.3" font-size="20" text-anchor="start" font-weight="bold" fill="black" font-family="'Times New Roman', 'BiauKai', 'DFKai-SB', '標楷體', 'KaiTi', serif" data-arrow-id="m8">opencode/</text>
<text x="26.0" y="544.0" font-size="20" text-anchor="end" font-weight="bold" fill="black" font-family="'Times New Roman', 'BiauKai', 'DFKai-SB', '標楷體', 'KaiTi', serif" data-arrow-id="m10">AI Calls system-manager:restart_self</text>
<text x="1234.0" y="651.0" font-size="20" text-anchor="start" font-weight="bold" fill="black" font-family="'Times New Roman', 'BiauKai', 'DFKai-SB', '標楷體', 'KaiTi', serif" data-arrow-id="m13">errorLogPath Or 200</text>
<text x="1234.0" y="677.0" font-size="20" text-anchor="start" font-weight="bold" fill="black" font-family="'Times New Roman', 'BiauKai', 'DFKai-SB', '標楷體', 'KaiTi', serif" data-arrow-id="m13">Accepted Response</text>
<text x="1234.0" y="388.0" font-size="20" text-anchor="start" font-weight="bold" fill="black" font-family="'Times New Roman', 'BiauKai', 'DFKai-SB', '標楷體', 'KaiTi', serif" data-arrow-id="m17">orphan-detected</text>
<text x="1234.0" y="414.0" font-size="20" text-anchor="start" font-weight="bold" fill="black" font-family="'Times New Roman', 'BiauKai', 'DFKai-SB', '標楷體', 'KaiTi', serif" data-arrow-id="m17">And orphan-cleanup</text>
<text x="1234.0" y="440.0" font-size="20" text-anchor="start" font-weight="bold" fill="black" font-family="'Times New Roman', 'BiauKai', 'DFKai-SB', '標楷體', 'KaiTi', serif" data-arrow-id="m17">Log Lines</text>
<text x="26.0" y="361.0" font-size="20" text-anchor="end" font-weight="bold" fill="black" font-family="'Times New Roman', 'BiauKai', 'DFKai-SB', '標楷體', 'KaiTi', serif" data-arrow-id="m18">First Login For</text>
<text x="26.0" y="387.0" font-size="20" text-anchor="end" font-weight="bold" fill="black" font-family="'Times New Roman', 'BiauKai', 'DFKai-SB', '標楷體', 'KaiTi', serif" data-arrow-id="m18">System Account</text>
<text x="1234.0" y="518.0" font-size="20" text-anchor="start" font-weight="bold" fill="black" font-family="'Times New Roman', 'BiauKai', 'DFKai-SB', '標楷體', 'KaiTi', serif" data-arrow-id="m21">Login Redirect</text>
<text x="1234.0" y="544.0" font-size="20" text-anchor="start" font-weight="bold" fill="black" font-family="'Times New Roman', 'BiauKai', 'DFKai-SB', '標楷體', 'KaiTi', serif" data-arrow-id="m21">Clears localStorage</text>
<text x="1234.0" y="570.0" font-size="20" text-anchor="start" font-weight="bold" fill="black" font-family="'Times New Roman', 'BiauKai', 'DFKai-SB', '標楷體', 'KaiTi', serif" data-arrow-id="m21">On User Switch</text>
<text x="26.0" y="781.0" font-size="20" text-anchor="end" font-weight="bold" fill="black" font-family="'Times New Roman', 'BiauKai', 'DFKai-SB', '標楷體', 'KaiTi', serif" data-arrow-id="m22">AI Bash Tool</text>
<text x="26.0" y="807.0" font-size="20" text-anchor="end" font-weight="bold" fill="black" font-family="'Times New Roman', 'BiauKai', 'DFKai-SB', '標楷體', 'KaiTi', serif" data-arrow-id="m22">Command</text>
<text x="1234.0" y="794.0" font-size="20" text-anchor="start" font-weight="bold" fill="black" font-family="'Times New Roman', 'BiauKai', 'DFKai-SB', '標楷體', 'KaiTi', serif" data-arrow-id="m24">FORBIDDEN_DAEMON_SPAWN Throw Plus denylist-block Log</text>
<path d="M 380.0,407.1 L 380.6,407.5 L 381.2,408.0 L 381.9,408.4 L 382.5,408.8 L 383.1,409.2 L 383.8,409.6 L 384.4,409.9 L 385.0,410.1 L 385.6,410.3 L 386.2,410.5 L 386.9,410.6 L 387.5,410.6 L 388.1,410.6 L 388.8,410.5 L 389.4,410.3 L 390.0,410.1 L 390.6,409.9 L 391.2,409.6 L 391.9,409.2 L 392.5,408.8 L 393.1,408.4 L 393.8,408.0 L 394.4,407.5 L 395.0,407.1 L 395.6,406.6 L 396.2,406.2 L 396.9,405.7 L 397.5,405.3 L 398.1,405.0 L 398.8,404.6 L 399.4,404.3 L 400.0,404.1 L 400.6,403.9 L 401.2,403.7 L 401.9,403.6 L 402.5,403.6 L 403.1,403.6 L 403.8,403.7 L 404.4,403.9 L 405.0,404.1 L 405.6,404.3 L 406.2,404.6 L 406.9,405.0 L 407.5,405.3 L 408.1,405.7 L 408.8,406.2 L 409.4,406.6 L 410.0,407.1" stroke="red" stroke-width="0.8" fill="none" opacity="0.5" />
<path d="M 480.0,350.3 L 479.4,350.8 L 478.8,351.2 L 478.1,351.7 L 477.5,352.1 L 476.9,352.5 L 476.2,352.8 L 475.6,353.1 L 475.0,353.4 L 474.4,353.6 L 473.8,353.7 L 473.1,353.8 L 472.5,353.8 L 471.9,353.8 L 471.2,353.7 L 470.6,353.6 L 470.0,353.4 L 469.4,353.1 L 468.8,352.8 L 468.1,352.5 L 467.5,352.1 L 466.9,351.7 L 466.2,351.2 L 465.6,350.8 L 465.0,350.3 L 464.4,349.9 L 463.8,349.4 L 463.1,349.0 L 462.5,348.6 L 461.9,348.2 L 461.2,347.8 L 460.6,347.5 L 460.0,347.3 L 459.4,347.1 L 458.8,346.9 L 458.1,346.9 L 457.5,346.8 L 456.9,346.9 L 456.2,346.9 L 455.6,347.1 L 455.0,347.3 L 454.4,347.5 L 453.8,347.8 L 453.1,348.2 L 452.5,348.6 L 451.9,349.0 L 451.2,349.4 L 450.6,349.9 L 450.0,350.3" stroke="red" stroke-width="0.8" fill="none" opacity="0.5" />
</svg>