<svg width="1850" height="2260" viewBox="-376.8 -40.0 1850.4 2260.0" xmlns="http://www.w3.org/2000/svg">
<defs><marker id="arrow" viewBox="0 0 10 10" refX="10" refY="5" markerWidth="6" markerHeight="6" orient="auto-start-reverse"><path d="M 0 0 L 10 5 L 0 10 z" fill="black" /></marker></defs>
<rect x="-376.8" y="-40.0" width="1850.4" height="2260.0" fill="white" />
<rect x="360.0" y="80.0" width="80" height="60" stroke="black" stroke-width="1.5" fill="white" />
<rect x="365.0" y="85.0" width="70.0" height="50.0" stroke="black" stroke-width="1" fill="none" />
<text x="400" y="115.0" text-anchor="middle" font-family="'Times New Roman', 'BiauKai', 'DFKai-SB', '標楷體', 'KaiTi', serif" font-weight="bold" font-size="14">0</text>
<line x1="440" y1="110.0" x2="480.0" y2="110.0" stroke="black" />
<rect x="480.0000000000001" y="80.0" width="336.8" height="60.0" stroke="black" stroke-width="1.2" fill="white" />
<text x="648.4000000000001" y="114.0" text-anchor="middle" font-family="'Times New Roman', 'BiauKai', 'DFKai-SB', '標楷體', 'KaiTi', serif" font-size="11">idleAwaitingUpload</text>
<line x1="400" y1="140.0" x2="400" y2="220" stroke="black" />
<line x1="380" y1="180.0" x2="420" y2="180.0" stroke="black" stroke-width="2" />
<text x="424.0" y="184.0" font-style="italic" font-size="11" text-anchor="start" font-family="'Times New Roman', 'BiauKai', 'DFKai-SB', '標楷體', 'KaiTi', serif">uploadRequestReceived</text>
<rect x="360.0" y="220.0" width="80" height="60" stroke="black" stroke-width="1.5" fill="white" />
<text x="400" y="255.0" text-anchor="middle" font-family="'Times New Roman', 'BiauKai', 'DFKai-SB', '標楷體', 'KaiTi', serif" font-weight="bold" font-size="14">1</text>
<line x1="440" y1="250.0" x2="480.0" y2="250.0" stroke="black" />
<rect x="480.0000000000001" y="220.0" width="336.8" height="60.0" stroke="black" stroke-width="1.2" fill="white" />
<text x="648.4000000000001" y="254.0" text-anchor="middle" font-family="'Times New Roman', 'BiauKai', 'DFKai-SB', '標楷體', 'KaiTi', serif" font-size="11">parseMultipartAndDetectMime</text>
<line x1="400" y1="280" x2="400" y2="320" stroke="black" />
<line x1="-216.79999999999995" y1="320" x2="728.4000000000001" y2="320" stroke="black" stroke-width="1.5" />
<line x1="-176.79999999999995" y1="320" x2="-176.79999999999995" y2="360" stroke="black" />
<line x1="-196.79999999999995" y1="360" x2="-156.79999999999995" y2="360" stroke="black" stroke-width="2" />
<text x="-200.79999999999995" y="364" font-style="italic" font-size="11" text-anchor="end" font-family="'Times New Roman', 'BiauKai', 'DFKai-SB', '標楷體', 'KaiTi', serif">mime.startsWith(&#x27;image/&#x27;)</text>
<line x1="-176.79999999999995" y1="360" x2="-176.79999999999995" y2="400" stroke="black" marker-end="url(#arrow)" />
<line x1="688.4000000000001" y1="320" x2="688.4000000000001" y2="360" stroke="black" />
<line x1="668.4000000000001" y1="360" x2="708.4000000000001" y2="360" stroke="black" stroke-width="2" />
<text x="712.4000000000001" y="364" font-style="italic" font-size="11" text-anchor="start" font-family="'Times New Roman', 'BiauKai', 'DFKai-SB', '標楷體', 'KaiTi', serif">!mime.startsWith(&#x27;image/&#x27;)</text>
<line x1="688.4000000000001" y1="360" x2="688.4000000000001" y2="400" stroke="black" marker-end="url(#arrow)" />
<rect x="-216.79999999999995" y="400.0" width="80" height="60" stroke="black" stroke-width="1.5" fill="white" />
<text x="-176.79999999999995" y="435.0" text-anchor="middle" font-family="'Times New Roman', 'BiauKai', 'DFKai-SB', '標楷體', 'KaiTi', serif" font-weight="bold" font-size="14">2</text>
<line x1="-136.79999999999995" y1="430.0" x2="-96.79999999999995" y2="430.0" stroke="black" />
<rect x="-96.79999999999997" y="400.0" width="336.8" height="60.0" stroke="black" stroke-width="1.2" fill="white" />
<text x="71.60000000000004" y="434.0" text-anchor="middle" font-family="'Times New Roman', 'BiauKai', 'DFKai-SB', '標楷體', 'KaiTi', serif" font-size="11">writeImageToSessionXdg</text>
<line x1="-176.79999999999995" y1="460.0" x2="-176.79999999999995" y2="540" stroke="black" />
<line x1="-196.79999999999995" y1="500.0" x2="-156.79999999999995" y2="500.0" stroke="black" stroke-width="2" />
<text x="-152.79999999999995" y="504.0" font-style="italic" font-size="11" text-anchor="start" font-family="'Times New Roman', 'BiauKai', 'DFKai-SB', '標楷體', 'KaiTi', serif">sessionPathWriteOk</text>
<rect x="648.4000000000001" y="400.0" width="80" height="60" stroke="black" stroke-width="1.5" fill="white" />
<text x="688.4000000000001" y="435.0" text-anchor="middle" font-family="'Times New Roman', 'BiauKai', 'DFKai-SB', '標楷體', 'KaiTi', serif" font-weight="bold" font-size="14">3</text>
<line x1="728.4000000000001" y1="430.0" x2="768.4000000000001" y2="430.0" stroke="black" />
<rect x="768.4000000000001" y="400.0" width="336.8" height="60.0" stroke="black" stroke-width="1.2" fill="white" />
<text x="936.8000000000001" y="434.0" text-anchor="middle" font-family="'Times New Roman', 'BiauKai', 'DFKai-SB', '標楷體', 'KaiTi', serif" font-size="11">sanitizeAndLandInIncoming</text>
<line x1="688.4000000000001" y1="460" x2="688.4000000000001" y2="500" stroke="black" />
<line x1="360.0" y1="500" x2="1016.8000000000001" y2="500" stroke="black" stroke-width="1.5" />
<line x1="400.0" y1="500" x2="400.0" y2="540" stroke="black" />
<line x1="380.0" y1="540" x2="420.0" y2="540" stroke="black" stroke-width="2" />
<text x="376.0" y="544" font-style="italic" font-size="11" text-anchor="end" font-family="'Times New Roman', 'BiauKai', 'DFKai-SB', '標楷體', 'KaiTi', serif">isOfficeMime(classifyOffice)</text>
<line x1="400.0" y1="540" x2="400.0" y2="580" stroke="black" marker-end="url(#arrow)" />
<line x1="976.8000000000001" y1="500" x2="976.8000000000001" y2="540" stroke="black" />
<line x1="956.8000000000001" y1="540" x2="996.8000000000001" y2="540" stroke="black" stroke-width="2" />
<text x="1000.8000000000002" y="544" font-style="italic" font-size="11" text-anchor="start" font-family="'Times New Roman', 'BiauKai', 'DFKai-SB', '標楷體', 'KaiTi', serif">!isOfficeMime</text>
<line x1="976.8000000000001" y1="540" x2="976.8000000000001" y2="580" stroke="black" marker-end="url(#arrow)" />
<rect x="360.0" y="580.0" width="80" height="60" stroke="black" stroke-width="1.5" fill="white" />
<text x="400.0" y="615.0" text-anchor="middle" font-family="'Times New Roman', 'BiauKai', 'DFKai-SB', '標楷體', 'KaiTi', serif" font-weight="bold" font-size="14">4</text>
<line x1="440.0" y1="610.0" x2="480.0" y2="610.0" stroke="black" />
<rect x="480.0000000000001" y="580.0" width="336.8" height="60.0" stroke="black" stroke-width="1.2" fill="white" />
<line x1="492.0" y1="580.0" x2="492.0" y2="640.0" stroke="black" />
<line x1="804.8000000000001" y1="580.0" x2="804.8000000000001" y2="640.0" stroke="black" />
<text x="648.4000000000001" y="614.0" text-anchor="middle" font-family="'Times New Roman', 'BiauKai', 'DFKai-SB', '標楷體', 'KaiTi', serif" font-size="11">runDocxAutoDecompose</text>
<line x1="400.0" y1="640.0" x2="400.0" y2="720" stroke="black" />
<line x1="380.0" y1="680.0" x2="420.0" y2="680.0" stroke="black" stroke-width="2" />
<text x="424.0" y="684.0" font-style="italic" font-size="11" text-anchor="start" font-family="'Times New Roman', 'BiauKai', 'DFKai-SB', '標楷體', 'KaiTi', serif">routingHintRendered</text>
<rect x="936.8000000000001" y="580.0" width="80" height="60" stroke="black" stroke-width="1.5" fill="white" />
<text x="976.8000000000001" y="615.0" text-anchor="middle" font-family="'Times New Roman', 'BiauKai', 'DFKai-SB', '標楷體', 'KaiTi', serif" font-weight="bold" font-size="14">5</text>
<line x1="1016.8000000000001" y1="610.0" x2="1056.8000000000002" y2="610.0" stroke="black" />
<rect x="1056.8" y="580.0" width="336.8" height="60.0" stroke="black" stroke-width="1.2" fill="white" />
<text x="1225.2" y="614.0" text-anchor="middle" font-family="'Times New Roman', 'BiauKai', 'DFKai-SB', '標楷體', 'KaiTi', serif" font-size="11">writeIncomingFileAndAppendHistory</text>
<line x1="976.8000000000001" y1="640.0" x2="976.8000000000001" y2="720" stroke="black" />
<line x1="956.8000000000001" y1="680.0" x2="996.8000000000001" y2="680.0" stroke="black" stroke-width="2" />
<text x="1000.8000000000002" y="684.0" font-style="italic" font-size="11" text-anchor="start" font-family="'Times New Roman', 'BiauKai', 'DFKai-SB', '標楷體', 'KaiTi', serif">jsonlAppendedSourceUpload</text>
<line x1="360.0" y1="720" x2="1016.8000000000001" y2="720" stroke="black" stroke-width="1.5" />
<line x1="400.0" y1="720" x2="400.0" y2="720" stroke="black" />
<line x1="976.8000000000001" y1="720" x2="976.8000000000001" y2="720" stroke="black" />
<line x1="688.4000000000001" y1="720" x2="688.4000000000001" y2="760" stroke="black" marker-end="url(#arrow)" />
<line x1="-216.79999999999995" y1="760" x2="728.4000000000001" y2="760" stroke="black" stroke-width="1.5" />
<line x1="-176.79999999999995" y1="540" x2="-176.79999999999995" y2="760" stroke="black" />
<line x1="688.4000000000001" y1="760" x2="688.4000000000001" y2="760" stroke="black" />
<line x1="400" y1="760" x2="400" y2="800" stroke="black" marker-end="url(#arrow)" />
<rect x="360.0" y="800.0" width="80" height="60" stroke="black" stroke-width="1.5" fill="white" />
<text x="400" y="835.0" text-anchor="middle" font-family="'Times New Roman', 'BiauKai', 'DFKai-SB', '標楷體', 'KaiTi', serif" font-weight="bold" font-size="14">6</text>
<line x1="440" y1="830.0" x2="480.0" y2="830.0" stroke="black" />
<rect x="480.0000000000001" y="800.0" width="336.8" height="60.0" stroke="black" stroke-width="1.2" fill="white" />
<text x="648.4000000000001" y="834.0" text-anchor="middle" font-family="'Times New Roman', 'BiauKai', 'DFKai-SB', '標楷體', 'KaiTi', serif" font-size="11">emitAttachmentRefPart</text>
<line x1="400" y1="860.0" x2="400" y2="940" stroke="black" />
<line x1="380" y1="900.0" x2="420" y2="900.0" stroke="black" stroke-width="2" />
<text x="424.0" y="904.0" font-style="italic" font-size="11" text-anchor="start" font-family="'Times New Roman', 'BiauKai', 'DFKai-SB', '標楷體', 'KaiTi', serif">attachmentRefPersisted</text>
<rect x="360.0" y="940.0" width="80" height="60" stroke="black" stroke-width="1.5" fill="white" />
<text x="400" y="975.0" text-anchor="middle" font-family="'Times New Roman', 'BiauKai', 'DFKai-SB', '標楷體', 'KaiTi', serif" font-weight="bold" font-size="14">7</text>
<line x1="440" y1="970.0" x2="480.0" y2="970.0" stroke="black" />
<rect x="480.0000000000001" y="940.0" width="336.8" height="60.0" stroke="black" stroke-width="1.2" fill="white" />
<text x="648.4000000000001" y="974.0" text-anchor="middle" font-family="'Times New Roman', 'BiauKai', 'DFKai-SB', '標楷體', 'KaiTi', serif" font-size="11">buildAttachedImagesInventoryBlock</text>
<line x1="400" y1="1000.0" x2="400" y2="1080" stroke="black" />
<line x1="380" y1="1040.0" x2="420" y2="1040.0" stroke="black" stroke-width="2" />
<text x="424.0" y="1044.0" font-style="italic" font-size="11" text-anchor="start" font-family="'Times New Roman', 'BiauKai', 'DFKai-SB', '標楷體', 'KaiTi', serif">sessionHasImageAttachment</text>
<rect x="360.0" y="1080.0" width="80" height="60" stroke="black" stroke-width="1.5" fill="white" />
<text x="400" y="1115.0" text-anchor="middle" font-family="'Times New Roman', 'BiauKai', 'DFKai-SB', '標楷體', 'KaiTi', serif" font-weight="bold" font-size="14">8</text>
<line x1="440" y1="1110.0" x2="480.0" y2="1110.0" stroke="black" />
<rect x="480.0000000000001" y="1080.0" width="336.8" height="60.0" stroke="black" stroke-width="1.2" fill="white" />
<text x="648.4000000000001" y="1114.0" text-anchor="middle" font-family="'Times New Roman', 'BiauKai', 'DFKai-SB', '標楷體', 'KaiTi', serif" font-size="11">assemblePrefaceTrailingExtras</text>
<line x1="400" y1="1140.0" x2="400" y2="1220" stroke="black" />
<line x1="380" y1="1180.0" x2="420" y2="1180.0" stroke="black" stroke-width="2" />
<text x="424.0" y="1184.0" font-style="italic" font-size="11" text-anchor="start" font-family="'Times New Roman', 'BiauKai', 'DFKai-SB', '標楷體', 'KaiTi', serif">prefaceReadyForLlm</text>
<rect x="360.0" y="1220.0" width="80" height="60" stroke="black" stroke-width="1.5" fill="white" />
<text x="400" y="1255.0" text-anchor="middle" font-family="'Times New Roman', 'BiauKai', 'DFKai-SB', '標楷體', 'KaiTi', serif" font-weight="bold" font-size="14">9</text>
<line x1="440" y1="1250.0" x2="480.0" y2="1250.0" stroke="black" />
<rect x="480.0000000000001" y="1220.0" width="336.8" height="60.0" stroke="black" stroke-width="1.2" fill="white" />
<text x="648.4000000000001" y="1254.0" text-anchor="middle" font-family="'Times New Roman', 'BiauKai', 'DFKai-SB', '標楷體', 'KaiTi', serif" font-size="11">awaitAiDecision</text>
<line x1="400" y1="1280" x2="400" y2="1320" stroke="black" />
<line x1="279.99999999999994" y1="1320" x2="728.4000000000001" y2="1320" stroke="black" stroke-width="1.5" />
<line x1="319.99999999999994" y1="1320" x2="319.99999999999994" y2="1360" stroke="black" />
<line x1="299.99999999999994" y1="1360" x2="340.0" y2="1360" stroke="black" stroke-width="2" />
<text x="296.0" y="1364" font-style="italic" font-size="11" text-anchor="end" font-family="'Times New Roman', 'BiauKai', 'DFKai-SB', '標楷體', 'KaiTi', serif">aiCallsRereadAttachment</text>
<line x1="319.99999999999994" y1="1360" x2="319.99999999999994" y2="1400" stroke="black" marker-end="url(#arrow)" />
<line x1="688.4000000000001" y1="1320" x2="688.4000000000001" y2="1360" stroke="black" />
<line x1="668.4000000000001" y1="1360" x2="708.4000000000001" y2="1360" stroke="black" stroke-width="2" />
<text x="712.4000000000001" y="1364" font-style="italic" font-size="11" text-anchor="start" font-family="'Times New Roman', 'BiauKai', 'DFKai-SB', '標楷體', 'KaiTi', serif">aiSkipsReread</text>
<line x1="688.4000000000001" y1="1360" x2="688.4000000000001" y2="1400" stroke="black" />
<rect x="279.99999999999994" y="1400.0" width="80" height="60" stroke="black" stroke-width="1.5" fill="white" />
<text x="319.99999999999994" y="1435.0" text-anchor="middle" font-family="'Times New Roman', 'BiauKai', 'DFKai-SB', '標楷體', 'KaiTi', serif" font-weight="bold" font-size="14">10</text>
<line x1="360.0" y1="1430.0" x2="400.0" y2="1430.0" stroke="black" />
<rect x="400.0000000000001" y="1400.0" width="336.8" height="60.0" stroke="black" stroke-width="1.2" fill="white" />
<text x="568.4000000000001" y="1434.0" text-anchor="middle" font-family="'Times New Roman', 'BiauKai', 'DFKai-SB', '標楷體', 'KaiTi', serif" font-size="11">voucherFilenameViaRereadTool</text>
<line x1="319.99999999999994" y1="1460.0" x2="319.99999999999994" y2="1540" stroke="black" />
<line x1="299.99999999999994" y1="1500.0" x2="340.0" y2="1500.0" stroke="black" stroke-width="2" />
<text x="344.0" y="1504.0" font-style="italic" font-size="11" text-anchor="start" font-family="'Times New Roman', 'BiauKai', 'DFKai-SB', '標楷體', 'KaiTi', serif">filenameMatchesAttachmentRef</text>
<rect x="279.99999999999994" y="1540.0" width="80" height="60" stroke="black" stroke-width="1.5" fill="white" />
<text x="319.99999999999994" y="1575.0" text-anchor="middle" font-family="'Times New Roman', 'BiauKai', 'DFKai-SB', '標楷體', 'KaiTi', serif" font-weight="bold" font-size="14">11</text>
<line x1="360.0" y1="1570.0" x2="400.0" y2="1570.0" stroke="black" />
<rect x="400.0000000000001" y="1540.0" width="336.8" height="60.0" stroke="black" stroke-width="1.2" fill="white" />
<text x="568.4000000000001" y="1574.0" text-anchor="middle" font-family="'Times New Roman', 'BiauKai', 'DFKai-SB', '標楷體', 'KaiTi', serif" font-size="11">appendActiveImageRefsWithFifoCap</text>
<line x1="319.99999999999994" y1="1600.0" x2="319.99999999999994" y2="1680" stroke="black" />
<line x1="299.99999999999994" y1="1640.0" x2="340.0" y2="1640.0" stroke="black" stroke-width="2" />
<text x="344.0" y="1644.0" font-style="italic" font-size="11" text-anchor="start" font-family="'Times New Roman', 'BiauKai', 'DFKai-SB', '標楷體', 'KaiTi', serif">setActiveImageRefsCommitted</text>
<rect x="279.99999999999994" y="1680.0" width="80" height="60" stroke="black" stroke-width="1.5" fill="white" />
<text x="319.99999999999994" y="1715.0" text-anchor="middle" font-family="'Times New Roman', 'BiauKai', 'DFKai-SB', '標楷體', 'KaiTi', serif" font-weight="bold" font-size="14">12</text>
<line x1="360.0" y1="1710.0" x2="400.0" y2="1710.0" stroke="black" />
<rect x="400.0000000000001" y="1680.0" width="336.8" height="60.0" stroke="black" stroke-width="1.2" fill="white" />
<text x="568.4000000000001" y="1714.0" text-anchor="middle" font-family="'Times New Roman', 'BiauKai', 'DFKai-SB', '標楷體', 'KaiTi', serif" font-size="11">loadBytesAndInlineInBp4Trailing</text>
<line x1="319.99999999999994" y1="1740.0" x2="319.99999999999994" y2="1820" stroke="black" />
<line x1="299.99999999999994" y1="1780.0" x2="340.0" y2="1780.0" stroke="black" stroke-width="2" />
<text x="344.0" y="1784.0" font-style="italic" font-size="11" text-anchor="start" font-family="'Times New Roman', 'BiauKai', 'DFKai-SB', '標楷體', 'KaiTi', serif">imageBytesInlinedInTrailingExtras</text>
<line x1="279.99999999999994" y1="1820" x2="728.4000000000001" y2="1820" stroke="black" stroke-width="1.5" />
<line x1="319.99999999999994" y1="1820" x2="319.99999999999994" y2="1820" stroke="black" />
<line x1="688.4000000000001" y1="1400" x2="688.4000000000001" y2="1820" stroke="black" />
<line x1="400" y1="1820" x2="400" y2="1860" stroke="black" marker-end="url(#arrow)" />
<rect x="360.0" y="1860.0" width="80" height="60" stroke="black" stroke-width="1.5" fill="white" />
<text x="400" y="1895.0" text-anchor="middle" font-family="'Times New Roman', 'BiauKai', 'DFKai-SB', '標楷體', 'KaiTi', serif" font-weight="bold" font-size="14">13</text>
<line x1="440" y1="1890.0" x2="480.0" y2="1890.0" stroke="black" />
<rect x="480.0000000000001" y="1860.0" width="336.8" height="60.0" stroke="black" stroke-width="1.2" fill="white" />
<text x="648.4000000000001" y="1894.0" text-anchor="middle" font-family="'Times New Roman', 'BiauKai', 'DFKai-SB', '標楷體', 'KaiTi', serif" font-size="11">streamAssistantTurn</text>
<line x1="400" y1="1920.0" x2="400" y2="2000" stroke="black" />
<line x1="380" y1="1960.0" x2="420" y2="1960.0" stroke="black" stroke-width="2" />
<text x="424.0" y="1964.0" font-style="italic" font-size="11" text-anchor="start" font-family="'Times New Roman', 'BiauKai', 'DFKai-SB', '標楷體', 'KaiTi', serif">stepFinishEmitted</text>
<rect x="360.0" y="2000.0" width="80" height="60" stroke="black" stroke-width="1.5" fill="white" />
<text x="400" y="2035.0" text-anchor="middle" font-family="'Times New Roman', 'BiauKai', 'DFKai-SB', '標楷體', 'KaiTi', serif" font-weight="bold" font-size="14">14</text>
<line x1="440" y1="2030.0" x2="480.0" y2="2030.0" stroke="black" />
<rect x="480.0000000000001" y="2000.0" width="336.8" height="60.0" stroke="black" stroke-width="1.2" fill="white" />
<text x="648.4000000000001" y="2034.0" text-anchor="middle" font-family="'Times New Roman', 'BiauKai', 'DFKai-SB', '標楷體', 'KaiTi', serif" font-size="11">drainActiveImageRefs</text>
<line x1="400" y1="2060.0" x2="400" y2="2140" stroke="black" />
<line x1="380" y1="2100.0" x2="420" y2="2100.0" stroke="black" stroke-width="2" />
<text x="424.0" y="2104.0" font-style="italic" font-size="11" text-anchor="start" font-family="'Times New Roman', 'BiauKai', 'DFKai-SB', '標楷體', 'KaiTi', serif">activeImageRefsCleared</text>
<line x1="400" y1="2140" x2="400" y2="2140.0" stroke="black" />
<line x1="400" y1="2140.0" x2="-296.79999999999995" y2="2140.0" stroke="black" />
<line x1="-296.79999999999995" y1="2140.0" x2="-296.79999999999995" y2="40.0" stroke="black" />
<line x1="-296.79999999999995" y1="40.0" x2="400" y2="40.0" stroke="black" />
<line x1="400" y1="40.0" x2="400" y2="80.0" stroke="black" marker-end="url(#arrow)" />
<line x1="688.4000000000001" y1="1400" x2="688.4000000000001" y2="1400" stroke="black" />
<line x1="688.4000000000001" y1="1400" x2="688.4000000000001" y2="1400" stroke="black" />
<line x1="688.4000000000001" y1="1400" x2="688.4000000000001" y2="1840.0" stroke="black" />
<line x1="688.4000000000001" y1="1840.0" x2="400" y2="1840.0" stroke="black" />
<line x1="400" y1="1840.0" x2="400" y2="1860.0" stroke="black" marker-end="url(#arrow)" />
</svg>