<svg width="888" height="1120" viewBox="50.8 -40.0 887.6 1120.0" xmlns="http://www.w3.org/2000/svg">
<defs><marker id="arrow" viewBox="0 0 10 10" refX="10" refY="5" markerWidth="6" markerHeight="6" orient="auto-start-reverse"><path d="M 0 0 L 10 5 L 0 10 z" fill="black" /></marker></defs>
<rect x="50.8" y="-40.0" width="887.6" height="1120.0" fill="white" />
<rect x="360.0" y="80.0" width="80" height="60" stroke="black" stroke-width="1.5" fill="white" />
<rect x="365.0" y="85.0" width="70.0" height="50.0" stroke="black" stroke-width="1" fill="none" />
<text x="400" y="115.0" text-anchor="middle" font-family="'Times New Roman', 'BiauKai', 'DFKai-SB', '標楷體', 'KaiTi', serif" font-weight="bold" font-size="14">40</text>
<line x1="440" y1="110.0" x2="480.0" y2="110.0" stroke="black" />
<rect x="480.00000000000006" y="80.0" width="298.4" height="60.0" stroke="black" stroke-width="1.2" fill="white" />
<text x="629.2" y="114.0" text-anchor="middle" font-family="'Times New Roman', 'BiauKai', 'DFKai-SB', '標楷體', 'KaiTi', serif" font-size="11">lookupManifestCache</text>
<line x1="400" y1="140" x2="400" y2="180" stroke="black" />
<line x1="90.79999999999998" y1="180" x2="520.0" y2="180" stroke="black" stroke-width="1.5" />
<line x1="130.79999999999998" y1="180" x2="130.79999999999998" y2="220" stroke="black" />
<line x1="110.79999999999998" y1="220" x2="150.79999999999998" y2="220" stroke="black" stroke-width="2" />
<text x="106.79999999999998" y="224" font-style="italic" font-size="11" text-anchor="end" font-family="'Times New Roman', 'BiauKai', 'DFKai-SB', '標楷體', 'KaiTi', serif">cacheMiss</text>
<line x1="130.79999999999998" y1="220" x2="130.79999999999998" y2="260" stroke="black" />
<line x1="480.0" y1="180" x2="480.0" y2="220" stroke="black" />
<line x1="460.0" y1="220" x2="500.0" y2="220" stroke="black" stroke-width="2" />
<text x="504.0" y="224" font-style="italic" font-size="11" text-anchor="start" font-family="'Times New Roman', 'BiauKai', 'DFKai-SB', '標楷體', 'KaiTi', serif">cacheHit</text>
<line x1="480.0" y1="220" x2="480.0" y2="260" stroke="black" marker-end="url(#arrow)" />
<rect x="440.0" y="260.0" width="80" height="60" stroke="black" stroke-width="1.5" fill="white" />
<text x="480.0" y="295.0" text-anchor="middle" font-family="'Times New Roman', 'BiauKai', 'DFKai-SB', '標楷體', 'KaiTi', serif" font-weight="bold" font-size="14">44</text>
<line x1="520.0" y1="290.0" x2="560.0" y2="290.0" stroke="black" />
<rect x="560.0" y="260.0" width="298.4" height="60.0" stroke="black" stroke-width="1.2" fill="white" />
<text x="709.2" y="294.0" text-anchor="middle" font-family="'Times New Roman', 'BiauKai', 'DFKai-SB', '標楷體', 'KaiTi', serif" font-size="11">renderOfficeRoutingHint</text>
<line x1="480.0" y1="320.0" x2="480.0" y2="400" stroke="black" />
<line x1="460.0" y1="360.0" x2="500.0" y2="360.0" stroke="black" stroke-width="2" />
<text x="504.0" y="364.0" font-style="italic" font-size="11" text-anchor="start" font-family="'Times New Roman', 'BiauKai', 'DFKai-SB', '標楷體', 'KaiTi', serif">hintBuilt</text>
<rect x="440.0" y="400.0" width="80" height="60" stroke="black" stroke-width="1.5" fill="white" />
<text x="480.0" y="435.0" text-anchor="middle" font-family="'Times New Roman', 'BiauKai', 'DFKai-SB', '標楷體', 'KaiTi', serif" font-weight="bold" font-size="14">45</text>
<line x1="520.0" y1="430.0" x2="560.0" y2="430.0" stroke="black" />
<rect x="560.0" y="400.0" width="298.4" height="60.0" stroke="black" stroke-width="1.2" fill="white" />
<text x="709.2" y="434.0" text-anchor="middle" font-family="'Times New Roman', 'BiauKai', 'DFKai-SB', '標楷體', 'KaiTi', serif" font-size="11">emitDecomposedRefAndHint</text>
<line x1="480.0" y1="460.0" x2="480.0" y2="540" stroke="black" />
<line x1="460.0" y1="500.0" x2="500.0" y2="500.0" stroke="black" stroke-width="2" />
<text x="504.0" y="504.0" font-style="italic" font-size="11" text-anchor="start" font-family="'Times New Roman', 'BiauKai', 'DFKai-SB', '標楷體', 'KaiTi', serif">1</text>
<line x1="90.79999999999998" y1="540" x2="520.0" y2="540" stroke="black" stroke-width="1.5" />
<line x1="130.79999999999998" y1="260" x2="130.79999999999998" y2="540" stroke="black" />
<line x1="480.0" y1="540" x2="480.0" y2="540" stroke="black" />
<line x1="400" y1="540" x2="400" y2="580" stroke="black" marker-end="url(#arrow)" />
<rect x="360.0" y="580.0" width="80" height="60" stroke="black" stroke-width="1.5" fill="white" />
<text x="400" y="615.0" text-anchor="middle" font-family="'Times New Roman', 'BiauKai', 'DFKai-SB', '標楷體', 'KaiTi', serif" font-weight="bold" font-size="14">41</text>
<line x1="440" y1="610.0" x2="480.0" y2="610.0" stroke="black" />
<rect x="480.00000000000006" y="580.0" width="298.4" height="60.0" stroke="black" stroke-width="1.2" fill="white" />
<text x="629.2" y="614.0" text-anchor="middle" font-family="'Times New Roman', 'BiauKai', 'DFKai-SB', '標楷體', 'KaiTi', serif" font-size="11">callExtractAllFastPhase</text>
<line x1="400" y1="640.0" x2="400" y2="720" stroke="black" />
<line x1="380" y1="680.0" x2="420" y2="680.0" stroke="black" stroke-width="2" />
<text x="424.0" y="684.0" font-style="italic" font-size="11" text-anchor="start" font-family="'Times New Roman', 'BiauKai', 'DFKai-SB', '標楷體', 'KaiTi', serif">fastPhaseDoneOrTimeout30s</text>
<rect x="360.0" y="720.0" width="80" height="60" stroke="black" stroke-width="1.5" fill="white" />
<text x="400" y="755.0" text-anchor="middle" font-family="'Times New Roman', 'BiauKai', 'DFKai-SB', '標楷體', 'KaiTi', serif" font-weight="bold" font-size="14">42</text>
<line x1="440" y1="750.0" x2="480.0" y2="750.0" stroke="black" />
<rect x="480.00000000000006" y="720.0" width="298.4" height="60.0" stroke="black" stroke-width="1.2" fill="white" />
<text x="629.2" y="754.0" text-anchor="middle" font-family="'Times New Roman', 'BiauKai', 'DFKai-SB', '標楷體', 'KaiTi', serif" font-size="11">writeOutlineAndPendingMarkers</text>
<line x1="400" y1="780.0" x2="400" y2="860" stroke="black" />
<line x1="380" y1="820.0" x2="420" y2="820.0" stroke="black" stroke-width="2" />
<text x="424.0" y="824.0" font-style="italic" font-size="11" text-anchor="start" font-family="'Times New Roman', 'BiauKai', 'DFKai-SB', '標楷體', 'KaiTi', serif">bundleStaged</text>
<rect x="360.0" y="860.0" width="80" height="60" stroke="black" stroke-width="1.5" fill="white" />
<text x="400" y="895.0" text-anchor="middle" font-family="'Times New Roman', 'BiauKai', 'DFKai-SB', '標楷體', 'KaiTi', serif" font-weight="bold" font-size="14">43</text>
<line x1="440" y1="890.0" x2="480.0" y2="890.0" stroke="black" />
<rect x="480.00000000000006" y="860.0" width="298.4" height="60.0" stroke="black" stroke-width="1.2" fill="white" />
<text x="629.2" y="894.0" text-anchor="middle" font-family="'Times New Roman', 'BiauKai', 'DFKai-SB', '標楷體', 'KaiTi', serif" font-size="11">pollExtractAllCollectLoop</text>
<line x1="400" y1="920.0" x2="400" y2="1000" stroke="black" />
<line x1="380" y1="960.0" x2="420" y2="960.0" stroke="black" stroke-width="2" />
<text x="424.0" y="964.0" font-style="italic" font-size="11" text-anchor="start" font-family="'Times New Roman', 'BiauKai', 'DFKai-SB', '標楷體', 'KaiTi', serif">pollComplete || elapsed&gt;=180s</text>
<line x1="400" y1="1000" x2="400" y2="1000.0" stroke="black" />
<line x1="400" y1="1000.0" x2="280" y2="1000.0" stroke="black" />
<line x1="280" y1="1000.0" x2="280" y2="246.0" stroke="black" />
<line x1="280" y1="246.0" x2="480.0" y2="246.0" stroke="black" marker-end="url(#arrow)" />
<line x1="480.0" y1="540" x2="480.0" y2="560.0" stroke="black" />
<line x1="480.0" y1="560.0" x2="200" y2="560.0" stroke="black" />
<line x1="200" y1="560.0" x2="200" y2="40.0" stroke="black" />
<line x1="200" y1="40.0" x2="400" y2="40.0" stroke="black" />
<line x1="400" y1="40.0" x2="400" y2="80.0" stroke="black" marker-end="url(#arrow)" />
<line x1="130.79999999999998" y1="260" x2="130.79999999999998" y2="260" stroke="black" />
<line x1="130.79999999999998" y1="260" x2="130.79999999999998" y2="260" stroke="black" />
<line x1="130.79999999999998" y1="260" x2="130.79999999999998" y2="560.0" stroke="black" />
<line x1="130.79999999999998" y1="560.0" x2="400" y2="560.0" stroke="black" />
<line x1="400" y1="560.0" x2="400" y2="580.0" stroke="black" marker-end="url(#arrow)" />
</svg>