<svg width="920" height="1120" viewBox="0.0 -40.0 920.0 1120.0" xmlns="http://www.w3.org/2000/svg">
<defs><marker id="arrow" viewBox="0 0 10 10" refX="10" refY="5" markerWidth="6" markerHeight="6" orient="auto-start-reverse"><path d="M 0 0 L 10 5 L 0 10 z" fill="black" /></marker></defs>
<rect x="0.0" y="-40.0" width="920.0" height="1120.0" fill="white" />
<rect x="360.0" y="80.0" width="80" height="60" stroke="black" stroke-width="1.5" fill="white" />
<rect x="365.0" y="85.0" width="70.0" height="50.0" stroke="black" stroke-width="1" fill="none" />
<text x="400" y="115.0" text-anchor="middle" font-family="Arial" font-weight="bold" font-size="14">0</text>
<line x1="440" y1="110.0" x2="480.0" y2="110.0" stroke="black" />
<rect x="480.0" y="76.0" width="160" height="68.0" stroke="black" stroke-width="1.2" fill="white" />
<text x="560.0" y="102.0" text-anchor="middle" font-family="Arial" font-size="11">Await Session</text>
<text x="560.0" y="126.00000000000001" text-anchor="middle" font-family="Arial" font-size="11">Enter</text>
<line x1="400" y1="140.0" x2="400" y2="220" stroke="black" />
<line x1="380" y1="180.0" x2="420" y2="180.0" stroke="black" stroke-width="2" />
<text x="424.0" y="184.0" font-style="italic" font-size="11" text-anchor="start">session_entered</text>
<rect x="360.0" y="220.0" width="80" height="60" stroke="black" stroke-width="1.5" fill="white" />
<text x="400" y="255.0" text-anchor="middle" font-family="Arial" font-weight="bold" font-size="14">1</text>
<line x1="440" y1="250.0" x2="480.0" y2="250.0" stroke="black" />
<rect x="480.0" y="216.0" width="160" height="68.0" stroke="black" stroke-width="1.2" fill="white" />
<text x="560.0" y="242.0" text-anchor="middle" font-family="Arial" font-size="11">Fetch Initial</text>
<text x="560.0" y="266.0" text-anchor="middle" font-family="Arial" font-size="11">Message Batch</text>
<line x1="400" y1="280.0" x2="400" y2="360" stroke="black" />
<line x1="380" y1="320.0" x2="420" y2="320.0" stroke="black" stroke-width="2" />
<text x="424.0" y="324.0" font-style="italic" font-size="11" text-anchor="start">initial_batch_received</text>
<rect x="360.0" y="360.0" width="80" height="60" stroke="black" stroke-width="1.5" fill="white" />
<text x="400" y="395.0" text-anchor="middle" font-family="Arial" font-weight="bold" font-size="14">2</text>
<line x1="440" y1="390.0" x2="480.0" y2="390.0" stroke="black" />
<rect x="480.0" y="356.0" width="160" height="68.0" stroke="black" stroke-width="1.2" fill="white" />
<text x="560.0" y="382.0" text-anchor="middle" font-family="Arial" font-size="11">Render Initial</text>
<text x="560.0" y="405.99999999999994" text-anchor="middle" font-family="Arial" font-size="11">Messages</text>
<line x1="400" y1="420" x2="400" y2="460" stroke="black" />
<line x1="380" y1="460" x2="420" y2="460" stroke="black" stroke-width="2" />
<text x="424.0" y="464" font-style="italic" font-size="11">rendered</text>
<line x1="400" y1="460" x2="400" y2="496.0" stroke="black" marker-end="url(#arrow)" />
<line x1="160.0" y1="497.0" x2="640.0" y2="497.0" stroke="black" stroke-width="1.5" />
<line x1="160.0" y1="503.0" x2="640.0" y2="503.0" stroke="black" stroke-width="1.5" />
<line x1="200.0" y1="504.0" x2="200.0" y2="540" stroke="black" marker-end="url(#arrow)" />
<line x1="600.0" y1="504.0" x2="600.0" y2="540" stroke="black" marker-end="url(#arrow)" />
<rect x="160.0" y="540.0" width="80" height="60" stroke="black" stroke-width="1.5" fill="white" />
<text x="200.0" y="575.0" text-anchor="middle" font-family="Arial" font-weight="bold" font-size="14">3</text>
<line x1="240.0" y1="570.0" x2="280.0" y2="570.0" stroke="black" />
<rect x="280.0" y="536.0" width="160" height="68.0" stroke="black" stroke-width="1.2" fill="white" />
<text x="360.0" y="562.0" text-anchor="middle" font-family="Arial" font-size="11">Enable User</text>
<text x="360.0" y="586.0" text-anchor="middle" font-family="Arial" font-size="11">Interaction</text>
<rect x="560.0" y="540.0" width="80" height="60" stroke="black" stroke-width="1.5" fill="white" />
<text x="600.0" y="575.0" text-anchor="middle" font-family="Arial" font-weight="bold" font-size="14">4</text>
<line x1="640.0" y1="570.0" x2="680.0" y2="570.0" stroke="black" />
<rect x="680.0" y="536.0" width="160" height="68.0" stroke="black" stroke-width="1.2" fill="white" />
<text x="760.0" y="562.0" text-anchor="middle" font-family="Arial" font-size="11">Fetch Next</text>
<text x="760.0" y="586.0" text-anchor="middle" font-family="Arial" font-size="11">Backfill Batch</text>
<line x1="160.0" y1="637.0" x2="640.0" y2="637.0" stroke="black" stroke-width="1.5" />
<line x1="160.0" y1="643.0" x2="640.0" y2="643.0" stroke="black" stroke-width="1.5" />
<line x1="200.0" y1="600" x2="200.0" y2="636.0" stroke="black" />
<line x1="600.0" y1="600" x2="600.0" y2="636.0" stroke="black" />
<line x1="400" y1="644.0" x2="400" y2="680" stroke="black" />
<line x1="380" y1="680" x2="420" y2="680" stroke="black" stroke-width="2" />
<text x="424.0" y="684" font-style="italic" font-size="11" text-anchor="start">backfill_complete</text>
<line x1="400" y1="680" x2="400" y2="720" stroke="black" marker-end="url(#arrow)" />
<rect x="360.0" y="720.0" width="80" height="60" stroke="black" stroke-width="1.5" fill="white" />
<text x="400" y="755.0" text-anchor="middle" font-family="Arial" font-weight="bold" font-size="14">5</text>
<line x1="440" y1="750.0" x2="480.0" y2="750.0" stroke="black" />
<rect x="480.0" y="704.0" width="170.0" height="92.0" stroke="black" stroke-width="1.2" fill="white" />
<text x="565.0" y="730.0" text-anchor="middle" font-family="Arial" font-size="11">Display</text>
<text x="565.0" y="754.0" text-anchor="middle" font-family="Arial" font-size="11">Compaction</text>
<text x="565.0" y="777.9999999999999" text-anchor="middle" font-family="Arial" font-size="11">Boundary Marker</text>
<line x1="400" y1="780.0" x2="400" y2="860" stroke="black" />
<line x1="380" y1="820.0" x2="420" y2="820.0" stroke="black" stroke-width="2" />
<text x="424.0" y="824.0" font-style="italic" font-size="11" text-anchor="start">session_exit</text>
<rect x="360.0" y="860.0" width="80" height="60" stroke="black" stroke-width="1.5" fill="white" />
<text x="400" y="895.0" text-anchor="middle" font-family="Arial" font-weight="bold" font-size="14">6</text>
<line x1="440" y1="890.0" x2="480.0" y2="890.0" stroke="black" />
<rect x="480.0" y="856.0" width="160" height="68.0" stroke="black" stroke-width="1.2" fill="white" />
<text x="560.0" y="882.0" text-anchor="middle" font-family="Arial" font-size="11">Complete</text>
<text x="560.0" y="906.0" text-anchor="middle" font-family="Arial" font-size="11">Loading</text>
<line x1="400" y1="920.0" x2="400" y2="1000" stroke="black" />
<line x1="380" y1="960.0" x2="420" y2="960.0" stroke="black" stroke-width="2" />
<text x="424.0" y="964.0" font-style="italic" font-size="11" text-anchor="start">session_exit</text>
<line x1="400" y1="1000" x2="400" y2="1000.0" stroke="black" />
<line x1="400" y1="1000.0" x2="80.0" y2="1000.0" stroke="black" />
<line x1="80.0" y1="1000.0" x2="80.0" y2="40.0" stroke="black" />
<line x1="80.0" y1="40.0" x2="400" y2="40.0" stroke="black" />
<line x1="400" y1="40.0" x2="400" y2="80.0" stroke="black" marker-end="url(#arrow)" />
</svg>