<svg width="1335.0" height="688.0" viewBox="-100.0 -130.0 1335.0 688.0" xmlns="http://www.w3.org/2000/svg">
<defs>
<marker id="arrow" viewBox="0 0 10 10" refX="10" refY="5" markerWidth="6" markerHeight="6" orient="auto-start-reverse"><path d="M 0 0 L 10 5 L 0 10 z" fill="black" /></marker>
<marker id="call_arrow" viewBox="0 0 10 10" refX="10" refY="5" markerWidth="8" markerHeight="8" orient="auto-start-reverse"><path d="M 0 0 L 10 5 L 0 10 M 0 2 L 6 5 L 0 8" fill="none" stroke="black" stroke-width="1" /></marker>
</defs>
<rect x="-100.0" y="-130.0" width="1335.0" height="688.0" fill="white" />
<line x1="-120.0" y1="-150.0" x2="-120.0" y2="570.0" stroke="#eee" stroke-width="0.2" />
<line x1="-100.0" y1="-150.0" x2="-100.0" y2="570.0" stroke="#ddd" stroke-width="0.5" />
<line x1="-80.0" y1="-150.0" x2="-80.0" y2="570.0" stroke="#eee" stroke-width="0.2" />
<line x1="-60.0" y1="-150.0" x2="-60.0" y2="570.0" stroke="#eee" stroke-width="0.2" />
<line x1="-40.0" y1="-150.0" x2="-40.0" y2="570.0" stroke="#eee" stroke-width="0.2" />
<line x1="-20.0" y1="-150.0" x2="-20.0" y2="570.0" stroke="#eee" stroke-width="0.2" />
<line x1="0.0" y1="-150.0" x2="0.0" y2="570.0" stroke="#ddd" stroke-width="0.5" />
<line x1="20.0" y1="-150.0" x2="20.0" y2="570.0" stroke="#eee" stroke-width="0.2" />
<line x1="40.0" y1="-150.0" x2="40.0" y2="570.0" stroke="#eee" stroke-width="0.2" />
<line x1="60.0" y1="-150.0" x2="60.0" y2="570.0" stroke="#eee" stroke-width="0.2" />
<line x1="80.0" y1="-150.0" x2="80.0" y2="570.0" stroke="#eee" stroke-width="0.2" />
<line x1="100.0" y1="-150.0" x2="100.0" y2="570.0" stroke="#ddd" stroke-width="0.5" />
<line x1="120.0" y1="-150.0" x2="120.0" y2="570.0" stroke="#eee" stroke-width="0.2" />
<line x1="140.0" y1="-150.0" x2="140.0" y2="570.0" stroke="#eee" stroke-width="0.2" />
<line x1="160.0" y1="-150.0" x2="160.0" y2="570.0" stroke="#eee" stroke-width="0.2" />
<line x1="180.0" y1="-150.0" x2="180.0" y2="570.0" stroke="#eee" stroke-width="0.2" />
<line x1="200.0" y1="-150.0" x2="200.0" y2="570.0" stroke="#ddd" stroke-width="0.5" />
<line x1="220.0" y1="-150.0" x2="220.0" y2="570.0" stroke="#eee" stroke-width="0.2" />
<line x1="240.0" y1="-150.0" x2="240.0" y2="570.0" stroke="#eee" stroke-width="0.2" />
<line x1="260.0" y1="-150.0" x2="260.0" y2="570.0" stroke="#eee" stroke-width="0.2" />
<line x1="280.0" y1="-150.0" x2="280.0" y2="570.0" stroke="#eee" stroke-width="0.2" />
<line x1="300.0" y1="-150.0" x2="300.0" y2="570.0" stroke="#ddd" stroke-width="0.5" />
<line x1="320.0" y1="-150.0" x2="320.0" y2="570.0" stroke="#eee" stroke-width="0.2" />
<line x1="340.0" y1="-150.0" x2="340.0" y2="570.0" stroke="#eee" stroke-width="0.2" />
<line x1="360.0" y1="-150.0" x2="360.0" y2="570.0" stroke="#eee" stroke-width="0.2" />
<line x1="380.0" y1="-150.0" x2="380.0" y2="570.0" stroke="#eee" stroke-width="0.2" />
<line x1="400.0" y1="-150.0" x2="400.0" y2="570.0" stroke="#ddd" stroke-width="0.5" />
<line x1="420.0" y1="-150.0" x2="420.0" y2="570.0" stroke="#eee" stroke-width="0.2" />
<line x1="440.0" y1="-150.0" x2="440.0" y2="570.0" stroke="#eee" stroke-width="0.2" />
<line x1="460.0" y1="-150.0" x2="460.0" y2="570.0" stroke="#eee" stroke-width="0.2" />
<line x1="480.0" y1="-150.0" x2="480.0" y2="570.0" stroke="#eee" stroke-width="0.2" />
<line x1="500.0" y1="-150.0" x2="500.0" y2="570.0" stroke="#ddd" stroke-width="0.5" />
<line x1="520.0" y1="-150.0" x2="520.0" y2="570.0" stroke="#eee" stroke-width="0.2" />
<line x1="540.0" y1="-150.0" x2="540.0" y2="570.0" stroke="#eee" stroke-width="0.2" />
<line x1="560.0" y1="-150.0" x2="560.0" y2="570.0" stroke="#eee" stroke-width="0.2" />
<line x1="580.0" y1="-150.0" x2="580.0" y2="570.0" stroke="#eee" stroke-width="0.2" />
<line x1="600.0" y1="-150.0" x2="600.0" y2="570.0" stroke="#ddd" stroke-width="0.5" />
<line x1="620.0" y1="-150.0" x2="620.0" y2="570.0" stroke="#eee" stroke-width="0.2" />
<line x1="640.0" y1="-150.0" x2="640.0" y2="570.0" stroke="#eee" stroke-width="0.2" />
<line x1="660.0" y1="-150.0" x2="660.0" y2="570.0" stroke="#eee" stroke-width="0.2" />
<line x1="680.0" y1="-150.0" x2="680.0" y2="570.0" stroke="#eee" stroke-width="0.2" />
<line x1="700.0" y1="-150.0" x2="700.0" y2="570.0" stroke="#ddd" stroke-width="0.5" />
<line x1="720.0" y1="-150.0" x2="720.0" y2="570.0" stroke="#eee" stroke-width="0.2" />
<line x1="740.0" y1="-150.0" x2="740.0" y2="570.0" stroke="#eee" stroke-width="0.2" />
<line x1="760.0" y1="-150.0" x2="760.0" y2="570.0" stroke="#eee" stroke-width="0.2" />
<line x1="780.0" y1="-150.0" x2="780.0" y2="570.0" stroke="#eee" stroke-width="0.2" />
<line x1="800.0" y1="-150.0" x2="800.0" y2="570.0" stroke="#ddd" stroke-width="0.5" />
<line x1="820.0" y1="-150.0" x2="820.0" y2="570.0" stroke="#eee" stroke-width="0.2" />
<line x1="840.0" y1="-150.0" x2="840.0" y2="570.0" stroke="#eee" stroke-width="0.2" />
<line x1="860.0" y1="-150.0" x2="860.0" y2="570.0" stroke="#eee" stroke-width="0.2" />
<line x1="880.0" y1="-150.0" x2="880.0" y2="570.0" stroke="#eee" stroke-width="0.2" />
<line x1="900.0" y1="-150.0" x2="900.0" y2="570.0" stroke="#ddd" stroke-width="0.5" />
<line x1="920.0" y1="-150.0" x2="920.0" y2="570.0" stroke="#eee" stroke-width="0.2" />
<line x1="940.0" y1="-150.0" x2="940.0" y2="570.0" stroke="#eee" stroke-width="0.2" />
<line x1="960.0" y1="-150.0" x2="960.0" y2="570.0" stroke="#eee" stroke-width="0.2" />
<line x1="980.0" y1="-150.0" x2="980.0" y2="570.0" stroke="#eee" stroke-width="0.2" />
<line x1="1000.0" y1="-150.0" x2="1000.0" y2="570.0" stroke="#ddd" stroke-width="0.5" />
<line x1="1020.0" y1="-150.0" x2="1020.0" y2="570.0" stroke="#eee" stroke-width="0.2" />
<line x1="1040.0" y1="-150.0" x2="1040.0" y2="570.0" stroke="#eee" stroke-width="0.2" />
<line x1="1060.0" y1="-150.0" x2="1060.0" y2="570.0" stroke="#eee" stroke-width="0.2" />
<line x1="1080.0" y1="-150.0" x2="1080.0" y2="570.0" stroke="#eee" stroke-width="0.2" />
<line x1="1100.0" y1="-150.0" x2="1100.0" y2="570.0" stroke="#ddd" stroke-width="0.5" />
<line x1="1120.0" y1="-150.0" x2="1120.0" y2="570.0" stroke="#eee" stroke-width="0.2" />
<line x1="1140.0" y1="-150.0" x2="1140.0" y2="570.0" stroke="#eee" stroke-width="0.2" />
<line x1="1160.0" y1="-150.0" x2="1160.0" y2="570.0" stroke="#eee" stroke-width="0.2" />
<line x1="1180.0" y1="-150.0" x2="1180.0" y2="570.0" stroke="#eee" stroke-width="0.2" />
<line x1="1200.0" y1="-150.0" x2="1200.0" y2="570.0" stroke="#ddd" stroke-width="0.5" />
<line x1="1220.0" y1="-150.0" x2="1220.0" y2="570.0" stroke="#eee" stroke-width="0.2" />
<line x1="1240.0" y1="-150.0" x2="1240.0" y2="570.0" stroke="#eee" stroke-width="0.2" />
<line x1="-120.0" y1="-150.0" x2="1250.0" y2="-150.0" stroke="#eee" stroke-width="0.2" />
<line x1="-120.0" y1="-130.0" x2="1250.0" y2="-130.0" stroke="#eee" stroke-width="0.2" />
<line x1="-120.0" y1="-110.0" x2="1250.0" y2="-110.0" stroke="#eee" stroke-width="0.2" />
<line x1="-120.0" y1="-90.0" x2="1250.0" y2="-90.0" stroke="#eee" stroke-width="0.2" />
<line x1="-120.0" y1="-70.0" x2="1250.0" y2="-70.0" stroke="#eee" stroke-width="0.2" />
<line x1="-120.0" y1="-50.0" x2="1250.0" y2="-50.0" stroke="#eee" stroke-width="0.2" />
<line x1="-120.0" y1="-30.0" x2="1250.0" y2="-30.0" stroke="#eee" stroke-width="0.2" />
<line x1="-120.0" y1="-10.0" x2="1250.0" y2="-10.0" stroke="#eee" stroke-width="0.2" />
<line x1="-120.0" y1="10.0" x2="1250.0" y2="10.0" stroke="#eee" stroke-width="0.2" />
<line x1="-120.0" y1="30.0" x2="1250.0" y2="30.0" stroke="#eee" stroke-width="0.2" />
<line x1="-120.0" y1="50.0" x2="1250.0" y2="50.0" stroke="#eee" stroke-width="0.2" />
<line x1="-120.0" y1="70.0" x2="1250.0" y2="70.0" stroke="#eee" stroke-width="0.2" />
<line x1="-120.0" y1="90.0" x2="1250.0" y2="90.0" stroke="#eee" stroke-width="0.2" />
<line x1="-120.0" y1="110.0" x2="1250.0" y2="110.0" stroke="#eee" stroke-width="0.2" />
<line x1="-120.0" y1="130.0" x2="1250.0" y2="130.0" stroke="#eee" stroke-width="0.2" />
<line x1="-120.0" y1="150.0" x2="1250.0" y2="150.0" stroke="#eee" stroke-width="0.2" />
<line x1="-120.0" y1="170.0" x2="1250.0" y2="170.0" stroke="#eee" stroke-width="0.2" />
<line x1="-120.0" y1="190.0" x2="1250.0" y2="190.0" stroke="#eee" stroke-width="0.2" />
<line x1="-120.0" y1="210.0" x2="1250.0" y2="210.0" stroke="#eee" stroke-width="0.2" />
<line x1="-120.0" y1="230.0" x2="1250.0" y2="230.0" stroke="#eee" stroke-width="0.2" />
<line x1="-120.0" y1="250.0" x2="1250.0" y2="250.0" stroke="#eee" stroke-width="0.2" />
<line x1="-120.0" y1="270.0" x2="1250.0" y2="270.0" stroke="#eee" stroke-width="0.2" />
<line x1="-120.0" y1="290.0" x2="1250.0" y2="290.0" stroke="#eee" stroke-width="0.2" />
<line x1="-120.0" y1="310.0" x2="1250.0" y2="310.0" stroke="#eee" stroke-width="0.2" />
<line x1="-120.0" y1="330.0" x2="1250.0" y2="330.0" stroke="#eee" stroke-width="0.2" />
<line x1="-120.0" y1="350.0" x2="1250.0" y2="350.0" stroke="#eee" stroke-width="0.2" />
<line x1="-120.0" y1="370.0" x2="1250.0" y2="370.0" stroke="#eee" stroke-width="0.2" />
<line x1="-120.0" y1="390.0" x2="1250.0" y2="390.0" stroke="#eee" stroke-width="0.2" />
<line x1="-120.0" y1="410.0" x2="1250.0" y2="410.0" stroke="#eee" stroke-width="0.2" />
<line x1="-120.0" y1="430.0" x2="1250.0" y2="430.0" stroke="#eee" stroke-width="0.2" />
<line x1="-120.0" y1="450.0" x2="1250.0" y2="450.0" stroke="#eee" stroke-width="0.2" />
<line x1="-120.0" y1="470.0" x2="1250.0" y2="470.0" stroke="#eee" stroke-width="0.2" />
<line x1="-120.0" y1="490.0" x2="1250.0" y2="490.0" stroke="#eee" stroke-width="0.2" />
<line x1="-120.0" y1="510.0" x2="1250.0" y2="510.0" stroke="#eee" stroke-width="0.2" />
<line x1="-120.0" y1="530.0" x2="1250.0" y2="530.0" stroke="#eee" stroke-width="0.2" />
<line x1="-120.0" y1="550.0" x2="1250.0" y2="550.0" stroke="#eee" stroke-width="0.2" />
<line x1="-120.0" y1="570.0" x2="1250.0" y2="570.0" stroke="#eee" stroke-width="0.2" />
<rect x="130.0" y="120.0" width="200.0" height="100.0" stroke="black" fill="white" stroke-width="1.5" />
<text x="230.0" y="156.0" text-anchor="middle" font-size="14" font-weight="bold" font-family="'Times New Roman', 'BiauKai', 'DFKai-SB', '标楷体', serif" >A1</text>
<text x="230.0" y="186.0" text-anchor="middle" font-size="16" font-weight="bold" font-family="'Times New Roman', 'BiauKai', 'DFKai-SB', '标楷体', serif" >營運行政</text>
<rect x="430.0" y="120.0" width="200.0" height="100.0" stroke="black" fill="white" stroke-width="1.5" />
<text x="530.0" y="156.0" text-anchor="middle" font-size="14" font-weight="bold" font-family="'Times New Roman', 'BiauKai', 'DFKai-SB', '标楷体', serif" >A2</text>
<text x="530.0" y="186.0" text-anchor="middle" font-size="16" font-weight="bold" font-family="'Times New Roman', 'BiauKai', 'DFKai-SB', '标楷体', serif" >產品研發</text>
<rect x="730.0" y="120.0" width="200.0" height="100.0" stroke="black" fill="white" stroke-width="1.5" />
<text x="830.0" y="156.0" text-anchor="middle" font-size="14" font-weight="bold" font-family="'Times New Roman', 'BiauKai', 'DFKai-SB', '标楷体', serif" >A3</text>
<text x="830.0" y="186.0" text-anchor="middle" font-size="16" font-weight="bold" font-family="'Times New Roman', 'BiauKai', 'DFKai-SB', '标楷体', serif" >委外製造</text>
<rect x="130.0" y="300.0" width="200.0" height="100.0" stroke="black" fill="white" stroke-width="1.5" />
<text x="230.0" y="336.0" text-anchor="middle" font-size="14" font-weight="bold" font-family="'Times New Roman', 'BiauKai', 'DFKai-SB', '标楷体', serif" >A4</text>
<text x="230.0" y="366.0" text-anchor="middle" font-size="16" font-weight="bold" font-family="'Times New Roman', 'BiauKai', 'DFKai-SB', '标楷体', serif" >結盟合作</text>
<rect x="430.0" y="300.0" width="200.0" height="100.0" stroke="black" fill="white" stroke-width="1.5" />
<text x="530.0" y="336.0" text-anchor="middle" font-size="14" font-weight="bold" font-family="'Times New Roman', 'BiauKai', 'DFKai-SB', '标楷体', serif" >A5</text>
<text x="530.0" y="366.0" text-anchor="middle" font-size="16" font-weight="bold" font-family="'Times New Roman', 'BiauKai', 'DFKai-SB', '标楷体', serif" >科專補助</text>
<rect x="70.0" y="60.0" width="920.0" height="400.0" stroke="black" fill="none" stroke-width="2" />
<rect x="410.0" y="-90.0" width="240.0" height="110.0" stroke="black" fill="white" stroke-width="1.5" />
<text x="530.0" y="-49.0" text-anchor="middle" font-size="14" font-weight="bold" font-family="'Times New Roman', 'BiauKai', 'DFKai-SB', '标楷体', serif" >A0</text>
<text x="530.0" y="-19.0" text-anchor="middle" font-size="16" font-weight="bold" font-family="'Times New Roman', 'BiauKai', 'DFKai-SB', '标楷体', serif" >營運重點工作 IDEF0</text>
<line x1="410.0" y1="-90.0" x2="70.0" y2="60.0" stroke="red" stroke-dasharray="5,5" stroke-width="1.0" opacity="0.6" />
<line x1="650.0" y1="-90.0" x2="990.0" y2="60.0" stroke="red" stroke-dasharray="5,5" stroke-width="1.0" opacity="0.6" />
<line x1="410.0" y1="20.0" x2="70.0" y2="460.0" stroke="red" stroke-dasharray="5,5" stroke-width="1.0" opacity="0.6" />
<line x1="650.0" y1="20.0" x2="990.0" y2="460.0" stroke="red" stroke-dasharray="5,5" stroke-width="1.0" opacity="0.6" />
<path d="M 10.0 170.0 L 130.0 170.0" stroke="black" stroke-width="1.2" marker-end="url(#arrow)" fill="none" />
<path d="M 10.0 180.0 L 10.0 90.0 Q 10.0 80.0 20.0 80.0 L 380.0 80.0 Q 390.0 80.0 390.0 90.0 L 390.0 160.0 Q 390.0 170.0 400.0 170.0 L 430.0 170.0" stroke="black" stroke-width="1.2" marker-end="url(#arrow)" fill="none" />
<path d="M 10.0 190.0 L 10.0 110.0 Q 10.0 100.0 20.0 100.0 L 680.0 100.0 Q 690.0 100.0 690.0 110.0 L 690.0 160.0 Q 690.0 170.0 700.0 170.0 L 730.0 170.0" stroke="black" stroke-width="1.2" marker-end="url(#arrow)" fill="none" />
<path d="M 10.0 350.0 L 130.0 350.0" stroke="black" stroke-width="1.2" marker-end="url(#arrow)" fill="none" />
<path d="M -20.0 360.0 L -20.0 270.0 Q -20.0 260.0 -10.0 260.0 L 380.0 260.0 Q 390.0 260.0 390.0 270.0 L 390.0 340.0 Q 390.0 350.0 400.0 350.0 L 430.0 350.0" stroke="black" stroke-width="1.2" marker-end="url(#arrow)" fill="none" />
<path d="M 330.0 170.0 L 330.0 100.0 Q 330.0 90.0 340.0 90.0 L 970.0 90.0 Q 980.0 90.0 980.0 100.0 L 980.0 160.0 Q 980.0 170.0 990.0 170.0 L 1080.0 170.0" stroke="black" stroke-width="1.2" marker-end="url(#arrow)" fill="none" />
<path d="M 630.0 170.0 L 630.0 80.0 Q 630.0 70.0 640.0 70.0 L 945.0 70.0 Q 955.0 70.0 955.0 80.0 L 955.0 160.0 Q 955.0 170.0 965.0 170.0 L 1125.0 170.0" stroke="black" stroke-width="1.2" marker-end="url(#arrow)" fill="none" />
<path d="M 930.0 170.0 L 1125.0 170.0" stroke="black" stroke-width="1.2" marker-end="url(#arrow)" fill="none" />
<path d="M 330.0 350.0 L 330.0 290.0 Q 330.0 280.0 340.0 280.0 L 975.0 280.0 Q 985.0 280.0 985.0 290.0 L 985.0 340.0 Q 985.0 350.0 995.0 350.0 L 1125.0 350.0" stroke="black" stroke-width="1.2" marker-end="url(#arrow)" fill="none" />
<path d="M 630.0 350.0 L 1155.0 350.0" stroke="black" stroke-width="1.2" marker-end="url(#arrow)" fill="none" />
<text x="70.0" y="162.0" font-size="14" font-weight="bold" fill="black" text-anchor="middle" font-family="'Times New Roman', 'BiauKai', 'DFKai-SB', '标楷体', serif" >行政需求</text>
<text x="-10.0" y="478.0" font-size="14" font-weight="bold" fill="black" text-anchor="start" font-family="'Times New Roman', 'BiauKai', 'DFKai-SB', '标楷体', serif" >市場需求</text>
<text x="530.0" y="118.0" font-size="14" font-weight="bold" fill="black" text-anchor="middle" font-family="'Times New Roman', 'BiauKai', 'DFKai-SB', '标楷体', serif" >生產需求</text>
<text x="66.0" y="342.0" font-size="14" font-weight="bold" fill="black" text-anchor="end" font-family="'Times New Roman', 'BiauKai', 'DFKai-SB', '标楷体', serif" >合作機會</text>
<text x="230.0" y="252.0" font-size="14" font-weight="bold" fill="black" text-anchor="middle" font-family="'Times New Roman', 'BiauKai', 'DFKai-SB', '标楷体', serif" >補助申請需求</text>
<text x="530.0" y="82.0" font-size="14" font-weight="bold" fill="black" text-anchor="middle" font-family="'Times New Roman', 'BiauKai', 'DFKai-SB', '标楷体', serif" >行政支援成果</text>
<text x="830.0" y="88.0" font-size="14" font-weight="bold" fill="black" text-anchor="middle" font-family="'Times New Roman', 'BiauKai', 'DFKai-SB', '标楷体', serif" >研發成果與產品方案</text>
<text x="994.0" y="146.0" font-size="14" font-weight="bold" fill="black" text-anchor="start" font-family="'Times New Roman', 'BiauKai', 'DFKai-SB', '标楷体', serif" >製造交付與品質成果</text>
<text x="530.0" y="272.0" font-size="14" font-weight="bold" fill="black" text-anchor="middle" font-family="'Times New Roman', 'BiauKai', 'DFKai-SB', '标楷体', serif" >合作協議與聯盟成果</text>
<text x="830.0" y="342.0" font-size="14" font-weight="bold" fill="black" text-anchor="middle" font-family="'Times New Roman', 'BiauKai', 'DFKai-SB', '标楷体', serif" >補助申請成果與資金支持</text>
</svg>