<svg width="1988.0" height="875.8" viewBox="-424.0 -210.0 1988.0 875.8" xmlns="http://www.w3.org/2000/svg">
<defs>
<marker id="arrow" viewBox="0 0 10 10" refX="10" refY="5" markerWidth="6" markerHeight="6" orient="auto-start-reverse"><path d="M 0 0 L 10 5 L 0 10 z" fill="black" /></marker>
<marker id="call_arrow" viewBox="0 0 10 10" refX="10" refY="5" markerWidth="8" markerHeight="8" orient="auto-start-reverse"><path d="M 0 0 L 10 5 L 0 10 M 0 2 L 6 5 L 0 8" fill="none" stroke="black" stroke-width="1" /></marker>
</defs>
<rect x="-424.0" y="-210.0" width="1988.0" height="875.8" fill="white" />
<rect x="130.0" y="120.0" width="200.0" height="160.0" stroke="black" fill="white" stroke-width="1.5" data-id="A11" />
<text x="230.0" y="159.4" text-anchor="middle" font-size="22" font-weight="bold" font-family="'Times New Roman', 'BiauKai', 'DFKai-SB', '標楷體', 'KaiTi', serif" data-id="A11" >A11</text>
<text x="230.0" y="200.9" text-anchor="middle" font-size="24" font-weight="bold" font-family="'Times New Roman', 'BiauKai', 'DFKai-SB', '標楷體', 'KaiTi', serif" data-id="A11" >ROUTE</text>
<text x="230.0" y="245.9" text-anchor="middle" font-size="24" font-weight="bold" font-family="'Times New Roman', 'BiauKai', 'DFKai-SB', '標楷體', 'KaiTi', serif" data-id="A11" >STORAGE TIER</text>
<rect x="490.0" y="120.0" width="200.0" height="160.0" stroke="black" fill="white" stroke-width="1.5" data-id="A12" />
<text x="590.0" y="159.4" text-anchor="middle" font-size="22" font-weight="bold" font-family="'Times New Roman', 'BiauKai', 'DFKai-SB', '標楷體', 'KaiTi', serif" data-id="A12" >A12</text>
<text x="590.0" y="200.9" text-anchor="middle" font-size="24" font-weight="bold" font-family="'Times New Roman', 'BiauKai', 'DFKai-SB', '標楷體', 'KaiTi', serif" data-id="A12" >WRITE SQLITE</text>
<text x="590.0" y="245.9" text-anchor="middle" font-size="24" font-weight="bold" font-family="'Times New Roman', 'BiauKai', 'DFKai-SB', '標楷體', 'KaiTi', serif" data-id="A12" >BACKEND</text>
<rect x="810.0" y="120.0" width="200.0" height="160.0" stroke="black" fill="white" stroke-width="1.5" data-id="A13" />
<text x="910.0" y="158.0" text-anchor="middle" font-size="23" font-weight="bold" font-family="'Times New Roman', 'BiauKai', 'DFKai-SB', '標楷體', 'KaiTi', serif" data-id="A13" >A13</text>
<text x="910.0" y="200.8" text-anchor="middle" font-size="25" font-weight="bold" font-family="'Times New Roman', 'BiauKai', 'DFKai-SB', '標楷體', 'KaiTi', serif" data-id="A13" >READ</text>
<text x="910.0" y="247.7" text-anchor="middle" font-size="25" font-weight="bold" font-family="'Times New Roman', 'BiauKai', 'DFKai-SB', '標楷體', 'KaiTi', serif" data-id="A13" >LEGACY TREE</text>
<rect x="130.0" y="420.0" width="200.0" height="160.0" stroke="black" fill="white" stroke-width="1.5" data-id="A14" />
<text x="230.0" y="462.3" text-anchor="middle" font-size="20" font-weight="bold" font-family="'Times New Roman', 'BiauKai', 'DFKai-SB', '標楷體', 'KaiTi', serif" data-id="A14" >A14</text>
<text x="230.0" y="500.9" text-anchor="middle" font-size="22" font-weight="bold" font-family="'Times New Roman', 'BiauKai', 'DFKai-SB', '標楷體', 'KaiTi', serif" data-id="A14" >DRAIN LEGACY</text>
<text x="230.0" y="542.1" text-anchor="middle" font-size="22" font-weight="bold" font-family="'Times New Roman', 'BiauKai', 'DFKai-SB', '標楷體', 'KaiTi', serif" data-id="A14" >IN BACKGROUND</text>
<rect x="490.0" y="420.0" width="200.0" height="160.0" stroke="black" fill="white" stroke-width="1.5" data-id="A15" />
<text x="590.0" y="468.1" text-anchor="middle" font-size="16" font-weight="bold" font-family="'Times New Roman', 'BiauKai', 'DFKai-SB', '標楷體', 'KaiTi', serif" data-id="A15" >A15</text>
<text x="590.0" y="501.0" text-anchor="middle" font-size="18" font-weight="bold" font-family="'Times New Roman', 'BiauKai', 'DFKai-SB', '標楷體', 'KaiTi', serif" data-id="A15" >VERIFY INTEGRITY</text>
<text x="590.0" y="534.7" text-anchor="middle" font-size="18" font-weight="bold" font-family="'Times New Roman', 'BiauKai', 'DFKai-SB', '標楷體', 'KaiTi', serif" data-id="A15" >AND MIGRATIONS</text>
<rect x="40.0" y="0.0" width="1060.0" height="655.8" stroke="black" fill="none" stroke-width="2" />
<rect x="450.0" y="-200.0" width="240.0" height="110.0" stroke="black" fill="white" stroke-width="1.5" data-id="A1" />
<text x="570.0" y="-159.0" text-anchor="middle" font-size="14" font-weight="bold" font-family="'Times New Roman', 'BiauKai', 'DFKai-SB', '標楷體', 'KaiTi', serif" data-id="A1" >A1</text>
<text x="570.0" y="-129.0" text-anchor="middle" font-size="16" font-weight="bold" font-family="'Times New Roman', 'BiauKai', 'DFKai-SB', '標楷體', 'KaiTi', serif" data-id="A1" >PERSIST SESSION STATE</text>
<line x1="450.0" y1="-200.0" x2="40.0" y2="0.0" stroke="red" stroke-dasharray="5,5" stroke-width="1.0" opacity="0.6" />
<line x1="690.0" y1="-200.0" x2="1100.0" y2="0.0" stroke="red" stroke-dasharray="5,5" stroke-width="1.0" opacity="0.6" />
<line x1="450.0" y1="-90.0" x2="40.0" y2="655.8" stroke="red" stroke-dasharray="5,5" stroke-width="1.0" opacity="0.6" />
<line x1="690.0" y1="-90.0" x2="1100.0" y2="655.8" stroke="red" stroke-dasharray="5,5" stroke-width="1.0" opacity="0.6" />
<path d="M 330.0 173.3 L 490.0 173.3" stroke="black" stroke-width="1.2" data-arrow-id="a1_route_sqlite" data-waypoints="330.0,173.3 490.0,173.3" marker-end="url(#arrow)" fill="none" />
<path d="M 1010.0 226.7 L 1040.0 226.7 Q 1050.0 226.7 1050.0 236.7 L 1050.0 320.0 Q 1050.0 330.0 1040.0 330.0 L 100.0 330.0 Q 90.0 330.0 90.0 340.0 L 90.0 490.0 Q 90.0 500.0 100.0 500.0 L 130.0 500.0" stroke="black" stroke-width="1.2" data-arrow-id="a1_legacy_to_drain" data-waypoints="1010.0,226.7 1050.0,226.7 1050.0,330.0 90.0,330.0 90.0,500.0 130.0,500.0" marker-end="url(#arrow)" fill="none" />
<path d="M 330.0 226.7 L 360.0 226.7 Q 370.0 226.7 370.0 216.7 L 370.0 88.2 Q 370.0 78.2 380.0 78.2 L 760.0 78.2 Q 770.0 78.2 770.0 88.2 L 770.0 190.0 Q 770.0 200.0 780.0 200.0 L 810.0 200.0" stroke="black" stroke-width="1.2" data-arrow-id="a1_route_legacy" data-waypoints="330.0,226.7 370.0,226.7 370.0,78.2 770.0,78.2 770.0,200.0 810.0,200.0" marker-end="url(#arrow)" fill="none" />
<path d="M 330.0 500.0 L 400.0 500.0 Q 410.0 500.0 410.0 490.0 L 410.0 236.7 Q 410.0 226.7 420.0 226.7 L 490.0 226.7" stroke="black" stroke-width="1.2" data-arrow-id="a1_dream_to_sqlite" data-waypoints="330.0,500.0 410.0,500.0 410.0,226.7 490.0,226.7" marker-end="url(#arrow)" fill="none" />
<path d="M 690.0 226.7 L 720.0 226.7 Q 730.0 226.7 730.0 236.7 L 730.0 360.0 Q 730.0 370.0 720.0 370.0 L 460.0 370.0 Q 450.0 370.0 450.0 380.0 L 450.0 490.0 Q 450.0 500.0 460.0 500.0 L 490.0 500.0" stroke="black" stroke-width="1.2" data-arrow-id="a1_sqlite_to_integrity" data-waypoints="690.0,226.7 730.0,226.7 730.0,370.0 450.0,370.0 450.0,500.0 490.0,500.0" marker-end="url(#arrow)" fill="none" />
<path d="M -10.0 200.0 L 130.0 200.0" stroke="black" stroke-width="1.2" data-arrow-id="a1_in_msg" data-waypoints="-10.0,200.0 130.0,200.0" marker-end="url(#arrow)" fill="none" />
<path d="M 230.0 84.2 L 230.0 120.0" stroke="black" stroke-width="1.2" data-arrow-id="a1_ctrl_dd13" data-waypoints="230.0,84.2 230.0,120.0" marker-end="url(#arrow)" fill="none" />
<path d="M 230.0 315.8 L 230.0 280.0" stroke="black" stroke-width="1.2" data-arrow-id="a1_mech_router" data-waypoints="230.0,315.8 230.0,280.0" marker-end="url(#arrow)" fill="none" />
<path d="M 590.0 315.8 L 590.0 280.0" stroke="black" stroke-width="1.2" data-arrow-id="a1_mech_sqlite" data-waypoints="590.0,315.8 590.0,280.0" marker-end="url(#arrow)" fill="none" />
<path d="M 590.0 84.2 L 590.0 120.0" stroke="black" stroke-width="1.2" data-arrow-id="a1_ctrl_pool" data-waypoints="590.0,84.2 590.0,120.0" marker-end="url(#arrow)" fill="none" />
<path d="M 910.0 315.8 L 910.0 280.0" stroke="black" stroke-width="1.2" data-arrow-id="a1_mech_legacy" data-waypoints="910.0,315.8 910.0,280.0" marker-end="url(#arrow)" fill="none" />
<path d="M 230.0 615.8 L 230.0 580.0" stroke="black" stroke-width="1.2" data-arrow-id="a1_mech_dream" data-waypoints="230.0,615.8 230.0,580.0" marker-end="url(#arrow)" fill="none" />
<path d="M 230.0 384.2 L 230.0 420.0" stroke="black" stroke-width="1.2" data-arrow-id="a1_ctrl_idle" data-waypoints="230.0,384.2 230.0,420.0" marker-end="url(#arrow)" fill="none" />
<path d="M 590.0 615.8 L 590.0 580.0" stroke="black" stroke-width="1.2" data-arrow-id="a1_mech_integrity" data-waypoints="590.0,615.8 590.0,580.0" marker-end="url(#arrow)" fill="none" />
<path d="M 690.0 500.0 L 1150.0 500.0" stroke="black" stroke-width="1.2" data-arrow-id="a1_integrity_event" data-waypoints="690.0,500.0 1150.0,500.0" marker-end="url(#arrow)" fill="none" />
<path d="M 690.0 173.3 L 720.0 173.3 Q 730.0 173.3 730.0 163.3 L 730.0 50.0 Q 730.0 40.0 740.0 40.0 L 1150.0 40.0" stroke="black" stroke-width="1.2" data-arrow-id="a1_out_persisted" data-waypoints="690.0,173.3 730.0,173.3 730.0,40.0 1150.0,40.0" marker-end="url(#arrow)" fill="none" />
<path d="M 1010.0 173.3 L 1150.0 173.3" stroke="black" stroke-width="1.2" data-arrow-id="a1_out_legacy_read" data-waypoints="1010.0,173.3 1150.0,173.3" marker-end="url(#arrow)" fill="none" />
<text x="230.0" y="78.2" font-size="14" text-anchor="middle" font-weight="bold" fill="black" font-family="'Times New Roman', 'BiauKai', 'DFKai-SB', '標楷體', 'KaiTi', serif" data-arrow-id="a1_ctrl_dd13">DD-13 No Silent Reroute Rule</text>
<text x="224.0" y="296.0" font-size="14" text-anchor="end" font-weight="bold" fill="black" font-family="'Times New Roman', 'BiauKai', 'DFKai-SB', '標楷體', 'KaiTi', serif" data-arrow-id="a1_mech_router">storage/router.ts</text>
<text x="236.0" y="296.0" font-size="14" text-anchor="start" font-weight="bold" fill="black" font-family="'Times New Roman', 'BiauKai', 'DFKai-SB', '標楷體', 'KaiTi', serif" data-arrow-id="a1_mech_router">detectFormat</text>
<text x="584.0" y="296.0" font-size="14" text-anchor="end" font-weight="bold" fill="black" font-family="'Times New Roman', 'BiauKai', 'DFKai-SB', '標楷體', 'KaiTi', serif" data-arrow-id="a1_mech_sqlite">storage/sqlite.ts</text>
<text x="596.0" y="296.0" font-size="14" text-anchor="start" font-weight="bold" fill="black" font-family="'Times New Roman', 'BiauKai', 'DFKai-SB', '標楷體', 'KaiTi', serif" data-arrow-id="a1_mech_sqlite">SqliteStore WAL</text>
<text x="584.0" y="114.0" font-size="14" text-anchor="end" font-weight="bold" fill="black" font-family="'Times New Roman', 'BiauKai', 'DFKai-SB', '標楷體', 'KaiTi', serif" data-arrow-id="a1_ctrl_pool">ConnectionPool</text>
<text x="596.0" y="114.0" font-size="14" text-anchor="start" font-weight="bold" fill="black" font-family="'Times New Roman', 'BiauKai', 'DFKai-SB', '標楷體', 'KaiTi', serif" data-arrow-id="a1_ctrl_pool">Cached Handle</text>
<text x="904.0" y="296.0" font-size="14" text-anchor="end" font-weight="bold" fill="black" font-family="'Times New Roman', 'BiauKai', 'DFKai-SB', '標楷體', 'KaiTi', serif" data-arrow-id="a1_mech_legacy">storage/legacy.ts</text>
<text x="916.0" y="296.0" font-size="14" text-anchor="start" font-weight="bold" fill="black" font-family="'Times New Roman', 'BiauKai', 'DFKai-SB', '標楷體', 'KaiTi', serif" data-arrow-id="a1_mech_legacy">LegacyStore Walk</text>
<text x="230.0" y="631.8" font-size="14" text-anchor="middle" font-weight="bold" fill="black" font-family="'Times New Roman', 'BiauKai', 'DFKai-SB', '標楷體', 'KaiTi', serif" data-arrow-id="a1_mech_dream">storage/dreaming.ts DreamingWorker</text>
<text x="230.0" y="378.2" font-size="14" text-anchor="middle" font-weight="bold" fill="black" font-family="'Times New Roman', 'BiauKai', 'DFKai-SB', '標楷體', 'KaiTi', serif" data-arrow-id="a1_ctrl_idle">IDLE_THRESHOLD_MS 5000</text>
<text x="590.0" y="631.8" font-size="14" text-anchor="middle" font-weight="bold" fill="black" font-family="'Times New Roman', 'BiauKai', 'DFKai-SB', '標楷體', 'KaiTi', serif" data-arrow-id="a1_mech_integrity">storage/integrity.ts PRAGMA integrity_check</text>
<text x="428.3" y="168.3" font-size="14" font-weight="bold" fill="black" text-anchor="middle" font-family="'Times New Roman', 'BiauKai', 'DFKai-SB', '標楷體', 'KaiTi', serif" data-arrow-id="a1_route_sqlite">Sqlite Tier</text>
<text x="428.3" y="185.3" font-size="14" font-weight="bold" fill="black" text-anchor="middle" font-family="'Times New Roman', 'BiauKai', 'DFKai-SB', '標楷體', 'KaiTi', serif" data-arrow-id="a1_route_sqlite">Selected</text>
<text x="590.0" y="348.0" font-size="14" font-weight="bold" fill="black" text-anchor="middle" font-family="'Times New Roman', 'BiauKai', 'DFKai-SB', '標楷體', 'KaiTi', serif" data-arrow-id="a1_legacy_to_drain" >Legacy Backlog Detected</text>
<text x="590.0" y="70.2" font-size="14" font-weight="bold" fill="black" text-anchor="middle" font-family="'Times New Roman', 'BiauKai', 'DFKai-SB', '標楷體', 'KaiTi', serif" data-arrow-id="a1_route_legacy" >Legacy Tier Authoritative</text>
<text x="380.0" y="354.7" font-size="14" font-weight="bold" fill="black" text-anchor="end" font-family="'Times New Roman', 'BiauKai', 'DFKai-SB', '標楷體', 'KaiTi', serif" data-arrow-id="a1_dream_to_sqlite" >Migrated Session Atomic Rename</text>
<text x="590.0" y="388.0" font-size="14" font-weight="bold" fill="black" text-anchor="middle" font-family="'Times New Roman', 'BiauKai', 'DFKai-SB', '標楷體', 'KaiTi', serif" data-arrow-id="a1_sqlite_to_integrity" >First Open Or Migration Pending</text>
<text x="-14.0" y="191.0" font-size="20" text-anchor="end" font-weight="bold" fill="black" font-family="'Times New Roman', 'BiauKai', 'DFKai-SB', '標楷體', 'KaiTi', serif" data-arrow-id="a1_in_msg">Message Write</text>
<text x="-14.0" y="217.0" font-size="20" text-anchor="end" font-weight="bold" fill="black" font-family="'Times New Roman', 'BiauKai', 'DFKai-SB', '標楷體', 'KaiTi', serif" data-arrow-id="a1_in_msg">Or Read Request</text>
<text x="1154.0" y="504.0" font-size="20" text-anchor="start" font-weight="bold" fill="black" font-family="'Times New Roman', 'BiauKai', 'DFKai-SB', '標楷體', 'KaiTi', serif" data-arrow-id="a1_integrity_event">session.storage.corrupted Bus Event</text>
<text x="1154.0" y="31.0" font-size="20" text-anchor="start" font-weight="bold" fill="black" font-family="'Times New Roman', 'BiauKai', 'DFKai-SB', '標楷體', 'KaiTi', serif" data-arrow-id="a1_out_persisted">Persisted Message</text>
<text x="1154.0" y="57.0" font-size="20" text-anchor="start" font-weight="bold" fill="black" font-family="'Times New Roman', 'BiauKai', 'DFKai-SB', '標楷體', 'KaiTi', serif" data-arrow-id="a1_out_persisted">Or Loaded Slice</text>
<text x="1154.0" y="164.3" font-size="20" text-anchor="start" font-weight="bold" fill="black" font-family="'Times New Roman', 'BiauKai', 'DFKai-SB', '標楷體', 'KaiTi', serif" data-arrow-id="a1_out_legacy_read">Loaded</text>
<text x="1154.0" y="190.3" font-size="20" text-anchor="start" font-weight="bold" fill="black" font-family="'Times New Roman', 'BiauKai', 'DFKai-SB', '標楷體', 'KaiTi', serif" data-arrow-id="a1_out_legacy_read">Legacy Slice</text>
<path d="M 380.0,350.5 L 380.6,351.0 L 381.2,351.4 L 381.9,351.9 L 382.5,352.3 L 383.1,352.6 L 383.8,353.0 L 384.4,353.3 L 385.0,353.5 L 385.6,353.7 L 386.2,353.9 L 386.9,354.0 L 387.5,354.0 L 388.1,354.0 L 388.8,353.9 L 389.4,353.7 L 390.0,353.5 L 390.6,353.3 L 391.2,353.0 L 391.9,352.6 L 392.5,352.3 L 393.1,351.9 L 393.8,351.4 L 394.4,351.0 L 395.0,350.5 L 395.6,350.1 L 396.2,349.6 L 396.9,349.2 L 397.5,348.8 L 398.1,348.4 L 398.8,348.0 L 399.4,347.7 L 400.0,347.5 L 400.6,347.3 L 401.2,347.1 L 401.9,347.0 L 402.5,347.0 L 403.1,347.0 L 403.8,347.1 L 404.4,347.3 L 405.0,347.5 L 405.6,347.7 L 406.2,348.0 L 406.9,348.4 L 407.5,348.8 L 408.1,349.2 L 408.8,349.6 L 409.4,350.1 L 410.0,350.5" stroke="red" stroke-width="0.8" fill="none" opacity="0.5" />
</svg>