<svg width="1754.3" height="940.0" viewBox="-281.1 -210.0 1754.3 940.0" xmlns="http://www.w3.org/2000/svg">
<defs>
<marker id="arrow" viewBox="0 0 10 10" refX="10" refY="5" markerWidth="6" markerHeight="6" orient="auto-start-reverse"><path d="M 0 0 L 10 5 L 0 10 z" fill="black" /></marker>
<marker id="call_arrow" viewBox="0 0 10 10" refX="10" refY="5" markerWidth="8" markerHeight="8" orient="auto-start-reverse"><path d="M 0 0 L 10 5 L 0 10 M 0 2 L 6 5 L 0 8" fill="none" stroke="black" stroke-width="1" /></marker>
</defs>
<rect x="-281.1" y="-210.0" width="1754.3" height="940.0" fill="white" />
<rect x="130.0" y="120.0" width="200.0" height="200.0" stroke="black" fill="white" stroke-width="1.5" data-id="A31" />
<text x="230.0" y="156.9" text-anchor="middle" font-size="22" font-weight="bold" font-family="'Times New Roman', 'BiauKai', 'DFKai-SB', '標楷體', 'KaiTi', serif" data-id="A31" >A31</text>
<text x="230.0" y="198.4" text-anchor="middle" font-size="24" font-weight="bold" font-family="'Times New Roman', 'BiauKai', 'DFKai-SB', '標楷體', 'KaiTi', serif" data-id="A31" >TRY</text>
<text x="230.0" y="243.4" text-anchor="middle" font-size="24" font-weight="bold" font-family="'Times New Roman', 'BiauKai', 'DFKai-SB', '標楷體', 'KaiTi', serif" data-id="A31" >NARRATIVE</text>
<text x="230.0" y="288.4" text-anchor="middle" font-size="24" font-weight="bold" font-family="'Times New Roman', 'BiauKai', 'DFKai-SB', '標楷體', 'KaiTi', serif" data-id="A31" >KIND</text>
<rect x="490.0" y="120.0" width="200.0" height="200.0" stroke="black" fill="white" stroke-width="1.5" data-id="A32" />
<text x="590.0" y="178.0" text-anchor="middle" font-size="23" font-weight="bold" font-family="'Times New Roman', 'BiauKai', 'DFKai-SB', '標楷體', 'KaiTi', serif" data-id="A32" >A32</text>
<text x="590.0" y="220.8" text-anchor="middle" font-size="25" font-weight="bold" font-family="'Times New Roman', 'BiauKai', 'DFKai-SB', '標楷體', 'KaiTi', serif" data-id="A32" >TRY REPLAY</text>
<text x="590.0" y="267.7" text-anchor="middle" font-size="25" font-weight="bold" font-family="'Times New Roman', 'BiauKai', 'DFKai-SB', '標楷體', 'KaiTi', serif" data-id="A32" >TAIL KIND</text>
<rect x="822.0" y="120.0" width="200.0" height="200.0" stroke="black" fill="white" stroke-width="1.5" data-id="A33" />
<text x="922.0" y="179.4" text-anchor="middle" font-size="22" font-weight="bold" font-family="'Times New Roman', 'BiauKai', 'DFKai-SB', '標楷體', 'KaiTi', serif" data-id="A33" >A33</text>
<text x="922.0" y="220.9" text-anchor="middle" font-size="24" font-weight="bold" font-family="'Times New Roman', 'BiauKai', 'DFKai-SB', '標楷體', 'KaiTi', serif" data-id="A33" >TRY LOW COST</text>
<text x="922.0" y="265.9" text-anchor="middle" font-size="24" font-weight="bold" font-family="'Times New Roman', 'BiauKai', 'DFKai-SB', '標楷體', 'KaiTi', serif" data-id="A33" >SERVER KIND</text>
<rect x="130.0" y="440.0" width="200.0" height="200.0" stroke="black" fill="white" stroke-width="1.5" data-id="A34" />
<text x="230.0" y="498.0" text-anchor="middle" font-size="23" font-weight="bold" font-family="'Times New Roman', 'BiauKai', 'DFKai-SB', '標楷體', 'KaiTi', serif" data-id="A34" >A34</text>
<text x="230.0" y="540.8" text-anchor="middle" font-size="25" font-weight="bold" font-family="'Times New Roman', 'BiauKai', 'DFKai-SB', '標楷體', 'KaiTi', serif" data-id="A34" >TRY LLM</text>
<text x="230.0" y="587.7" text-anchor="middle" font-size="25" font-weight="bold" font-family="'Times New Roman', 'BiauKai', 'DFKai-SB', '標楷體', 'KaiTi', serif" data-id="A34" >AGENT KIND</text>
<rect x="490.0" y="440.0" width="200.0" height="200.0" stroke="black" fill="white" stroke-width="1.5" data-id="A35" />
<text x="590.0" y="476.9" text-anchor="middle" font-size="22" font-weight="bold" font-family="'Times New Roman', 'BiauKai', 'DFKai-SB', '標楷體', 'KaiTi', serif" data-id="A35" >A35</text>
<text x="590.0" y="518.4" text-anchor="middle" font-size="24" font-weight="bold" font-family="'Times New Roman', 'BiauKai', 'DFKai-SB', '標楷體', 'KaiTi', serif" data-id="A35" >ESCALATE</text>
<text x="590.0" y="563.4" text-anchor="middle" font-size="24" font-weight="bold" font-family="'Times New Roman', 'BiauKai', 'DFKai-SB', '標楷體', 'KaiTi', serif" data-id="A35" >TRUNCATED</text>
<text x="590.0" y="608.4" text-anchor="middle" font-size="24" font-weight="bold" font-family="'Times New Roman', 'BiauKai', 'DFKai-SB', '標楷體', 'KaiTi', serif" data-id="A35" >LOCAL RESULT</text>
<rect x="822.0" y="440.0" width="200.0" height="200.0" stroke="black" fill="white" stroke-width="1.5" data-id="A36" />
<text x="922.0" y="476.9" text-anchor="middle" font-size="22" font-weight="bold" font-family="'Times New Roman', 'BiauKai', 'DFKai-SB', '標楷體', 'KaiTi', serif" data-id="A36" >A36</text>
<text x="922.0" y="518.4" text-anchor="middle" font-size="24" font-weight="bold" font-family="'Times New Roman', 'BiauKai', 'DFKai-SB', '標楷體', 'KaiTi', serif" data-id="A36" >ABORT</text>
<text x="922.0" y="563.4" text-anchor="middle" font-size="24" font-weight="bold" font-family="'Times New Roman', 'BiauKai', 'DFKai-SB', '標楷體', 'KaiTi', serif" data-id="A36" >ON CHAIN</text>
<text x="922.0" y="608.4" text-anchor="middle" font-size="24" font-weight="bold" font-family="'Times New Roman', 'BiauKai', 'DFKai-SB', '標楷體', 'KaiTi', serif" data-id="A36" >EXHAUSTION</text>
<rect x="80.0" y="0.0" width="1032.0" height="720.0" stroke="black" fill="none" stroke-width="2" />
<rect x="476.0" y="-200.0" width="240.0" height="110.0" stroke="black" fill="white" stroke-width="1.5" data-id="A3" />
<text x="596.0" y="-160.5" text-anchor="middle" font-size="17" font-weight="bold" font-family="'Times New Roman', 'BiauKai', 'DFKai-SB', '標楷體', 'KaiTi', serif" data-id="A3" >A3</text>
<text x="596.0" y="-126.2" text-anchor="middle" font-size="19" font-weight="bold" font-family="'Times New Roman', 'BiauKai', 'DFKai-SB', '標楷體', 'KaiTi', serif" data-id="A3" >EXECUTE KIND CHAIN</text>
<line x1="476.0" y1="-200.0" x2="80.0" y2="0.0" stroke="red" stroke-dasharray="5,5" stroke-width="1.0" opacity="0.6" />
<line x1="716.0" y1="-200.0" x2="1112.0" y2="0.0" stroke="red" stroke-dasharray="5,5" stroke-width="1.0" opacity="0.6" />
<line x1="476.0" y1="-90.0" x2="80.0" y2="720.0" stroke="red" stroke-dasharray="5,5" stroke-width="1.0" opacity="0.6" />
<line x1="716.0" y1="-90.0" x2="1112.0" y2="720.0" stroke="red" stroke-dasharray="5,5" stroke-width="1.0" opacity="0.6" />
<path d="M 330.0 600.0 L 490.0 600.0" stroke="black" stroke-width="1.2" data-arrow-id="a3_out_llm" data-waypoints="330.0,600.0 490.0,600.0" marker-end="url(#arrow)" fill="none" />
<path d="M 690.0 506.7 L 822.0 506.7" stroke="black" stroke-width="1.2" data-arrow-id="a3_in_exhausted" data-waypoints="690.0,506.7 822.0,506.7" marker-end="url(#arrow)" fill="none" />
<path d="M 330.0 220.0 L 360.0 220.0 Q 370.0 220.0 370.0 230.0 L 370.0 550.0 Q 370.0 560.0 380.0 560.0 L 490.0 560.0" stroke="black" stroke-width="1.2" data-arrow-id="a3_out_narrative" data-waypoints="330.0,220.0 370.0,220.0 370.0,560.0 490.0,560.0" marker-end="url(#arrow)" fill="none" />
<path d="M 1022.0 220.0 L 1052.0 220.0 Q 1062.0 220.0 1062.0 230.0 L 1062.0 350.0 Q 1062.0 360.0 1052.0 360.0 L 420.0 360.0 Q 410.0 360.0 410.0 370.0 L 410.0 510.0 Q 410.0 520.0 420.0 520.0 L 490.0 520.0" stroke="black" stroke-width="1.2" data-arrow-id="a3_out_lowcost" data-waypoints="1022.0,220.0 1062.0,220.0 1062.0,360.0 410.0,360.0 410.0,520.0 490.0,520.0" marker-end="url(#arrow)" fill="none" />
<path d="M 690.0 220.0 L 724.0 220.0 Q 734.0 220.0 734.0 230.0 L 734.0 390.0 Q 734.0 400.0 724.0 400.0 L 460.0 400.0 Q 450.0 400.0 450.0 410.0 L 450.0 470.0 Q 450.0 480.0 460.0 480.0 L 490.0 480.0" stroke="black" stroke-width="1.2" data-arrow-id="a3_out_replay" data-waypoints="690.0,220.0 734.0,220.0 734.0,400.0 450.0,400.0 450.0,480.0 490.0,480.0" marker-end="url(#arrow)" fill="none" />
<path d="M 30.0 186.7 L 130.0 186.7" stroke="black" stroke-width="1.2" data-arrow-id="a3_in_chain" data-waypoints="30.0,186.7 130.0,186.7" marker-end="url(#arrow)" fill="none" />
<path d="M 30.0 253.3 L 130.0 253.3" stroke="black" stroke-width="1.2" data-arrow-id="a3_in_memory" data-waypoints="30.0,253.3 130.0,253.3" marker-end="url(#arrow)" fill="none" />
<path d="M 230.0 84.2 L 230.0 120.0" stroke="black" stroke-width="1.2" data-arrow-id="a3_ctrl_target" data-waypoints="230.0,84.2 230.0,120.0" marker-end="url(#arrow)" fill="none" />
<path d="M 30.0 78.2 L 400.0 78.2 Q 410.0 78.2 410.0 88.2 L 410.0 210.0 Q 410.0 220.0 420.0 220.0 L 490.0 220.0" stroke="black" stroke-width="1.2" data-arrow-id="a3_in_tail" data-waypoints="30.0,78.2 410.0,78.2 410.0,220.0 490.0,220.0" marker-end="url(#arrow)" fill="none" />
<path d="M 30.0 40.0 L 768.0 40.0 Q 778.0 40.0 778.0 50.0 L 778.0 210.0 Q 778.0 220.0 788.0 220.0 L 822.0 220.0" stroke="black" stroke-width="1.2" data-arrow-id="a3_in_codex" data-waypoints="30.0,40.0 778.0,40.0 778.0,220.0 822.0,220.0" marker-end="url(#arrow)" fill="none" />
<path d="M 30.0 540.0 L 130.0 540.0" stroke="black" stroke-width="1.2" data-arrow-id="a3_in_llm_input" data-waypoints="30.0,540.0 130.0,540.0" marker-end="url(#arrow)" fill="none" />
<path d="M 690.0 573.3 L 724.0 573.3 Q 734.0 573.3 734.0 583.3 L 734.0 670.0 Q 734.0 680.0 744.0 680.0 L 1162.0 680.0" stroke="black" stroke-width="1.2" data-arrow-id="a3_out_winner" data-waypoints="690.0,573.3 734.0,573.3 734.0,680.0 1162.0,680.0" marker-end="url(#arrow)" fill="none" />
<path d="M 1022.0 540.0 L 1162.0 540.0" stroke="black" stroke-width="1.2" data-arrow-id="a3_out_abort" data-waypoints="1022.0,540.0 1162.0,540.0" marker-end="url(#arrow)" fill="none" />
<text x="224.0" y="114.0" font-size="14" text-anchor="end" font-weight="bold" fill="black" font-family="'Times New Roman', 'BiauKai', 'DFKai-SB', '標楷體', 'KaiTi', serif" data-arrow-id="a3_ctrl_target">Target</text>
<text x="236.0" y="114.0" font-size="14" text-anchor="start" font-weight="bold" fill="black" font-family="'Times New Roman', 'BiauKai', 'DFKai-SB', '標楷體', 'KaiTi', serif" data-arrow-id="a3_ctrl_target">Prompt Tokens</text>
<text x="410.0" y="595.0" font-size="14" font-weight="bold" fill="black" text-anchor="middle" font-family="'Times New Roman', 'BiauKai', 'DFKai-SB', '標楷體', 'KaiTi', serif" data-arrow-id="a3_out_llm">LLM Agent</text>
<text x="410.0" y="612.0" font-size="14" font-weight="bold" fill="black" text-anchor="middle" font-family="'Times New Roman', 'BiauKai', 'DFKai-SB', '標楷體', 'KaiTi', serif" data-arrow-id="a3_out_llm">Attempt Result</text>
<text x="756.0" y="501.7" font-size="14" font-weight="bold" fill="black" text-anchor="middle" font-family="'Times New Roman', 'BiauKai', 'DFKai-SB', '標楷體', 'KaiTi', serif" data-arrow-id="a3_in_exhausted">Chain</text>
<text x="756.0" y="518.7" font-size="14" font-weight="bold" fill="black" text-anchor="middle" font-family="'Times New Roman', 'BiauKai', 'DFKai-SB', '標楷體', 'KaiTi', serif" data-arrow-id="a3_in_exhausted">Exhausted Flag</text>
<text x="340.0" y="397.0" font-size="14" font-weight="bold" fill="black" text-anchor="end" font-family="'Times New Roman', 'BiauKai', 'DFKai-SB', '標楷體', 'KaiTi', serif" data-arrow-id="a3_out_narrative" >Narrative Attempt Result</text>
<text x="596.0" y="378.0" font-size="14" font-weight="bold" fill="black" text-anchor="middle" font-family="'Times New Roman', 'BiauKai', 'DFKai-SB', '標楷體', 'KaiTi', serif" data-arrow-id="a3_out_lowcost" >Low Cost Server Attempt Result</text>
<text x="596.0" y="418.0" font-size="14" font-weight="bold" fill="black" text-anchor="middle" font-family="'Times New Roman', 'BiauKai', 'DFKai-SB', '標楷體', 'KaiTi', serif" data-arrow-id="a3_out_replay" >Replay Tail Attempt Result</text>
<text x="26.0" y="190.7" font-size="20" text-anchor="end" font-weight="bold" fill="black" font-family="'Times New Roman', 'BiauKai', 'DFKai-SB', '標楷體', 'KaiTi', serif" data-arrow-id="a3_in_chain">Kind Chain</text>
<text x="26.0" y="257.3" font-size="20" text-anchor="end" font-weight="bold" fill="black" font-family="'Times New Roman', 'BiauKai', 'DFKai-SB', '標楷體', 'KaiTi', serif" data-arrow-id="a3_in_memory">Turn Summary Store</text>
<text x="26.0" y="69.2" font-size="20" text-anchor="end" font-weight="bold" fill="black" font-family="'Times New Roman', 'BiauKai', 'DFKai-SB', '標楷體', 'KaiTi', serif" data-arrow-id="a3_in_tail">Conversation</text>
<text x="26.0" y="95.2" font-size="20" text-anchor="end" font-weight="bold" fill="black" font-family="'Times New Roman', 'BiauKai', 'DFKai-SB', '標楷體', 'KaiTi', serif" data-arrow-id="a3_in_tail">Tail Snapshot</text>
<text x="26.0" y="44.0" font-size="20" text-anchor="end" font-weight="bold" fill="black" font-family="'Times New Roman', 'BiauKai', 'DFKai-SB', '標楷體', 'KaiTi', serif" data-arrow-id="a3_in_codex">Codex Previous Response Id</text>
<text x="26.0" y="531.0" font-size="20" text-anchor="end" font-weight="bold" fill="black" font-family="'Times New Roman', 'BiauKai', 'DFKai-SB', '標楷體', 'KaiTi', serif" data-arrow-id="a3_in_llm_input">Subagent</text>
<text x="26.0" y="557.0" font-size="20" text-anchor="end" font-weight="bold" fill="black" font-family="'Times New Roman', 'BiauKai', 'DFKai-SB', '標楷體', 'KaiTi', serif" data-arrow-id="a3_in_llm_input">Prompt Bundle</text>
<text x="1166.0" y="671.0" font-size="20" text-anchor="start" font-weight="bold" fill="black" font-family="'Times New Roman', 'BiauKai', 'DFKai-SB', '標楷體', 'KaiTi', serif" data-arrow-id="a3_out_winner">Summary Text Or</text>
<text x="1166.0" y="697.0" font-size="20" text-anchor="start" font-weight="bold" fill="black" font-family="'Times New Roman', 'BiauKai', 'DFKai-SB', '標楷體', 'KaiTi', serif" data-arrow-id="a3_out_winner">Inline Anchor</text>
<text x="1166.0" y="544.0" font-size="20" text-anchor="start" font-weight="bold" fill="black" font-family="'Times New Roman', 'BiauKai', 'DFKai-SB', '標楷體', 'KaiTi', serif" data-arrow-id="a3_out_abort">Stop Result</text>
<path d="M 340.0,392.8 L 340.6,393.3 L 341.2,393.7 L 341.9,394.1 L 342.5,394.5 L 343.1,394.9 L 343.8,395.3 L 344.4,395.6 L 345.0,395.8 L 345.6,396.0 L 346.2,396.2 L 346.9,396.3 L 347.5,396.3 L 348.1,396.3 L 348.8,396.2 L 349.4,396.0 L 350.0,395.8 L 350.6,395.6 L 351.2,395.3 L 351.9,394.9 L 352.5,394.5 L 353.1,394.1 L 353.8,393.7 L 354.4,393.3 L 355.0,392.8 L 355.6,392.3 L 356.2,391.9 L 356.9,391.5 L 357.5,391.1 L 358.1,390.7 L 358.8,390.3 L 359.4,390.0 L 360.0,389.8 L 360.6,389.6 L 361.2,389.4 L 361.9,389.3 L 362.5,389.3 L 363.1,389.3 L 363.8,389.4 L 364.4,389.6 L 365.0,389.8 L 365.6,390.0 L 366.2,390.3 L 366.9,390.7 L 367.5,391.1 L 368.1,391.5 L 368.8,391.9 L 369.4,392.3 L 370.0,392.8" stroke="red" stroke-width="0.8" fill="none" opacity="0.5" />
</svg>