<svg width="2280" height="1540" viewBox="-760.0 -40.0 2280.0 1540.0" xmlns="http://www.w3.org/2000/svg">
<defs><marker id="arrow" viewBox="0 0 10 10" refX="10" refY="5" markerWidth="6" markerHeight="6" orient="auto-start-reverse"><path d="M 0 0 L 10 5 L 0 10 z" fill="black" /></marker></defs>
<rect x="-760.0" y="-40.0" width="2280.0" height="1540.0" fill="white" />
<rect x="360.0" y="80.0" width="80" height="60" stroke="black" stroke-width="1.5" fill="white" />
<rect x="365.0" y="85.0" width="70.0" height="50.0" stroke="black" stroke-width="1" fill="none" />
<text x="400" y="115.0" text-anchor="middle" font-family="'Times New Roman', 'BiauKai', 'DFKai-SB', '標楷體', 'KaiTi', serif" font-weight="bold" font-size="14">0</text>
<line x1="440" y1="110.0" x2="480.0" y2="110.0" stroke="black" />
<rect x="480.0" y="64.0" width="160.0" height="92.0" stroke="black" stroke-width="1.2" fill="white" />
<text x="560.0" y="102.0" text-anchor="middle" font-family="'Times New Roman', 'BiauKai', 'DFKai-SB', '標楷體', 'KaiTi', serif" font-size="11">no_spec_</text>
<text x="560.0" y="126.00000000000001" text-anchor="middle" font-family="'Times New Roman', 'BiauKai', 'DFKai-SB', '標楷體', 'KaiTi', serif" font-size="11">in_flight</text>
<line x1="400" y1="140.0" x2="400" y2="220" stroke="black" />
<line x1="380" y1="180.0" x2="420" y2="180.0" stroke="black" stroke-width="2" />
<text x="424.0" y="184.0" font-style="italic" font-size="11" text-anchor="start" font-family="'Times New Roman', 'BiauKai', 'DFKai-SB', '標楷體', 'KaiTi', serif">plan_init_invoked_for_new_slug_OR_legacy_plans_touched</text>
<rect x="360.0" y="220.0" width="80" height="60" stroke="black" stroke-width="1.5" fill="white" />
<text x="400" y="255.0" text-anchor="middle" font-family="'Times New Roman', 'BiauKai', 'DFKai-SB', '標楷體', 'KaiTi', serif" font-weight="bold" font-size="14">1</text>
<line x1="440" y1="250.0" x2="480.0" y2="250.0" stroke="black" />
<rect x="480.0" y="204.0" width="160.0" height="92.0" stroke="black" stroke-width="1.2" fill="white" />
<text x="560.0" y="242.0" text-anchor="middle" font-family="'Times New Roman', 'BiauKai', 'DFKai-SB', '標楷體', 'KaiTi', serif" font-size="11">propose_</text>
<text x="560.0" y="266.0" text-anchor="middle" font-family="'Times New Roman', 'BiauKai', 'DFKai-SB', '標楷體', 'KaiTi', serif" font-size="11">state</text>
<line x1="400" y1="280.0" x2="400" y2="360" stroke="black" />
<line x1="380" y1="320.0" x2="420" y2="320.0" stroke="black" stroke-width="2" />
<text x="424.0" y="324.0" font-style="italic" font-size="11" text-anchor="start" font-family="'Times New Roman', 'BiauKai', 'DFKai-SB', '標楷體', 'KaiTi', serif">proposal_md_AND_state_json_written_state==proposed</text>
<rect x="360.0" y="360.0" width="80" height="60" stroke="black" stroke-width="1.5" fill="white" />
<text x="400" y="395.0" text-anchor="middle" font-family="'Times New Roman', 'BiauKai', 'DFKai-SB', '標楷體', 'KaiTi', serif" font-weight="bold" font-size="14">2</text>
<line x1="440" y1="390.0" x2="480.0" y2="390.0" stroke="black" />
<rect x="480.0" y="344.0" width="160.0" height="92.0" stroke="black" stroke-width="1.2" fill="white" />
<text x="560.0" y="382.0" text-anchor="middle" font-family="'Times New Roman', 'BiauKai', 'DFKai-SB', '標楷體', 'KaiTi', serif" font-size="11">design_</text>
<text x="560.0" y="405.99999999999994" text-anchor="middle" font-family="'Times New Roman', 'BiauKai', 'DFKai-SB', '標楷體', 'KaiTi', serif" font-size="11">state</text>
<line x1="400" y1="420.0" x2="400" y2="500" stroke="black" />
<line x1="380" y1="460.0" x2="420" y2="460.0" stroke="black" stroke-width="2" />
<text x="424.0" y="464.0" font-style="italic" font-size="11" text-anchor="start" font-family="'Times New Roman', 'BiauKai', 'DFKai-SB', '標楷體', 'KaiTi', serif">spec_md_design_md_idef0_grafcet_c4_sequence_data_schema_present_AND_validate_passes</text>
<rect x="360.0" y="500.0" width="80" height="60" stroke="black" stroke-width="1.5" fill="white" />
<text x="400" y="535.0" text-anchor="middle" font-family="'Times New Roman', 'BiauKai', 'DFKai-SB', '標楷體', 'KaiTi', serif" font-weight="bold" font-size="14">3</text>
<line x1="440" y1="530.0" x2="480.0" y2="530.0" stroke="black" />
<rect x="480.0" y="484.0" width="160.0" height="92.0" stroke="black" stroke-width="1.2" fill="white" />
<text x="560.0" y="522.0" text-anchor="middle" font-family="'Times New Roman', 'BiauKai', 'DFKai-SB', '標楷體', 'KaiTi', serif" font-size="11">plan_</text>
<text x="560.0" y="546.0" text-anchor="middle" font-family="'Times New Roman', 'BiauKai', 'DFKai-SB', '標楷體', 'KaiTi', serif" font-size="11">state</text>
<line x1="400" y1="560.0" x2="400" y2="640" stroke="black" />
<line x1="380" y1="600.0" x2="420" y2="600.0" stroke="black" stroke-width="2" />
<text x="424.0" y="604.0" font-style="italic" font-size="11" text-anchor="start" font-family="'Times New Roman', 'BiauKai', 'DFKai-SB', '標楷體', 'KaiTi', serif">tasks_md_handoff_md_test_vectors_errors_observability_present</text>
<rect x="360.0" y="640.0" width="80" height="60" stroke="black" stroke-width="1.5" fill="white" />
<text x="400" y="675.0" text-anchor="middle" font-family="'Times New Roman', 'BiauKai', 'DFKai-SB', '標楷體', 'KaiTi', serif" font-weight="bold" font-size="14">4</text>
<line x1="440" y1="670.0" x2="480.0" y2="670.0" stroke="black" />
<rect x="480.0" y="624.0" width="160.0" height="92.0" stroke="black" stroke-width="1.2" fill="white" />
<text x="560.0" y="662.0" text-anchor="middle" font-family="'Times New Roman', 'BiauKai', 'DFKai-SB', '標楷體', 'KaiTi', serif" font-size="11">implement_</text>
<text x="560.0" y="686.0" text-anchor="middle" font-family="'Times New Roman', 'BiauKai', 'DFKai-SB', '標楷體', 'KaiTi', serif" font-size="11">state</text>
<line x1="400" y1="700" x2="400" y2="740" stroke="black" />
<line x1="160.0" y1="740" x2="1240.0" y2="740" stroke="black" stroke-width="1.5" />
<line x1="200.0" y1="740" x2="200.0" y2="780" stroke="black" />
<line x1="180.0" y1="780" x2="220.0" y2="780" stroke="black" stroke-width="2" />
<text x="176.0" y="784" font-style="italic" font-size="11" text-anchor="end" font-family="'Times New Roman', 'BiauKai', 'DFKai-SB', '標楷體', 'KaiTi', serif">all_tasks_checked_AND_sync_clean</text>
<line x1="200.0" y1="780" x2="200.0" y2="820" stroke="black" marker-end="url(#arrow)" />
<line x1="1200.0" y1="740" x2="1200.0" y2="780" stroke="black" />
<line x1="1180.0" y1="780" x2="1220.0" y2="780" stroke="black" stroke-width="2" />
<text x="1224.0" y="784" font-style="italic" font-size="11" text-anchor="start" font-family="'Times New Roman', 'BiauKai', 'DFKai-SB', '標楷體', 'KaiTi', serif">plan_abandoned_or_refactor_requested</text>
<line x1="1200.0" y1="780" x2="1200.0" y2="820" stroke="black" marker-end="url(#arrow)" />
<rect x="160.0" y="820.0" width="80" height="60" stroke="black" stroke-width="1.5" fill="white" />
<text x="200.0" y="855.0" text-anchor="middle" font-family="'Times New Roman', 'BiauKai', 'DFKai-SB', '標楷體', 'KaiTi', serif" font-weight="bold" font-size="14">5</text>
<line x1="240.0" y1="850.0" x2="280.0" y2="850.0" stroke="black" />
<rect x="280.0" y="804.0" width="160.0" height="92.0" stroke="black" stroke-width="1.2" fill="white" />
<text x="360.0" y="842.0" text-anchor="middle" font-family="'Times New Roman', 'BiauKai', 'DFKai-SB', '標楷體', 'KaiTi', serif" font-size="11">verify_</text>
<text x="360.0" y="866.0" text-anchor="middle" font-family="'Times New Roman', 'BiauKai', 'DFKai-SB', '標楷體', 'KaiTi', serif" font-size="11">state</text>
<line x1="200.0" y1="880.0" x2="200.0" y2="960" stroke="black" />
<line x1="180.0" y1="920.0" x2="220.0" y2="920.0" stroke="black" stroke-width="2" />
<text x="224.0" y="924.0" font-style="italic" font-size="11" text-anchor="start" font-family="'Times New Roman', 'BiauKai', 'DFKai-SB', '標楷體', 'KaiTi', serif">validation_evidence_attached_AND_tests_pass</text>
<rect x="160.0" y="960.0" width="80" height="60" stroke="black" stroke-width="1.5" fill="white" />
<text x="200.0" y="995.0" text-anchor="middle" font-family="'Times New Roman', 'BiauKai', 'DFKai-SB', '標楷體', 'KaiTi', serif" font-weight="bold" font-size="14">6</text>
<line x1="240.0" y1="990.0" x2="280.0" y2="990.0" stroke="black" />
<rect x="280.0" y="944.0" width="160.0" height="92.0" stroke="black" stroke-width="1.2" fill="white" />
<text x="360.0" y="970.0" text-anchor="middle" font-family="'Times New Roman', 'BiauKai', 'DFKai-SB', '標楷體', 'KaiTi', serif" font-size="11">live_state_</text>
<text x="360.0" y="994.0" text-anchor="middle" font-family="'Times New Roman', 'BiauKai', 'DFKai-SB', '標楷體', 'KaiTi', serif" font-size="11">sync_</text>
<text x="360.0" y="1017.9999999999999" text-anchor="middle" font-family="'Times New Roman', 'BiauKai', 'DFKai-SB', '標楷體', 'KaiTi', serif" font-size="11">checkpoint</text>
<line x1="200.0" y1="1020" x2="200.0" y2="1060" stroke="black" />
<line x1="-440.0" y1="1060" x2="840.0" y2="1060" stroke="black" stroke-width="1.5" />
<line x1="-400.0" y1="1060" x2="-400.0" y2="1100" stroke="black" />
<line x1="-420.0" y1="1100" x2="-380.0" y2="1100" stroke="black" stroke-width="2" />
<text x="-424.0" y="1104" font-style="italic" font-size="11" text-anchor="end" font-family="'Times New Roman', 'BiauKai', 'DFKai-SB', '標楷體', 'KaiTi', serif">mode==amend</text>
<line x1="-400.0" y1="1100" x2="-400.0" y2="1140" stroke="black" marker-end="url(#arrow)" />
<line x1="0.0" y1="1060" x2="0.0" y2="1100" stroke="black" />
<line x1="-20.0" y1="1100" x2="20.0" y2="1100" stroke="black" stroke-width="2" />
<text x="-24.0" y="1104" font-style="italic" font-size="11" text-anchor="end" font-family="'Times New Roman', 'BiauKai', 'DFKai-SB', '標楷體', 'KaiTi', serif">mode==revise_or_extend</text>
<line x1="0.0" y1="1100" x2="0.0" y2="1140" stroke="black" marker-end="url(#arrow)" />
<line x1="400.0" y1="1060" x2="400.0" y2="1100" stroke="black" />
<line x1="380.0" y1="1100" x2="420.0" y2="1100" stroke="black" stroke-width="2" />
<text x="424.0" y="1104" font-style="italic" font-size="11" text-anchor="start" font-family="'Times New Roman', 'BiauKai', 'DFKai-SB', '標楷體', 'KaiTi', serif">mode==refactor</text>
<line x1="400.0" y1="1100" x2="400.0" y2="1140" stroke="black" marker-end="url(#arrow)" />
<line x1="800.0" y1="1060" x2="800.0" y2="1100" stroke="black" />
<line x1="780.0" y1="1100" x2="820.0" y2="1100" stroke="black" stroke-width="2" />
<text x="824.0" y="1104" font-style="italic" font-size="11" text-anchor="start" font-family="'Times New Roman', 'BiauKai', 'DFKai-SB', '標楷體', 'KaiTi', serif">mode==archive</text>
<line x1="800.0" y1="1100" x2="800.0" y2="1140" stroke="black" marker-end="url(#arrow)" />
<rect x="-440.0" y="1140.0" width="80" height="60" stroke="black" stroke-width="1.5" fill="white" />
<text x="-400.0" y="1175.0" text-anchor="middle" font-family="'Times New Roman', 'BiauKai', 'DFKai-SB', '標楷體', 'KaiTi', serif" font-weight="bold" font-size="14">7</text>
<line x1="-360.0" y1="1170.0" x2="-320.0" y2="1170.0" stroke="black" />
<rect x="-320.0" y="1124.0" width="160.0" height="92.0" stroke="black" stroke-width="1.2" fill="white" />
<text x="-240.0" y="1150.0" text-anchor="middle" font-family="'Times New Roman', 'BiauKai', 'DFKai-SB', '標楷體', 'KaiTi', serif" font-size="11">amend_</text>
<text x="-240.0" y="1174.0" text-anchor="middle" font-family="'Times New Roman', 'BiauKai', 'DFKai-SB', '標楷體', 'KaiTi', serif" font-size="11">inline_</text>
<text x="-240.0" y="1198.0" text-anchor="middle" font-family="'Times New Roman', 'BiauKai', 'DFKai-SB', '標楷體', 'KaiTi', serif" font-size="11">delta</text>
<line x1="-400.0" y1="1200.0" x2="-400.0" y2="1280" stroke="black" />
<line x1="-420.0" y1="1240.0" x2="-380.0" y2="1240.0" stroke="black" stroke-width="2" />
<text x="-376.0" y="1244.0" font-style="italic" font-size="11" text-anchor="start" font-family="'Times New Roman', 'BiauKai', 'DFKai-SB', '標楷體', 'KaiTi', serif">inline_delta_marker_added_AND_state_remains_living</text>
<rect x="-440.0" y="1280.0" width="80" height="60" stroke="black" stroke-width="1.5" fill="white" />
<text x="-400.0" y="1315.0" text-anchor="middle" font-family="'Times New Roman', 'BiauKai', 'DFKai-SB', '標楷體', 'KaiTi', serif" font-weight="bold" font-size="14">11</text>
<line x1="-360.0" y1="1310.0" x2="-320.0" y2="1310.0" stroke="black" />
<rect x="-320.0" y="1264.0" width="160.0" height="92.0" stroke="black" stroke-width="1.2" fill="white" />
<text x="-240.0" y="1290.0" text-anchor="middle" font-family="'Times New Roman', 'BiauKai', 'DFKai-SB', '標楷體', 'KaiTi', serif" font-size="11">spec_</text>
<text x="-240.0" y="1314.0" text-anchor="middle" font-family="'Times New Roman', 'BiauKai', 'DFKai-SB', '標楷體', 'KaiTi', serif" font-size="11">at_</text>
<text x="-240.0" y="1338.0" text-anchor="middle" font-family="'Times New Roman', 'BiauKai', 'DFKai-SB', '標楷體', 'KaiTi', serif" font-size="11">rest</text>
<line x1="-400.0" y1="1340.0" x2="-400.0" y2="1420" stroke="black" />
<line x1="-420.0" y1="1380.0" x2="-380.0" y2="1380.0" stroke="black" stroke-width="2" />
<text x="-376.0" y="1384.0" font-style="italic" font-size="11" text-anchor="start" font-family="'Times New Roman', 'BiauKai', 'DFKai-SB', '標楷體', 'KaiTi', serif">1</text>
<rect x="-40.0" y="1140.0" width="80" height="60" stroke="black" stroke-width="1.5" fill="white" />
<text x="0.0" y="1175.0" text-anchor="middle" font-family="'Times New Roman', 'BiauKai', 'DFKai-SB', '標楷體', 'KaiTi', serif" font-weight="bold" font-size="14">8</text>
<line x1="40.0" y1="1170.0" x2="80.0" y2="1170.0" stroke="black" />
<rect x="80.0" y="1124.0" width="160.0" height="92.0" stroke="black" stroke-width="1.2" fill="white" />
<text x="160.0" y="1150.0" text-anchor="middle" font-family="'Times New Roman', 'BiauKai', 'DFKai-SB', '標楷體', 'KaiTi', serif" font-size="11">revise_or_</text>
<text x="160.0" y="1174.0" text-anchor="middle" font-family="'Times New Roman', 'BiauKai', 'DFKai-SB', '標楷體', 'KaiTi', serif" font-size="11">extend_back_</text>
<text x="160.0" y="1198.0" text-anchor="middle" font-family="'Times New Roman', 'BiauKai', 'DFKai-SB', '標楷體', 'KaiTi', serif" font-size="11">to_designed</text>
<line x1="0.0" y1="1200.0" x2="0.0" y2="1280" stroke="black" />
<line x1="-20.0" y1="1240.0" x2="20.0" y2="1240.0" stroke="black" stroke-width="2" />
<text x="24.0" y="1244.0" font-style="italic" font-size="11" text-anchor="start" font-family="'Times New Roman', 'BiauKai', 'DFKai-SB', '標楷體', 'KaiTi', serif">state_set_designed_AND_revise_or_extend_history_entry_appended</text>
<rect x="360.0" y="1140.0" width="80" height="60" stroke="black" stroke-width="1.5" fill="white" />
<text x="400.0" y="1175.0" text-anchor="middle" font-family="'Times New Roman', 'BiauKai', 'DFKai-SB', '標楷體', 'KaiTi', serif" font-weight="bold" font-size="14">9</text>
<line x1="440.0" y1="1170.0" x2="480.0" y2="1170.0" stroke="black" />
<rect x="480.0" y="1124.0" width="160.0" height="92.0" stroke="black" stroke-width="1.2" fill="white" />
<text x="560.0" y="1150.0" text-anchor="middle" font-family="'Times New Roman', 'BiauKai', 'DFKai-SB', '標楷體', 'KaiTi', serif" font-size="11">refactor_</text>
<text x="560.0" y="1174.0" text-anchor="middle" font-family="'Times New Roman', 'BiauKai', 'DFKai-SB', '標楷體', 'KaiTi', serif" font-size="11">snapshot_</text>
<text x="560.0" y="1198.0" text-anchor="middle" font-family="'Times New Roman', 'BiauKai', 'DFKai-SB', '標楷體', 'KaiTi', serif" font-size="11">and_reset</text>
<line x1="400.0" y1="1200.0" x2="400.0" y2="1280" stroke="black" />
<line x1="380.0" y1="1240.0" x2="420.0" y2="1240.0" stroke="black" stroke-width="2" />
<text x="424.0" y="1244.0" font-style="italic" font-size="11" text-anchor="start" font-family="'Times New Roman', 'BiauKai', 'DFKai-SB', '標楷體', 'KaiTi', serif">history_refactor_YYYY_MM_DD_created_AND_artifacts_reset_to_proposed_skeleton</text>
<rect x="760.0" y="1140.0" width="80" height="60" stroke="black" stroke-width="1.5" fill="white" />
<text x="800.0" y="1175.0" text-anchor="middle" font-family="'Times New Roman', 'BiauKai', 'DFKai-SB', '標楷體', 'KaiTi', serif" font-weight="bold" font-size="14">10</text>
<line x1="840.0" y1="1170.0" x2="880.0" y2="1170.0" stroke="black" />
<rect x="880.0" y="1124.0" width="160.0" height="92.0" stroke="black" stroke-width="1.2" fill="white" />
<text x="960.0" y="1162.0" text-anchor="middle" font-family="'Times New Roman', 'BiauKai', 'DFKai-SB', '標楷體', 'KaiTi', serif" font-size="11">archive_</text>
<text x="960.0" y="1186.0" text-anchor="middle" font-family="'Times New Roman', 'BiauKai', 'DFKai-SB', '標楷體', 'KaiTi', serif" font-size="11">state</text>
<line x1="800.0" y1="1200.0" x2="800.0" y2="1280" stroke="black" />
<line x1="780.0" y1="1240.0" x2="820.0" y2="1240.0" stroke="black" stroke-width="2" />
<text x="824.0" y="1244.0" font-style="italic" font-size="11" text-anchor="start" font-family="'Times New Roman', 'BiauKai', 'DFKai-SB', '標楷體', 'KaiTi', serif">state_set_archived_AND_optional_move_to_archive_folder_done</text>
<rect x="1160.0" y="820.0" width="80" height="60" stroke="black" stroke-width="1.5" fill="white" />
<text x="1200.0" y="855.0" text-anchor="middle" font-family="'Times New Roman', 'BiauKai', 'DFKai-SB', '標楷體', 'KaiTi', serif" font-weight="bold" font-size="14">12</text>
<line x1="1240.0" y1="850.0" x2="1280.0" y2="850.0" stroke="black" />
<rect x="1280.0" y="804.0" width="160.0" height="92.0" stroke="black" stroke-width="1.2" fill="white" />
<text x="1360.0" y="830.0" text-anchor="middle" font-family="'Times New Roman', 'BiauKai', 'DFKai-SB', '標楷體', 'KaiTi', serif" font-size="11">abandon_</text>
<text x="1360.0" y="854.0" text-anchor="middle" font-family="'Times New Roman', 'BiauKai', 'DFKai-SB', '標楷體', 'KaiTi', serif" font-size="11">or_</text>
<text x="1360.0" y="877.9999999999999" text-anchor="middle" font-family="'Times New Roman', 'BiauKai', 'DFKai-SB', '標楷體', 'KaiTi', serif" font-size="11">rollback</text>
<line x1="1200.0" y1="880.0" x2="1200.0" y2="960" stroke="black" />
<line x1="1180.0" y1="920.0" x2="1220.0" y2="920.0" stroke="black" stroke-width="2" />
<text x="1224.0" y="924.0" font-style="italic" font-size="11" text-anchor="start" font-family="'Times New Roman', 'BiauKai', 'DFKai-SB', '標楷體', 'KaiTi', serif">plan_rollback_refactor_or_explicit_abandon_recorded_in_history</text>
<line x1="-400.0" y1="1420" x2="-400.0" y2="1420.0" stroke="black" />
<line x1="-400.0" y1="1420.0" x2="-680.0" y2="1420.0" stroke="black" />
<line x1="-680.0" y1="1420.0" x2="-680.0" y2="40.0" stroke="black" />
<line x1="-680.0" y1="40.0" x2="400" y2="40.0" stroke="black" />
<line x1="400" y1="40.0" x2="400" y2="80.0" stroke="black" marker-end="url(#arrow)" />
<line x1="0.0" y1="1280" x2="0.0" y2="1300.0" stroke="black" />
<line x1="0.0" y1="1300.0" x2="-520.0" y2="1300.0" stroke="black" />
<line x1="-520.0" y1="1300.0" x2="-520.0" y2="346.0" stroke="black" />
<line x1="-520.0" y1="346.0" x2="400" y2="346.0" stroke="black" marker-end="url(#arrow)" />
<line x1="400.0" y1="1280" x2="400.0" y2="1320.0" stroke="black" />
<line x1="400.0" y1="1320.0" x2="-600.0" y2="1320.0" stroke="black" />
<line x1="-600.0" y1="1320.0" x2="-600.0" y2="206.0" stroke="black" />
<line x1="-600.0" y1="206.0" x2="400" y2="206.0" stroke="black" marker-end="url(#arrow)" />
<line x1="800.0" y1="1280" x2="800.0" y2="1280" stroke="black" />
<line x1="800.0" y1="1280" x2="800.0" y2="1280" stroke="black" />
<line x1="800.0" y1="1280" x2="800.0" y2="1260.0" stroke="black" />
<line x1="800.0" y1="1260.0" x2="-400.0" y2="1260.0" stroke="black" />
<line x1="-400.0" y1="1260.0" x2="-400.0" y2="1280.0" stroke="black" marker-end="url(#arrow)" />
<line x1="1200.0" y1="960" x2="1200.0" y2="960" stroke="black" />
<line x1="1200.0" y1="960" x2="1200.0" y2="960" stroke="black" />
<line x1="1200.0" y1="960" x2="1200.0" y2="1260.0" stroke="black" />
<line x1="1200.0" y1="1260.0" x2="-400.0" y2="1260.0" stroke="black" />
<line x1="-400.0" y1="1260.0" x2="-400.0" y2="1280.0" stroke="black" marker-end="url(#arrow)" />
</svg>