<svg width="1936.6" height="825.8" viewBox="-538.3 -165.8 1936.6 825.8" xmlns="http://www.w3.org/2000/svg">
<defs>
<marker id="arrow" viewBox="0 0 10 10" refX="10" refY="5" markerWidth="6" markerHeight="6" orient="auto-start-reverse"><path d="M 0 0 L 10 5 L 0 10 z" fill="black" /></marker>
<marker id="call_arrow" viewBox="0 0 10 10" refX="10" refY="5" markerWidth="8" markerHeight="8" orient="auto-start-reverse"><path d="M 0 0 L 10 5 L 0 10 M 0 2 L 6 5 L 0 8" fill="none" stroke="black" stroke-width="1" /></marker>
</defs>
<rect x="-538.3" y="-165.8" width="1936.6" height="825.8" fill="white" />
<rect x="130.0" y="120.0" width="200.0" height="160.0" stroke="black" fill="white" stroke-width="1.5" data-id="A11" />
<text x="230.0" y="160.9" text-anchor="middle" font-size="21" font-weight="bold" font-family="'Times New Roman', 'BiauKai', 'DFKai-SB', '標楷體', 'KaiTi', serif" data-id="A11" >A11</text>
<text x="230.0" y="200.9" text-anchor="middle" font-size="23" font-weight="bold" font-family="'Times New Roman', 'BiauKai', 'DFKai-SB', '標楷體', 'KaiTi', serif" data-id="A11" >READ MCP</text>
<text x="230.0" y="244.0" text-anchor="middle" font-size="23" font-weight="bold" font-family="'Times New Roman', 'BiauKai', 'DFKai-SB', '標楷體', 'KaiTi', serif" data-id="A11" >JSON FILE</text>
<rect x="530.0" y="120.0" width="200.0" height="160.0" stroke="black" fill="white" stroke-width="1.5" data-id="A12" />
<text x="630.0" y="168.1" text-anchor="middle" font-size="16" font-weight="bold" font-family="'Times New Roman', 'BiauKai', 'DFKai-SB', '標楷體', 'KaiTi', serif" data-id="A12" >A12</text>
<text x="630.0" y="201.0" text-anchor="middle" font-size="18" font-weight="bold" font-family="'Times New Roman', 'BiauKai', 'DFKai-SB', '標楷體', 'KaiTi', serif" data-id="A12" >VALIDATE AGAINST</text>
<text x="630.0" y="234.7" text-anchor="middle" font-size="18" font-weight="bold" font-family="'Times New Roman', 'BiauKai', 'DFKai-SB', '標楷體', 'KaiTi', serif" data-id="A12" >MANIFEST SCHEMA</text>
<rect x="130.0" y="450.0" width="200.0" height="160.0" stroke="black" fill="white" stroke-width="1.5" data-id="A13" />
<text x="230.0" y="498.1" text-anchor="middle" font-size="16" font-weight="bold" font-family="'Times New Roman', 'BiauKai', 'DFKai-SB', '標楷體', 'KaiTi', serif" data-id="A13" >A13</text>
<text x="230.0" y="531.0" text-anchor="middle" font-size="18" font-weight="bold" font-family="'Times New Roman', 'BiauKai', 'DFKai-SB', '標楷體', 'KaiTi', serif" data-id="A13" >INFER MANIFEST</text>
<text x="230.0" y="564.7" text-anchor="middle" font-size="18" font-weight="bold" font-family="'Times New Roman', 'BiauKai', 'DFKai-SB', '標楷體', 'KaiTi', serif" data-id="A13" >FROM SOURCE TREE</text>
<rect x="530.0" y="450.0" width="200.0" height="160.0" stroke="black" fill="white" stroke-width="1.5" data-id="A14" />
<text x="630.0" y="495.2" text-anchor="middle" font-size="18" font-weight="bold" font-family="'Times New Roman', 'BiauKai', 'DFKai-SB', '標楷體', 'KaiTi', serif" data-id="A14" >A14</text>
<text x="630.0" y="530.9" text-anchor="middle" font-size="20" font-weight="bold" font-family="'Times New Roman', 'BiauKai', 'DFKai-SB', '標楷體', 'KaiTi', serif" data-id="A14" >MERGE SYSTEM</text>
<text x="630.0" y="568.4" text-anchor="middle" font-size="20" font-weight="bold" font-family="'Times New Roman', 'BiauKai', 'DFKai-SB', '標楷體', 'KaiTi', serif" data-id="A14" >AND USER TIERS</text>
<rect x="40.0" y="44.2" width="780.0" height="605.8" stroke="black" fill="none" stroke-width="2" />
<rect x="310.0" y="-155.8" width="240.0" height="110.0" stroke="black" fill="white" stroke-width="1.5" data-id="A1" />
<text x="430.0" y="-116.8" text-anchor="middle" font-size="18" font-weight="bold" font-family="'Times New Roman', 'BiauKai', 'DFKai-SB', '標楷體', 'KaiTi', serif" data-id="A1" >A1</text>
<text x="430.0" y="-81.1" text-anchor="middle" font-size="20" font-weight="bold" font-family="'Times New Roman', 'BiauKai', 'DFKai-SB', '標楷體', 'KaiTi', serif" data-id="A1" >LOAD APP MANIFEST</text>
<line x1="310.0" y1="-155.8" x2="40.0" y2="44.2" stroke="red" stroke-dasharray="5,5" stroke-width="1.0" opacity="0.6" />
<line x1="550.0" y1="-155.8" x2="820.0" y2="44.2" stroke="red" stroke-dasharray="5,5" stroke-width="1.0" opacity="0.6" />
<line x1="310.0" y1="-45.8" x2="40.0" y2="650.0" stroke="red" stroke-dasharray="5,5" stroke-width="1.0" opacity="0.6" />
<line x1="550.0" y1="-45.8" x2="820.0" y2="650.0" stroke="red" stroke-dasharray="5,5" stroke-width="1.0" opacity="0.6" />
<path d="M 330.0 173.3 L 530.0 173.3" stroke="black" stroke-width="1.2" data-arrow-id="a1f1" data-waypoints="330.0,173.3 530.0,173.3" marker-end="url(#arrow)" fill="none" />
<path d="M 330.0 530.0 L 480.0 530.0 Q 490.0 530.0 490.0 520.0 L 490.0 236.7 Q 490.0 226.7 500.0 226.7 L 530.0 226.7" stroke="black" stroke-width="1.2" data-arrow-id="a1f3" data-waypoints="330.0,530.0 490.0,530.0 490.0,226.7 530.0,226.7" marker-end="url(#arrow)" fill="none" />
<path d="M 330.0 226.7 L 360.0 226.7 Q 370.0 226.7 370.0 236.7 L 370.0 310.0 Q 370.0 320.0 360.0 320.0 L 100.0 320.0 Q 90.0 320.0 90.0 330.0 L 90.0 520.0 Q 90.0 530.0 100.0 530.0 L 130.0 530.0" stroke="black" stroke-width="1.2" data-arrow-id="a1f2" data-waypoints="330.0,226.7 370.0,226.7 370.0,320.0 90.0,320.0 90.0,530.0 130.0,530.0" marker-end="url(#arrow)" fill="none" />
<path d="M 730.0 226.7 L 760.0 226.7 Q 770.0 226.7 770.0 236.7 L 770.0 310.0 Q 770.0 320.0 760.0 320.0 L 460.0 320.0 Q 450.0 320.0 450.0 330.0 L 450.0 520.0 Q 450.0 530.0 460.0 530.0 L 530.0 530.0" stroke="black" stroke-width="1.2" data-arrow-id="a1f4" data-waypoints="730.0,226.7 770.0,226.7 770.0,320.0 450.0,320.0 450.0,530.0 530.0,530.0" marker-end="url(#arrow)" fill="none" />
<path d="M -10.0 200.0 L 130.0 200.0" stroke="black" stroke-width="1.2" data-arrow-id="a1in1" data-waypoints="-10.0,200.0 130.0,200.0" marker-end="url(#arrow)" fill="none" />
<path d="M -10.0 360.0 L 400.0 360.0 Q 410.0 360.0 410.0 370.0 L 410.0 480.0 Q 410.0 490.0 420.0 490.0 L 530.0 490.0" stroke="black" stroke-width="1.2" data-arrow-id="a1in2" data-waypoints="-10.0,360.0 410.0,360.0 410.0,490.0 530.0,490.0" marker-end="url(#arrow)" fill="none" />
<path d="M -10.0 400.0 L 360.0 400.0 Q 370.0 400.0 370.0 410.0 L 370.0 560.0 Q 370.0 570.0 380.0 570.0 L 530.0 570.0" stroke="black" stroke-width="1.2" data-arrow-id="a1in3" data-waypoints="-10.0,400.0 370.0,400.0 370.0,570.0 530.0,570.0" marker-end="url(#arrow)" fill="none" />
<path d="M 630.0 84.2 L 630.0 120.0" stroke="black" stroke-width="1.2" data-arrow-id="a1c1" data-waypoints="630.0,84.2 630.0,120.0" marker-end="url(#arrow)" fill="none" />
<path d="M 630.0 414.2 L 630.0 450.0" stroke="black" stroke-width="1.2" data-arrow-id="a1c2" data-waypoints="630.0,414.2 630.0,450.0" marker-end="url(#arrow)" fill="none" />
<path d="M 730.0 173.3 L 870.0 173.3" stroke="black" stroke-width="1.2" data-arrow-id="a1err" data-waypoints="730.0,173.3 870.0,173.3" marker-end="url(#arrow)" fill="none" />
<path d="M 730.0 530.0 L 870.0 530.0" stroke="black" stroke-width="1.2" data-arrow-id="a1out" data-waypoints="730.0,530.0 870.0,530.0" marker-end="url(#arrow)" fill="none" />
<text x="630.0" y="78.2" font-size="14" text-anchor="middle" font-weight="bold" fill="black" font-family="'Times New Roman', 'BiauKai', 'DFKai-SB', '標楷體', 'KaiTi', serif" data-arrow-id="a1c1">Zod McpAppManifest.Schema</text>
<text x="630.0" y="408.2" font-size="14" text-anchor="middle" font-weight="bold" fill="black" font-family="'Times New Roman', 'BiauKai', 'DFKai-SB', '標楷體', 'KaiTi', serif" data-arrow-id="a1c2">System-Tier Wins On Id Collision</text>
<text x="430.0" y="168.3" font-size="14" font-weight="bold" fill="black" text-anchor="middle" font-family="'Times New Roman', 'BiauKai', 'DFKai-SB', '標楷體', 'KaiTi', serif" data-arrow-id="a1f1">Raw mcp.json</text>
<text x="430.0" y="185.3" font-size="14" font-weight="bold" fill="black" text-anchor="middle" font-family="'Times New Roman', 'BiauKai', 'DFKai-SB', '標楷體', 'KaiTi', serif" data-arrow-id="a1f1">Bytes</text>
<text x="520.0" y="350.7" font-size="14" font-weight="bold" fill="black" text-anchor="start" font-family="'Times New Roman', 'BiauKai', 'DFKai-SB', '標楷體', 'KaiTi', serif" data-arrow-id="a1f3" >Generated Manifest Draft</text>
<text x="230.0" y="338.0" font-size="14" font-weight="bold" fill="black" text-anchor="middle" font-family="'Times New Roman', 'BiauKai', 'DFKai-SB', '標楷體', 'KaiTi', serif" data-arrow-id="a1f2" >ENOENT Signal</text>
<text x="630.0" y="312.0" font-size="14" font-weight="bold" fill="black" text-anchor="middle" font-family="'Times New Roman', 'BiauKai', 'DFKai-SB', '標楷體', 'KaiTi', serif" data-arrow-id="a1f4" >Validated McpAppManifest</text>
<text x="-14.0" y="204.0" font-size="20" text-anchor="end" font-weight="bold" fill="black" font-family="'Times New Roman', 'BiauKai', 'DFKai-SB', '標楷體', 'KaiTi', serif" data-arrow-id="a1in1">App Directory Path</text>
<text x="-14.0" y="338.0" font-size="20" text-anchor="end" font-weight="bold" fill="black" font-family="'Times New Roman', 'BiauKai', 'DFKai-SB', '標楷體', 'KaiTi', serif" data-arrow-id="a1in2">/etc/opencode/</text>
<text x="-14.0" y="364.0" font-size="20" text-anchor="end" font-weight="bold" fill="black" font-family="'Times New Roman', 'BiauKai', 'DFKai-SB', '標楷體', 'KaiTi', serif" data-arrow-id="a1in2">mcp-apps.json</text>
<text x="-14.0" y="390.0" font-size="20" text-anchor="end" font-weight="bold" fill="black" font-family="'Times New Roman', 'BiauKai', 'DFKai-SB', '標楷體', 'KaiTi', serif" data-arrow-id="a1in2">(system)</text>
<text x="-14.0" y="404.0" font-size="20" text-anchor="end" font-weight="bold" fill="black" font-family="'Times New Roman', 'BiauKai', 'DFKai-SB', '標楷體', 'KaiTi', serif" data-arrow-id="a1in3">~/.config/opencode/mcp-apps.json (user)</text>
<text x="874.0" y="177.3" font-size="20" text-anchor="start" font-weight="bold" fill="black" font-family="'Times New Roman', 'BiauKai', 'DFKai-SB', '標楷體', 'KaiTi', serif" data-arrow-id="a1err">McpManifestNotFoundError (no silent fallback)</text>
<text x="874.0" y="534.0" font-size="20" text-anchor="start" font-weight="bold" fill="black" font-family="'Times New Roman', 'BiauKai', 'DFKai-SB', '標楷體', 'KaiTi', serif" data-arrow-id="a1out">Merged App Catalog</text>
<path d="M 520.0,346.5 L 519.4,346.9 L 518.8,347.4 L 518.1,347.8 L 517.5,348.2 L 516.9,348.6 L 516.2,348.9 L 515.6,349.2 L 515.0,349.5 L 514.4,349.7 L 513.8,349.8 L 513.1,349.9 L 512.5,350.0 L 511.9,349.9 L 511.2,349.8 L 510.6,349.7 L 510.0,349.5 L 509.4,349.2 L 508.8,348.9 L 508.1,348.6 L 507.5,348.2 L 506.9,347.8 L 506.2,347.4 L 505.6,346.9 L 505.0,346.5 L 504.4,346.0 L 503.8,345.6 L 503.1,345.1 L 502.5,344.7 L 501.9,344.3 L 501.2,344.0 L 500.6,343.7 L 500.0,343.4 L 499.4,343.2 L 498.8,343.1 L 498.1,343.0 L 497.5,343.0 L 496.9,343.0 L 496.2,343.1 L 495.6,343.2 L 495.0,343.4 L 494.4,343.7 L 493.8,344.0 L 493.1,344.3 L 492.5,344.7 L 491.9,345.1 L 491.2,345.6 L 490.6,346.0 L 490.0,346.5" stroke="red" stroke-width="0.8" fill="none" opacity="0.5" />
</svg>