<svg width="1743.0" height="1080.0" viewBox="-239.0 -240.0 1743.0 1080.0" xmlns="http://www.w3.org/2000/svg">
<defs>
<marker id="arrow" viewBox="0 0 10 10" refX="10" refY="5" markerWidth="6" markerHeight="6" orient="auto-start-reverse"><path d="M 0 0 L 10 5 L 0 10 z" fill="black" /></marker>
<marker id="call_arrow" viewBox="0 0 10 10" refX="10" refY="5" markerWidth="8" markerHeight="8" orient="auto-start-reverse"><path d="M 0 0 L 10 5 L 0 10 M 0 2 L 6 5 L 0 8" fill="none" stroke="black" stroke-width="1" /></marker>
</defs>
<rect x="-239.0" y="-240.0" width="1743.0" height="1080.0" fill="white" />
<rect x="130.0" y="120.0" width="200.0" height="200.0" stroke="black" fill="white" stroke-width="1.5" data-id="A11" />
<text x="230.0" y="206.0" text-anchor="middle" font-size="14" font-weight="bold" font-family="'Times New Roman', 'BiauKai', 'DFKai-SB', '标楷体', serif" data-id="A11" >A11</text>
<text x="230.0" y="236.0" text-anchor="middle" font-size="16" font-weight="bold" font-family="'Times New Roman', 'BiauKai', 'DFKai-SB', '标楷体', serif" data-id="A11" >擷取提供者選項</text>
<rect x="550.0" y="120.0" width="200.0" height="200.0" stroke="black" fill="white" stroke-width="1.5" data-id="A12" />
<text x="650.0" y="206.0" text-anchor="middle" font-size="14" font-weight="bold" font-family="'Times New Roman', 'BiauKai', 'DFKai-SB', '标楷体', serif" data-id="A12" >A12</text>
<text x="650.0" y="236.0" text-anchor="middle" font-size="16" font-weight="bold" font-family="'Times New Roman', 'BiauKai', 'DFKai-SB', '标楷体', serif" data-id="A12" >轉換系統提示</text>
<rect x="930.0" y="120.0" width="200.0" height="200.0" stroke="black" fill="white" stroke-width="1.5" data-id="A13" />
<text x="1030.0" y="206.0" text-anchor="middle" font-size="14" font-weight="bold" font-family="'Times New Roman', 'BiauKai', 'DFKai-SB', '标楷体', serif" data-id="A13" >A13</text>
<text x="1030.0" y="236.0" text-anchor="middle" font-size="16" font-weight="bold" font-family="'Times New Roman', 'BiauKai', 'DFKai-SB', '标楷体', serif" data-id="A13" >轉換對話歷史</text>
<rect x="130.0" y="440.0" width="200.0" height="200.0" stroke="black" fill="white" stroke-width="1.5" data-id="A14" />
<text x="230.0" y="526.0" text-anchor="middle" font-size="14" font-weight="bold" font-family="'Times New Roman', 'BiauKai', 'DFKai-SB', '标楷体', serif" data-id="A14" >A14</text>
<text x="230.0" y="556.0" text-anchor="middle" font-size="16" font-weight="bold" font-family="'Times New Roman', 'BiauKai', 'DFKai-SB', '标楷体', serif" data-id="A14" >序列化工具架構</text>
<rect x="550.0" y="440.0" width="200.0" height="200.0" stroke="black" fill="white" stroke-width="1.5" data-id="A15" />
<text x="650.0" y="526.0" text-anchor="middle" font-size="14" font-weight="bold" font-family="'Times New Roman', 'BiauKai', 'DFKai-SB', '标楷体', serif" data-id="A15" >A15</text>
<text x="650.0" y="556.0" text-anchor="middle" font-size="16" font-weight="bold" font-family="'Times New Roman', 'BiauKai', 'DFKai-SB', '标楷体', serif" data-id="A15" >組合請求主體</text>
<path d="M 330.0 600.0 L 550.0 600.0" stroke="black" stroke-width="1.2" data-arrow-id="a14_out" data-waypoints="330.0,600.0 550.0,600.0" marker-end="url(#arrow)" fill="none" />
<path d="M 330.0 220.0 L 410.0 220.0 Q 420.0 220.0 420.0 230.0 L 420.0 510.0 Q 420.0 520.0 430.0 520.0 L 550.0 520.0" stroke="black" stroke-width="1.2" data-arrow-id="a11_out" data-waypoints="330.0,220.0 420.0,220.0 420.0,520.0 550.0,520.0" marker-end="url(#arrow)" fill="none" />
<path d="M 1130.0 220.0 L 1160.0 220.0 Q 1170.0 220.0 1170.0 230.0 L 1170.0 388.2 Q 1170.0 398.2 1160.0 398.2 L 470.0 398.2 Q 460.0 398.2 460.0 408.2 L 460.0 470.0 Q 460.0 480.0 470.0 480.0 L 550.0 480.0" stroke="black" stroke-width="1.2" data-arrow-id="a13_out" data-waypoints="1130.0,220.0 1170.0,220.0 1170.0,398.2 460.0,398.2 460.0,480.0 550.0,480.0" marker-end="url(#arrow)" fill="none" />
<path d="M 750.0 220.0 L 810.0 220.0 Q 820.0 220.0 820.0 230.0 L 820.0 350.0 Q 820.0 360.0 810.0 360.0 L 390.0 360.0 Q 380.0 360.0 380.0 370.0 L 380.0 550.0 Q 380.0 560.0 390.0 560.0 L 550.0 560.0" stroke="black" stroke-width="1.2" data-arrow-id="a12_out" data-waypoints="750.0,220.0 820.0,220.0 820.0,360.0 380.0,360.0 380.0,560.0 550.0,560.0" marker-end="url(#arrow)" fill="none" />
<path d="M -155.0 220.0 L 130.0 220.0" stroke="black" stroke-width="1.2" data-arrow-id="a11_in" data-waypoints="-155.0,220.0 130.0,220.0" marker-end="url(#arrow)" fill="none" />
<path d="M -155.0 125.0 L -155.0 70.0 Q -155.0 60.0 -145.0 60.0 L 490.0 60.0 Q 500.0 60.0 500.0 70.0 L 500.0 210.0 Q 500.0 220.0 510.0 220.0 L 550.0 220.0" stroke="black" stroke-width="1.2" data-arrow-id="a12_in" data-waypoints="-155.0,125.0 -155.0,60.0 500.0,60.0 500.0,125.0 500.0,220.0 550.0,220.0" marker-end="url(#arrow)" fill="none" />
<path d="M -155.0 80.0 L 850.0 80.0 Q 860.0 80.0 860.0 90.0 L 860.0 210.0 Q 860.0 220.0 870.0 220.0 L 930.0 220.0" stroke="black" stroke-width="1.2" data-arrow-id="a13_in" data-waypoints="-155.0,80.0 860.0,80.0 860.0,220.0 930.0,220.0" marker-end="url(#arrow)" fill="none" />
<path d="M -155.0 540.0 L 130.0 540.0" stroke="black" stroke-width="1.2" data-arrow-id="a14_in" data-waypoints="-155.0,540.0 130.0,540.0" marker-end="url(#arrow)" fill="none" />
<path d="M 750.0 540.0 L 1420.0 540.0" stroke="black" stroke-width="1.2" data-arrow-id="a15_out" data-waypoints="750.0,540.0 1420.0,540.0" marker-end="url(#arrow)" fill="none" />
<path d="M 1030.0 84.2 L 1030.0 120.0" stroke="black" stroke-width="1.2" data-arrow-id="a13_ctl" data-waypoints="1030.0,84.2 1030.0,120.0" marker-end="url(#arrow)" fill="none" />
<text x="1024.0" y="115.0" font-size="14" font-weight="bold" fill="black" font-family="'Times New Roman', 'BiauKai', 'DFKai-SB', '标楷体', serif" text-anchor="end" data-arrow-id="a13_ctl" >內容格式規則</text>
<text x="1036.0" y="115.0" font-size="14" font-weight="bold" fill="black" font-family="'Times New Roman', 'BiauKai', 'DFKai-SB', '标楷体', serif" text-anchor="start" data-arrow-id="a13_ctl" >（規格書 §2）</text>
<path d="M 650.0 404.2 L 650.0 440.0" stroke="black" stroke-width="1.2" data-arrow-id="a15_ctl" data-waypoints="650.0,404.2 650.0,440.0" marker-end="url(#arrow)" fill="none" />
<text x="644.0" y="435.0" font-size="14" font-weight="bold" fill="black" font-family="'Times New Roman', 'BiauKai', 'DFKai-SB', '标楷体', serif" text-anchor="end" data-arrow-id="a15_ctl" >壓縮閾值 +</text>
<text x="656.0" y="435.0" font-size="14" font-weight="bold" fill="black" font-family="'Times New Roman', 'BiauKai', 'DFKai-SB', '标楷体', serif" text-anchor="start" data-arrow-id="a15_ctl" >prompt_cache_key</text>
<rect x="70.0" y="0.0" width="1160.0" height="700.0" stroke="black" fill="none" stroke-width="2" />
<rect x="530.0" y="-200.0" width="240.0" height="110.0" stroke="black" fill="white" stroke-width="1.5" data-id="A1" />
<text x="650.0" y="-159.0" text-anchor="middle" font-size="14" font-weight="bold" font-family="'Times New Roman', 'BiauKai', 'DFKai-SB', '标楷体', serif" data-id="A1" >A1</text>
<text x="650.0" y="-129.0" text-anchor="middle" font-size="16" font-weight="bold" font-family="'Times New Roman', 'BiauKai', 'DFKai-SB', '标楷体', serif" data-id="A1" >A1 組裝請求主體</text>
<line x1="530.0" y1="-200.0" x2="70.0" y2="0.0" stroke="red" stroke-dasharray="5,5" stroke-width="1.0" opacity="0.6" />
<line x1="770.0" y1="-200.0" x2="1230.0" y2="0.0" stroke="red" stroke-dasharray="5,5" stroke-width="1.0" opacity="0.6" />
<line x1="530.0" y1="-90.0" x2="70.0" y2="700.0" stroke="red" stroke-dasharray="5,5" stroke-width="1.0" opacity="0.6" />
<line x1="770.0" y1="-90.0" x2="1230.0" y2="700.0" stroke="red" stroke-dasharray="5,5" stroke-width="1.0" opacity="0.6" />
<text x="440.0" y="592.0" font-size="14" font-weight="bold" fill="black" text-anchor="middle" font-family="'Times New Roman', 'BiauKai', 'DFKai-SB', '标楷体', serif" data-arrow-id="a14_out" >tools[] + tool_choice</text>
<text x="424.0" y="342.7" font-size="14" font-weight="bold" fill="black" text-anchor="start" font-family="'Times New Roman', 'BiauKai', 'DFKai-SB', '标楷体', serif" data-arrow-id="a11_out" >store、service_tier、reasoning、text、include</text>
<text x="650.0" y="390.2" font-size="14" font-weight="bold" fill="black" text-anchor="middle" font-family="'Times New Roman', 'BiauKai', 'DFKai-SB', '标楷体', serif" data-arrow-id="a13_out" >ResponseItem[]（輸入陣列）</text>
<text x="650.0" y="354.0" font-size="14" font-weight="bold" fill="black" text-anchor="middle" font-family="'Times New Roman', 'BiauKai', 'DFKai-SB', '标楷体', serif" data-arrow-id="a12_out">instructions</text>
<text x="650.0" y="376.0" font-size="14" font-weight="bold" fill="black" text-anchor="middle" font-family="'Times New Roman', 'BiauKai', 'DFKai-SB', '标楷体', serif" data-arrow-id="a12_out">+ 開發者輸入項</text>
<text x="66.0" y="212.0" font-size="14" font-weight="bold" fill="black" text-anchor="end" font-family="'Times New Roman', 'BiauKai', 'DFKai-SB', '标楷体', serif" data-arrow-id="a11_in" >提供者選項</text>
<text x="66.0" y="117.0" font-size="14" font-weight="bold" fill="black" text-anchor="end" font-family="'Times New Roman', 'BiauKai', 'DFKai-SB', '标楷体', serif" data-arrow-id="a12_in" >提示（系統訊息）</text>
<text x="66.0" y="40.0" font-size="14" font-weight="bold" fill="black" text-anchor="end" font-family="'Times New Roman', 'BiauKai', 'DFKai-SB', '标楷体', serif" data-arrow-id="a13_in" >提示（使用者、助手、工具訊息）</text>
<text x="66.0" y="532.0" font-size="14" font-weight="bold" fill="black" text-anchor="end" font-family="'Times New Roman', 'BiauKai', 'DFKai-SB', '标楷体', serif" data-arrow-id="a14_in" >工具定義</text>
<text x="1234.0" y="532.0" font-size="14" font-weight="bold" fill="black" text-anchor="start" font-family="'Times New Roman', 'BiauKai', 'DFKai-SB', '标楷体', serif" data-arrow-id="a15_out" >完整 ResponsesApiRequest</text>
</svg>