<svg width="1810.0" height="957.6" viewBox="-168.0 -257.6 1810.0 957.6" xmlns="http://www.w3.org/2000/svg">
<defs>
<marker id="arrow" viewBox="0 0 10 10" refX="10" refY="5" markerWidth="6" markerHeight="6" orient="auto-start-reverse"><path d="M 0 0 L 10 5 L 0 10 z" fill="black" /></marker>
<marker id="call_arrow" viewBox="0 0 10 10" refX="10" refY="5" markerWidth="8" markerHeight="8" orient="auto-start-reverse"><path d="M 0 0 L 10 5 L 0 10 M 0 2 L 6 5 L 0 8" fill="none" stroke="black" stroke-width="1" /></marker>
</defs>
<rect x="-168.0" y="-257.6" width="1810.0" height="957.6" fill="white" />
<rect x="130.0" y="120.0" width="200.0" height="120.0" stroke="black" fill="white" stroke-width="1.5" data-id="A1" />
<text x="230.0" y="166.0" text-anchor="middle" font-size="14" font-weight="bold" font-family="'Times New Roman', 'BiauKai', 'DFKai-SB', '标楷体', serif" data-id="A1" >A1</text>
<text x="230.0" y="196.0" text-anchor="middle" font-size="16" font-weight="bold" font-family="'Times New Roman', 'BiauKai', 'DFKai-SB', '标楷体', serif" data-id="A1" >組裝請求主體</text>
<rect x="590.0" y="120.0" width="200.0" height="120.0" stroke="black" fill="white" stroke-width="1.5" data-id="A2" />
<text x="690.0" y="166.0" text-anchor="middle" font-size="14" font-weight="bold" font-family="'Times New Roman', 'BiauKai', 'DFKai-SB', '标楷体', serif" data-id="A2" >A2</text>
<text x="690.0" y="196.0" text-anchor="middle" font-size="16" font-weight="bold" font-family="'Times New Roman', 'BiauKai', 'DFKai-SB', '标楷体', serif" data-id="A2" >管理認證與身份</text>
<rect x="970.0" y="120.0" width="200.0" height="120.0" stroke="black" fill="white" stroke-width="1.5" data-id="A3" />
<text x="1070.0" y="166.0" text-anchor="middle" font-size="14" font-weight="bold" font-family="'Times New Roman', 'BiauKai', 'DFKai-SB', '标楷体', serif" data-id="A3" >A3</text>
<text x="1070.0" y="196.0" text-anchor="middle" font-size="16" font-weight="bold" font-family="'Times New Roman', 'BiauKai', 'DFKai-SB', '标楷体', serif" data-id="A3" >選擇並分派傳輸層</text>
<rect x="130.0" y="400.0" width="200.0" height="120.0" stroke="black" fill="white" stroke-width="1.5" data-id="A4" />
<text x="230.0" y="446.0" text-anchor="middle" font-size="14" font-weight="bold" font-family="'Times New Roman', 'BiauKai', 'DFKai-SB', '标楷体', serif" data-id="A4" >A4</text>
<text x="230.0" y="476.0" text-anchor="middle" font-size="16" font-weight="bold" font-family="'Times New Roman', 'BiauKai', 'DFKai-SB', '标楷体', serif" data-id="A4" >解析回應事件</text>
<rect x="590.0" y="400.0" width="200.0" height="120.0" stroke="black" fill="white" stroke-width="1.5" data-id="A5" />
<text x="690.0" y="446.0" text-anchor="middle" font-size="14" font-weight="bold" font-family="'Times New Roman', 'BiauKai', 'DFKai-SB', '标楷体', serif" data-id="A5" >A5</text>
<text x="690.0" y="476.0" text-anchor="middle" font-size="16" font-weight="bold" font-family="'Times New Roman', 'BiauKai', 'DFKai-SB', '标楷体', serif" data-id="A5" >管理接續狀態與壓縮</text>
<path d="M 1170.0 200.0 L 1210.0 200.0 Q 1220.0 200.0 1220.0 210.0 L 1220.0 310.0 Q 1220.0 320.0 1210.0 320.0 L 100.0 320.0 Q 90.0 320.0 90.0 330.0 L 90.0 450.0 Q 90.0 460.0 100.0 460.0 L 130.0 460.0" stroke="black" stroke-width="1.2" data-arrow-id="a3_out_events" data-waypoints="1170.0,200.0 1220.0,200.0 1220.0,320.0 90.0,320.0 90.0,460.0 130.0,460.0" marker-end="url(#arrow)" fill="none" />
<path d="M 330.0 180.0 L 430.0 180.0 Q 440.0 180.0 440.0 170.0 L 440.0 88.2 Q 440.0 78.2 450.0 78.2 L 910.0 78.2 Q 920.0 78.2 920.0 88.2 L 920.0 170.0 Q 920.0 180.0 930.0 180.0 L 970.0 180.0" stroke="black" stroke-width="1.2" data-arrow-id="a1_out_body" data-waypoints="330.0,180.0 440.0,180.0 440.0,78.2 920.0,78.2 920.0,180.0 970.0,180.0" marker-end="url(#arrow)" fill="none" />
<path d="M 1170.0 160.0 L 1250.0 160.0 Q 1260.0 160.0 1260.0 170.0 L 1260.0 348.2 Q 1260.0 358.2 1250.0 358.2 L 490.0 358.2 Q 480.0 358.2 480.0 368.2 L 480.0 450.0 Q 480.0 460.0 490.0 460.0 L 590.0 460.0" stroke="black" stroke-width="1.2" data-arrow-id="a3_out_state" data-waypoints="1170.0,160.0 1260.0,160.0 1260.0,358.2 480.0,358.2 480.0,460.0 590.0,460.0" marker-end="url(#arrow)" fill="none" />
<path d="M -84.0 180.0 L 130.0 180.0" stroke="black" stroke-width="1.2" data-arrow-id="a1_in" data-waypoints="-84.0,180.0 130.0,180.0" marker-end="url(#arrow)" fill="none" />
<path d="M -84.0 272.0 L 530.0 272.0 Q 540.0 272.0 540.0 262.0 L 540.0 190.0 Q 540.0 180.0 550.0 180.0 L 590.0 180.0" stroke="black" stroke-width="1.2" data-arrow-id="a2_in" data-waypoints="-84.0,272.0 540.0,272.0 540.0,180.0 590.0,180.0" marker-end="url(#arrow)" fill="none" />
<path d="M 330.0 460.0 L 370.0 460.0 Q 380.0 460.0 380.0 470.0 L 380.0 550.0 Q 380.0 560.0 390.0 560.0 L 1548.0 560.0" stroke="black" stroke-width="1.2" data-arrow-id="a4_out" data-waypoints="330.0,460.0 380.0,460.0 380.0,560.0 1548.0,560.0" marker-end="url(#arrow)" fill="none" />
<path d="M 230.0 84.2 L 230.0 120.0" stroke="black" stroke-width="1.2" data-arrow-id="a1_ctl" data-waypoints="230.0,84.2 230.0,120.0" marker-end="url(#arrow)" fill="none" />
<text x="224.0" y="115.0" font-size="14" font-weight="bold" fill="black" font-family="'Times New Roman', 'BiauKai', 'DFKai-SB', '标楷体', serif" text-anchor="end" data-arrow-id="a1_ctl" >提供者選項（推理、</text>
<text x="236.0" y="115.0" font-size="14" font-weight="bold" fill="black" font-family="'Times New Roman', 'BiauKai', 'DFKai-SB', '标楷体', serif" text-anchor="start" data-arrow-id="a1_ctl" >儲存、服務層級）</text>
<path d="M 690.0 84.2 L 690.0 120.0" stroke="black" stroke-width="1.2" data-arrow-id="a2_ctl" data-waypoints="690.0,84.2 690.0,120.0" marker-end="url(#arrow)" fill="none" />
<text x="684.0" y="115.0" font-size="14" font-weight="bold" fill="black" font-family="'Times New Roman', 'BiauKai', 'DFKai-SB', '标楷体', serif" text-anchor="end" data-arrow-id="a2_ctl" >令牌過期時間</text>
<text x="696.0" y="115.0" font-size="14" font-weight="bold" fill="black" font-family="'Times New Roman', 'BiauKai', 'DFKai-SB', '标楷体', serif" text-anchor="start" data-arrow-id="a2_ctl" >+ 帳號 ID</text>
<path d="M 1070.0 84.2 L 1070.0 120.0" stroke="black" stroke-width="1.2" data-arrow-id="_merged_A3_control" data-waypoints="1070.0,84.2 1070.0,120.0" marker-end="url(#arrow)" fill="none" />
<text x="1064.0" y="115.0" font-size="14" font-weight="bold" fill="black" font-family="'Times New Roman', 'BiauKai', 'DFKai-SB', '标楷体', serif" text-anchor="end" data-arrow-id="a2_out_headers" >認證標頭 + 來源識別</text>
<text x="1076.0" y="115.0" font-size="14" font-weight="bold" fill="black" font-family="'Times New Roman', 'BiauKai', 'DFKai-SB', '标楷体', serif" text-anchor="start" data-arrow-id="a5_out_cont" >前次回應 ID + 上次輸入長度</text>
<path d="M 690.0 364.2 L 690.0 400.0" stroke="black" stroke-width="1.2" data-arrow-id="a5_ctl" data-waypoints="690.0,364.2 690.0,400.0" marker-end="url(#arrow)" fill="none" />
<text x="684.0" y="395.0" font-size="14" font-weight="bold" fill="black" font-family="'Times New Roman', 'BiauKai', 'DFKai-SB', '标楷体', serif" text-anchor="end" data-arrow-id="a5_ctl" >壓縮閾值</text>
<text x="696.0" y="395.0" font-size="14" font-weight="bold" fill="black" font-family="'Times New Roman', 'BiauKai', 'DFKai-SB', '标楷体', serif" text-anchor="start" data-arrow-id="a5_ctl" >+ 視窗世代</text>
<rect x="30.0" y="18.2" width="1290.0" height="601.8" stroke="black" fill="none" stroke-width="2" />
<rect x="530.5" y="-181.8" width="289.0" height="110.0" stroke="black" fill="white" stroke-width="1.5" data-id="A0" />
<text x="675.0" y="-155.8" text-anchor="middle" font-size="14" font-weight="bold" font-family="'Times New Roman', 'BiauKai', 'DFKai-SB', '标楷体', serif" data-id="A0" >A0</text>
<text x="675.0" y="-125.8" text-anchor="middle" font-size="16" font-weight="bold" font-family="'Times New Roman', 'BiauKai', 'DFKai-SB', '标楷体', serif" data-id="A0" >CODEX PROVIDER —</text>
<text x="675.0" y="-95.8" text-anchor="middle" font-size="16" font-weight="bold" font-family="'Times New Roman', 'BiauKai', 'DFKai-SB', '标楷体', serif" data-id="A0" >處理回合請求</text>
<line x1="530.5" y1="-181.8" x2="30.0" y2="18.2" stroke="red" stroke-dasharray="5,5" stroke-width="1.0" opacity="0.6" />
<line x1="819.5" y1="-181.8" x2="1320.0" y2="18.2" stroke="red" stroke-dasharray="5,5" stroke-width="1.0" opacity="0.6" />
<line x1="530.5" y1="-71.8" x2="30.0" y2="620.0" stroke="red" stroke-dasharray="5,5" stroke-width="1.0" opacity="0.6" />
<line x1="819.5" y1="-71.8" x2="1320.0" y2="620.0" stroke="red" stroke-dasharray="5,5" stroke-width="1.0" opacity="0.6" />
<path d="M 494.7 -126.8 L 530.5 -126.8" stroke="black" stroke-width="1.2" data-arrow-id="ctx_in" data-waypoints="494.7,-126.8 530.5,-126.8" marker-end="url(#arrow)" fill="none" />
<path d="M 675.0 -217.6 L 675.0 -181.8" stroke="black" stroke-width="1.2" data-arrow-id="ctx_ctl" data-waypoints="675.0,-217.6 675.0,-181.8" marker-end="url(#arrow)" fill="none" />
<path d="M 675.0 -36.0 L 675.0 -71.8" stroke="black" stroke-width="1.2" data-arrow-id="ctx_mech" data-waypoints="675.0,-36.0 675.0,-71.8" marker-end="url(#arrow)" fill="none" />
<path d="M 819.5 -126.8 L 855.3 -126.8" stroke="black" stroke-width="1.2" data-arrow-id="ctx_out" data-waypoints="819.5,-126.8 855.3,-126.8" marker-end="url(#arrow)" fill="none" />
<text x="690.0" y="312.0" font-size="14" font-weight="bold" fill="black" text-anchor="middle" font-family="'Times New Roman', 'BiauKai', 'DFKai-SB', '标楷体', serif" data-arrow-id="a3_out_events" >ResponseStreamEvent 串流</text>
<text x="690.0" y="70.2" font-size="14" font-weight="bold" fill="black" text-anchor="middle" font-family="'Times New Roman', 'BiauKai', 'DFKai-SB', '标楷体', serif" data-arrow-id="a1_out_body" >ResponsesApiRequest 主體</text>
<text x="690.0" y="350.2" font-size="14" font-weight="bold" fill="black" text-anchor="middle" font-family="'Times New Roman', 'BiauKai', 'DFKai-SB', '标楷体', serif" data-arrow-id="a3_out_state" >回合狀態 + 回應 ID</text>
<text x="26.0" y="172.0" font-size="14" font-weight="bold" fill="black" text-anchor="end" font-family="'Times New Roman', 'BiauKai', 'DFKai-SB', '标楷体', serif" data-arrow-id="a1_in" >提示 + 工具定義</text>
<text x="26.0" y="264.0" font-size="14" font-weight="bold" fill="black" text-anchor="end" font-family="'Times New Roman', 'BiauKai', 'DFKai-SB', '标楷体', serif" data-arrow-id="a2_in" >Codex 憑證</text>
<text x="1324.0" y="552.0" font-size="14" font-weight="bold" fill="black" text-anchor="start" font-family="'Times New Roman', 'BiauKai', 'DFKai-SB', '标楷体', serif" data-arrow-id="a4_out" >LanguageModelV2StreamPart 串流</text>
<text x="526.5" y="-134.8" font-size="14" font-weight="bold" fill="black" text-anchor="end" font-family="'Times New Roman', 'BiauKai', 'DFKai-SB', '标楷体', serif" data-arrow-id="ctx_in" >AI SDK 呼叫選項（提示、工具、提供者選項、標頭）</text>
<text x="823.5" y="-134.8" font-size="14" font-weight="bold" fill="black" text-anchor="start" font-family="'Times New Roman', 'BiauKai', 'DFKai-SB', '标楷体', serif" data-arrow-id="ctx_out" >ReadableStream&lt;LanguageModelV2StreamPart&gt;</text>
</svg>