<svg width="1787.6" height="1061.8" viewBox="-255.0 -221.8 1787.6 1061.8" xmlns="http://www.w3.org/2000/svg">
<defs>
<marker id="arrow" viewBox="0 0 10 10" refX="10" refY="5" markerWidth="6" markerHeight="6" orient="auto-start-reverse"><path d="M 0 0 L 10 5 L 0 10 z" fill="black" /></marker>
<marker id="call_arrow" viewBox="0 0 10 10" refX="10" refY="5" markerWidth="8" markerHeight="8" orient="auto-start-reverse"><path d="M 0 0 L 10 5 L 0 10 M 0 2 L 6 5 L 0 8" fill="none" stroke="black" stroke-width="1" /></marker>
</defs>
<rect x="-255.0" y="-221.8" width="1787.6" height="1061.8" fill="white" />
<rect x="130.0" y="120.0" width="200.0" height="160.0" stroke="black" fill="white" stroke-width="1.5" data-id="A31" />
<text x="230.0" y="186.0" text-anchor="middle" font-size="14" font-weight="bold" font-family="'Times New Roman', 'BiauKai', 'DFKai-SB', '标楷体', serif" data-id="A31" >A31</text>
<text x="230.0" y="216.0" text-anchor="middle" font-size="16" font-weight="bold" font-family="'Times New Roman', 'BiauKai', 'DFKai-SB', '标楷体', serif" data-id="A31" >檢查 WS 連線狀態</text>
<rect x="550.0" y="120.0" width="200.0" height="160.0" stroke="black" fill="white" stroke-width="1.5" data-id="A32" />
<text x="650.0" y="186.0" text-anchor="middle" font-size="14" font-weight="bold" font-family="'Times New Roman', 'BiauKai', 'DFKai-SB', '标楷体', serif" data-id="A32" >A32</text>
<text x="650.0" y="216.0" text-anchor="middle" font-size="16" font-weight="bold" font-family="'Times New Roman', 'BiauKai', 'DFKai-SB', '标楷体', serif" data-id="A32" >建立新 WS 連線</text>
<rect x="890.6" y="120.0" width="200.0" height="160.0" stroke="black" fill="white" stroke-width="1.5" data-id="A33" />
<text x="990.6" y="171.0" text-anchor="middle" font-size="14" font-weight="bold" font-family="'Times New Roman', 'BiauKai', 'DFKai-SB', '标楷体', serif" data-id="A33" >A33</text>
<text x="990.6" y="201.0" text-anchor="middle" font-size="16" font-weight="bold" font-family="'Times New Roman', 'BiauKai', 'DFKai-SB', '标楷体', serif" data-id="A33" >組裝並發送 WS</text>
<text x="990.6" y="231.0" text-anchor="middle" font-size="16" font-weight="bold" font-family="'Times New Roman', 'BiauKai', 'DFKai-SB', '标楷体', serif" data-id="A33" >請求</text>
<rect x="130.0" y="480.0" width="200.0" height="160.0" stroke="black" fill="white" stroke-width="1.5" data-id="A34" />
<text x="230.0" y="531.0" text-anchor="middle" font-size="14" font-weight="bold" font-family="'Times New Roman', 'BiauKai', 'DFKai-SB', '标楷体', serif" data-id="A34" >A34</text>
<text x="230.0" y="561.0" text-anchor="middle" font-size="16" font-weight="bold" font-family="'Times New Roman', 'BiauKai', 'DFKai-SB', '标楷体', serif" data-id="A34" >HTTP SSE</text>
<text x="230.0" y="591.0" text-anchor="middle" font-size="16" font-weight="bold" font-family="'Times New Roman', 'BiauKai', 'DFKai-SB', '标楷体', serif" data-id="A34" >備援</text>
<rect x="550.0" y="480.0" width="200.0" height="160.0" stroke="black" fill="white" stroke-width="1.5" data-id="A35" />
<text x="650.0" y="546.0" text-anchor="middle" font-size="14" font-weight="bold" font-family="'Times New Roman', 'BiauKai', 'DFKai-SB', '标楷体', serif" data-id="A35" >A35</text>
<text x="650.0" y="576.0" text-anchor="middle" font-size="16" font-weight="bold" font-family="'Times New Roman', 'BiauKai', 'DFKai-SB', '标楷体', serif" data-id="A35" >錯誤處理與備援切換</text>
<path d="M 330.0 226.7 L 550.0 226.7" stroke="black" stroke-width="1.2" data-arrow-id="a31_out_reconnect" data-waypoints="330.0,226.7 550.0,226.7" marker-end="url(#arrow)" fill="none" />
<path d="M 750.0 226.7 L 890.6 226.7" stroke="black" stroke-width="1.2" data-arrow-id="a32_out_ok" data-waypoints="750.0,226.7 890.6,226.7" marker-end="url(#arrow)" fill="none" />
<path d="M 330.0 160.0 L 410.0 160.0 Q 420.0 160.0 420.0 170.0 L 420.0 307.5 Q 420.0 317.5 430.0 317.5 L 834.4 317.5 Q 844.4 317.5 844.4 307.5 L 844.4 183.3 Q 844.4 173.3 854.4 173.3 L 890.6 173.3" stroke="black" stroke-width="1.2" data-arrow-id="a31_out_reuse" data-waypoints="330.0,160.0 420.0,160.0 420.0,317.5 844.4,317.5 844.4,173.3 890.6,173.3" marker-end="url(#arrow)" fill="none" />
<path d="M 1090.6 226.7 L 1120.6 226.7 Q 1130.6 226.7 1130.6 236.7 L 1130.6 432.5 Q 1130.6 442.5 1120.6 442.5 L 490.0 442.5 Q 480.0 442.5 480.0 452.5 L 480.0 523.3 Q 480.0 533.3 490.0 533.3 L 550.0 533.3" stroke="black" stroke-width="1.2" data-arrow-id="a33_out_fail" data-waypoints="1090.6,226.7 1130.6,226.7 1130.6,442.5 480.0,442.5 480.0,533.3 550.0,533.3" marker-end="url(#arrow)" fill="none" />
<path d="M 330.0 240.0 L 390.0 240.0 Q 400.0 240.0 400.0 250.0 L 400.0 395.0 Q 400.0 405.0 390.0 405.0 L 100.0 405.0 Q 90.0 405.0 90.0 415.0 L 90.0 523.3 Q 90.0 533.3 100.0 533.3 L 130.0 533.3" stroke="black" stroke-width="1.2" data-arrow-id="a31_out_disabled" data-waypoints="330.0,240.0 400.0,240.0 400.0,405.0 90.0,405.0 90.0,533.3 130.0,533.3" marker-end="url(#arrow)" fill="none" />
<path d="M 750.0 246.7 L 786.2 246.7 Q 796.2 246.7 796.2 256.7 L 796.2 345.0 Q 796.2 355.0 786.2 355.0 L 470.0 355.0 Q 460.0 355.0 460.0 365.0 L 460.0 576.7 Q 460.0 586.7 470.0 586.7 L 550.0 586.7" stroke="black" stroke-width="1.2" data-arrow-id="a32_out_fail" data-waypoints="750.0,246.7 796.2,246.7 796.2,355.0 460.0,355.0 460.0,586.7 550.0,586.7" marker-end="url(#arrow)" fill="none" />
<path d="M -171.0 200.0 L 130.0 200.0" stroke="black" stroke-width="1.2" data-arrow-id="a31_in" data-waypoints="-171.0,200.0 130.0,200.0" marker-end="url(#arrow)" fill="none" />
<path d="M 230.0 84.2 L 230.0 120.0" stroke="black" stroke-width="1.2" data-arrow-id="a31_ctl" data-waypoints="230.0,84.2 230.0,120.0" marker-end="url(#arrow)" fill="none" />
<path d="M -171.0 78.2 L 510.0 78.2 Q 520.0 78.2 520.0 88.2 L 520.0 163.3 Q 520.0 173.3 530.0 173.3 L 550.0 173.3" stroke="black" stroke-width="1.2" data-arrow-id="a32_in" data-waypoints="-171.0,78.2 520.0,78.2 520.0,173.3 550.0,173.3" marker-end="url(#arrow)" fill="none" />
<path d="M 990.6 84.2 L 990.6 120.0" stroke="black" stroke-width="1.2" data-arrow-id="a33_ctl" data-waypoints="990.6,84.2 990.6,120.0" marker-end="url(#arrow)" fill="none" />
<path d="M 1090.6 173.3 L 1448.6 173.3" stroke="black" stroke-width="1.2" data-arrow-id="a33_out_ok" data-waypoints="1090.6,173.3 1448.6,173.3" marker-end="url(#arrow)" fill="none" />
<path d="M -171.0 586.7 L 130.0 586.7" stroke="black" stroke-width="1.2" data-arrow-id="a34_in" data-waypoints="-171.0,586.7 130.0,586.7" marker-end="url(#arrow)" fill="none" />
<path d="M 330.0 560.0 L 350.0 560.0 Q 360.0 560.0 360.0 570.0 L 360.0 670.0 Q 360.0 680.0 370.0 680.0 L 1448.6 680.0" stroke="black" stroke-width="1.2" data-arrow-id="a34_out" data-waypoints="330.0,560.0 360.0,560.0 360.0,680.0 1448.6,680.0" marker-end="url(#arrow)" fill="none" />
<path d="M 750.0 560.0 L 1448.6 560.0" stroke="black" stroke-width="1.2" data-arrow-id="a35_out" data-waypoints="750.0,560.0 1448.6,560.0" marker-end="url(#arrow)" fill="none" />
<path d="M 230.0 444.2 L 230.0 480.0" stroke="black" stroke-width="1.2" data-arrow-id="a34_ctl" data-waypoints="230.0,444.2 230.0,480.0" marker-end="url(#arrow)" fill="none" />
<text x="224.0" y="475.0" font-size="14" font-weight="bold" fill="black" font-family="'Times New Roman', 'BiauKai', 'DFKai-SB', '标楷体', serif" text-anchor="end" data-arrow-id="a34_ctl" >認證標頭 +</text>
<text x="236.0" y="475.0" font-size="14" font-weight="bold" fill="black" font-family="'Times New Roman', 'BiauKai', 'DFKai-SB', '标楷体', serif" text-anchor="start" data-arrow-id="a34_ctl" >abort 信號</text>
<rect x="30.0" y="18.2" width="1160.6" height="721.8" stroke="black" fill="none" stroke-width="2" />
<rect x="490.3" y="-181.8" width="240.0" height="110.0" stroke="black" fill="white" stroke-width="1.5" data-id="A3" />
<text x="610.3" y="-140.8" text-anchor="middle" font-size="14" font-weight="bold" font-family="'Times New Roman', 'BiauKai', 'DFKai-SB', '标楷体', serif" data-id="A3" >A3</text>
<text x="610.3" y="-110.8" text-anchor="middle" font-size="16" font-weight="bold" font-family="'Times New Roman', 'BiauKai', 'DFKai-SB', '标楷体', serif" data-id="A3" >A3 選擇並分派傳輸層</text>
<line x1="490.3" y1="-181.8" x2="30.0" y2="18.2" stroke="red" stroke-dasharray="5,5" stroke-width="1.0" opacity="0.6" />
<line x1="730.3" y1="-181.8" x2="1190.6" y2="18.2" stroke="red" stroke-dasharray="5,5" stroke-width="1.0" opacity="0.6" />
<line x1="490.3" y1="-71.8" x2="30.0" y2="740.0" stroke="red" stroke-dasharray="5,5" stroke-width="1.0" opacity="0.6" />
<line x1="730.3" y1="-71.8" x2="1190.6" y2="740.0" stroke="red" stroke-dasharray="5,5" stroke-width="1.0" opacity="0.6" />
<text x="490.3" y="220.7" font-size="14" font-weight="bold" fill="black" text-anchor="middle" font-family="'Times New Roman', 'BiauKai', 'DFKai-SB', '标楷体', serif" data-arrow-id="a31_out_reconnect">WS 不存在或過期</text>
<text x="490.3" y="242.7" font-size="14" font-weight="bold" fill="black" text-anchor="middle" font-family="'Times New Roman', 'BiauKai', 'DFKai-SB', '标楷体', serif" data-arrow-id="a31_out_reconnect">→ 重連</text>
<text x="804.2" y="220.7" font-size="14" font-weight="bold" fill="black" text-anchor="middle" font-family="'Times New Roman', 'BiauKai', 'DFKai-SB', '标楷体', serif" data-arrow-id="a32_out_ok">新 WS</text>
<text x="804.2" y="242.7" font-size="14" font-weight="bold" fill="black" text-anchor="middle" font-family="'Times New Roman', 'BiauKai', 'DFKai-SB', '标楷体', serif" data-arrow-id="a32_out_ok">連線就緒</text>
<text x="650.0" y="309.5" font-size="14" font-weight="bold" fill="black" text-anchor="middle" font-family="'Times New Roman', 'BiauKai', 'DFKai-SB', '标楷体', serif" data-arrow-id="a31_out_reuse" >WS 存活 → 重用</text>
<text x="650.0" y="434.5" font-size="14" font-weight="bold" fill="black" text-anchor="middle" font-family="'Times New Roman', 'BiauKai', 'DFKai-SB', '标楷体', serif" data-arrow-id="a33_out_fail" >首幀逾時或錯誤</text>
<text x="230.0" y="397.0" font-size="14" font-weight="bold" fill="black" text-anchor="middle" font-family="'Times New Roman', 'BiauKai', 'DFKai-SB', '标楷体', serif" data-arrow-id="a31_out_disabled" >WS 已停用 → HTTP 備援</text>
<text x="650.0" y="347.0" font-size="14" font-weight="bold" fill="black" text-anchor="middle" font-family="'Times New Roman', 'BiauKai', 'DFKai-SB', '标楷体', serif" data-arrow-id="a32_out_fail" >連線失敗</text>
<text x="26.0" y="192.0" font-size="14" font-weight="bold" fill="black" text-anchor="end" font-family="'Times New Roman', 'BiauKai', 'DFKai-SB', '标楷体', serif" data-arrow-id="a31_in" >現有 WS 連線狀態</text>
<text x="226.0" y="115.0" font-size="14" font-weight="bold" fill="black" text-anchor="end" font-family="'Times New Roman', 'BiauKai', 'DFKai-SB', '标楷体', serif" data-arrow-id="a31_ctl" >disableWebsockets 旗標</text>
<text x="26.0" y="70.2" font-size="14" font-weight="bold" fill="black" text-anchor="end" font-family="'Times New Roman', 'BiauKai', 'DFKai-SB', '标楷体', serif" data-arrow-id="a32_in" >WS 端點 URL + 認證標頭</text>
<text x="986.6" y="115.0" font-size="14" font-weight="bold" fill="black" text-anchor="end" font-family="'Times New Roman', 'BiauKai', 'DFKai-SB', '标楷体', serif" data-arrow-id="a33_ctl" >首幀探測逾時</text>
<text x="1194.6" y="165.3" font-size="14" font-weight="bold" fill="black" text-anchor="start" font-family="'Times New Roman', 'BiauKai', 'DFKai-SB', '标楷体', serif" data-arrow-id="a33_out_ok" >事件串流（差量或完整模式）</text>
<text x="26.0" y="578.7" font-size="14" font-weight="bold" fill="black" text-anchor="end" font-family="'Times New Roman', 'BiauKai', 'DFKai-SB', '标楷体', serif" data-arrow-id="a34_in" >請求主體（含 stream:true）</text>
<text x="1194.6" y="672.0" font-size="14" font-weight="bold" fill="black" text-anchor="start" font-family="'Times New Roman', 'BiauKai', 'DFKai-SB', '标楷体', serif" data-arrow-id="a34_out" >SSE 位元組串流</text>
<text x="1194.6" y="552.0" font-size="14" font-weight="bold" fill="black" text-anchor="start" font-family="'Times New Roman', 'BiauKai', 'DFKai-SB', '标楷体', serif" data-arrow-id="a35_out" >設定 sticky HTTP 旗標 + 回傳 null</text>
</svg>