<svg width="1270" height="776" viewBox="-130.0 -40.0 1270.0 776.0" xmlns="http://www.w3.org/2000/svg">
<defs><marker id="arrow" viewBox="0 0 10 10" refX="10" refY="5" markerWidth="6" markerHeight="6" orient="auto-start-reverse"><path d="M 0 0 L 10 5 L 0 10 z" fill="black" /></marker></defs>
<rect x="-130.0" y="-40.0" width="1270.0" height="776.0" fill="white" />
<rect x="360.0" y="80.0" width="80" height="60" stroke="black" stroke-width="1.5" fill="white" />
<rect x="365.0" y="85.0" width="70.0" height="50.0" stroke="black" stroke-width="1" fill="none" />
<text x="400" y="115.0" text-anchor="middle" font-family="Arial" font-weight="bold" font-size="14">0</text>
<line x1="440" y1="110.0" x2="480.0" y2="110.0" stroke="black" />
<rect x="480.0" y="40.0" width="170.0" height="140.0" stroke="black" stroke-width="1.2" fill="white" />
<text x="565.0" y="66.0" text-anchor="middle" font-family="Arial" font-size="11">Session 新</text>
<text x="565.0" y="90.0" text-anchor="middle" font-family="Arial" font-size="11">round：解析 tool</text>
<text x="565.0" y="114.0" text-anchor="middle" font-family="Arial" font-size="11">surface (built-</text>
<text x="565.0" y="138.0" text-anchor="middle" font-family="Arial" font-size="11">in + MCP +</text>
<text x="565.0" y="162.0" text-anchor="middle" font-family="Arial" font-size="11">skill)</text>
<line x1="400" y1="140.0" x2="400" y2="220" stroke="black" />
<line x1="380" y1="180.0" x2="420" y2="180.0" stroke="black" stroke-width="2" />
<text x="424.0" y="184.0" font-style="italic" font-size="11" text-anchor="start">工具表面已組裝 (dirty flag 已清除)</text>
<rect x="360.0" y="220.0" width="80" height="60" stroke="black" stroke-width="1.5" fill="white" />
<text x="400" y="255.0" text-anchor="middle" font-family="Arial" font-weight="bold" font-size="14">1</text>
<line x1="440" y1="250.0" x2="480.0" y2="250.0" stroke="black" />
<rect x="480.0" y="192.0" width="170.0" height="116.0" stroke="black" stroke-width="1.2" fill="white" />
<text x="565.0" y="218.0" text-anchor="middle" font-family="Arial" font-size="11">分派 toolCall 至</text>
<text x="565.0" y="241.99999999999997" text-anchor="middle" font-family="Arial" font-size="11">handler (built-</text>
<text x="565.0" y="266.0" text-anchor="middle" font-family="Arial" font-size="11">in/MCP/subagent</text>
<text x="565.0" y="290.0" text-anchor="middle" font-family="Arial" font-size="11">)，執行並收集結果</text>
<line x1="400" y1="280" x2="400" y2="320" stroke="black" />
<line x1="-50.0" y1="320" x2="645.0" y2="320" stroke="black" stroke-width="1.5" />
<line x1="-10.0" y1="320" x2="-10.0" y2="360" stroke="black" />
<line x1="-30.0" y1="360" x2="10.0" y2="360" stroke="black" stroke-width="2" />
<text x="-34.0" y="364" font-style="italic" font-size="11" text-anchor="end">AI 要求更多 toolCalls（繼續迴圈）</text>
<line x1="-10.0" y1="360" x2="-10.0" y2="400" stroke="black" marker-end="url(#arrow)" />
<line x1="605.0" y1="320" x2="605.0" y2="360" stroke="black" />
<line x1="585.0" y1="360" x2="625.0" y2="360" stroke="black" stroke-width="2" />
<text x="629.0" y="364" font-style="italic" font-size="11" text-anchor="start">無更多 toolCalls（turn 完成）</text>
<line x1="605.0" y1="360" x2="605.0" y2="400" stroke="black" marker-end="url(#arrow)" />
<rect x="-50.0" y="400.0" width="80" height="60" stroke="black" stroke-width="1.5" fill="white" />
<text x="-10.0" y="435.0" text-anchor="middle" font-family="Arial" font-weight="bold" font-size="14">2</text>
<line x1="30.0" y1="430.0" x2="70.0" y2="430.0" stroke="black" />
<rect x="70.0" y="396.0" width="170.0" height="68.0" stroke="black" stroke-width="1.2" fill="white" />
<text x="155.0" y="422.0" text-anchor="middle" font-family="Arial" font-size="11">將工具結果回饋至訊息鏈，觸發下</text>
<text x="155.0" y="445.99999999999994" text-anchor="middle" font-family="Arial" font-size="11">一輪 AI 推論</text>
<rect x="565.0" y="400.0" width="80" height="60" stroke="black" stroke-width="1.5" fill="white" />
<text x="605.0" y="435.0" text-anchor="middle" font-family="Arial" font-weight="bold" font-size="14">3</text>
<line x1="645.0" y1="430.0" x2="685.0" y2="430.0" stroke="black" />
<rect x="685.0" y="384.0" width="170.0" height="92.0" stroke="black" stroke-width="1.2" fill="white" />
<text x="770.0" y="410.0" text-anchor="middle" font-family="Arial" font-size="11">Turn</text>
<text x="770.0" y="434.0" text-anchor="middle" font-family="Arial" font-size="11">完成：DOOM_LOOP 檢查</text>
<text x="770.0" y="458.0" text-anchor="middle" font-family="Arial" font-size="11">(&lt; 3 連續錯誤)，發布遙測</text>
<line x1="605.0" y1="460" x2="605.0" y2="500" stroke="black" />
<line x1="360.0" y1="500" x2="850.0" y2="500" stroke="black" stroke-width="1.5" />
<line x1="400.0" y1="500" x2="400.0" y2="540" stroke="black" />
<line x1="380.0" y1="540" x2="420.0" y2="540" stroke="black" stroke-width="2" />
<text x="376.0" y="544" font-style="italic" font-size="11" text-anchor="end">DOOM_LOOP 通過，正常完成</text>
<line x1="400.0" y1="540" x2="400.0" y2="580" stroke="black" marker-end="url(#arrow)" />
<line x1="810.0" y1="500" x2="810.0" y2="540" stroke="black" />
<line x1="790.0" y1="540" x2="830.0" y2="540" stroke="black" stroke-width="2" />
<text x="834.0" y="544" font-style="italic" font-size="11" text-anchor="start">DOOM_LOOP 觸發，連續錯誤過多</text>
<line x1="810.0" y1="540" x2="810.0" y2="580" stroke="black" marker-end="url(#arrow)" />
<rect x="360.0" y="580.0" width="80" height="60" stroke="black" stroke-width="1.5" fill="white" />
<text x="400.0" y="615.0" text-anchor="middle" font-family="Arial" font-weight="bold" font-size="14">4</text>
<line x1="440.0" y1="610.0" x2="480.0" y2="610.0" stroke="black" />
<rect x="480.0" y="564.0" width="170.0" height="92.0" stroke="black" stroke-width="1.2" fill="white" />
<text x="565.0" y="590.0" text-anchor="middle" font-family="Arial" font-size="11">更新 SharedContex</text>
<text x="565.0" y="614.0" text-anchor="middle" font-family="Arial" font-size="11">t，檢查 dirty</text>
<text x="565.0" y="638.0" text-anchor="middle" font-family="Arial" font-size="11">flag，準備下一 round</text>
<rect x="770.0" y="580.0" width="80" height="60" stroke="black" stroke-width="1.5" fill="white" />
<text x="810.0" y="615.0" text-anchor="middle" font-family="Arial" font-weight="bold" font-size="14">5</text>
<line x1="850.0" y1="610.0" x2="890.0" y2="610.0" stroke="black" />
<rect x="890.0" y="576.0" width="170.0" height="68.0" stroke="black" stroke-width="1.2" fill="white" />
<text x="975.0" y="602.0" text-anchor="middle" font-family="Arial" font-size="11">DOOM_LOOP 觸發：停止</text>
<text x="975.0" y="626.0" text-anchor="middle" font-family="Arial" font-size="11">工具迴圈，回報連續失敗</text>
</svg>